<?xml version="1.0" encoding="UTF-8" standalone="no"?>
<!DOCTYPE svg PUBLIC "-//W3C//DTD SVG 1.1//EN"
 "http://www.w3.org/Graphics/SVG/1.1/DTD/svg11.dtd">
<!-- Generated by graphviz version 2.28.0 (20110507.0327)
 -->
<!-- Title: finite_state_machine Pages: 1 -->
<svg width="374pt" height="129pt"
 viewBox="0.00 0.00 374.00 129.00" xmlns="http://www.w3.org/2000/svg" xmlns:xlink="http://www.w3.org/1999/xlink">
<g id="graph1" class="graph" transform="scale(1 1) rotate(0) translate(4 125)">
<title>finite_state_machine</title>
<polygon fill="white" stroke="white" points="-4,5 -4,-125 371,-125 371,5 -4,5"/>
<!-- qi -->
<g id="node1" class="node"><title>qi</title>
<ellipse fill="black" stroke="black" cx="2" cy="-21" rx="1.8" ry="1.8"/>
</g>
<!-- init -->
<g id="node3" class="node"><title>init</title>
<ellipse fill="none" stroke="black" cx="64" cy="-21" rx="21.3963" ry="21.3963"/>
<text text-anchor="middle" x="64" y="-17.3" font-family="Times New Roman,serif" font-size="14.00">init</text>
</g>
<!-- qi&#45;&gt;init -->
<g id="edge2" class="edge"><title>qi&#45;&gt;init</title>
<path fill="none" stroke="black" d="M4.04141,-21C7.61564,-21 19.8484,-21 32.2518,-21"/>
<polygon fill="black" stroke="black" points="32.5245,-24.5001 42.5245,-21 32.5244,-17.5001 32.5245,-24.5001"/>
</g>
<!-- OFF -->
<g id="node5" class="node"><title>OFF</title>
<ellipse fill="none" stroke="black" cx="195" cy="-60" rx="28.6953" ry="28.6953"/>
<text text-anchor="middle" x="195" y="-56.3" font-family="Times New Roman,serif" font-size="14.00">OFF</text>
</g>
<!-- init&#45;&gt;OFF -->
<g id="edge4" class="edge"><title>init&#45;&gt;OFF</title>
<path fill="none" stroke="black" d="M84.8735,-27.0083C104.168,-32.8414 133.912,-41.8338 157.476,-48.958"/>
<polygon fill="black" stroke="black" points="156.564,-52.3384 167.149,-51.8822 158.589,-45.638 156.564,-52.3384"/>
<text text-anchor="middle" x="126" y="-49.8" font-family="Times New Roman,serif" font-size="14.00">stay/init</text>
</g>
<!-- ON -->
<g id="node7" class="node"><title>ON</title>
<ellipse fill="none" stroke="black" cx="342" cy="-31" rx="24.0958" ry="24.0958"/>
<text text-anchor="middle" x="342" y="-27.3" font-family="Times New Roman,serif" font-size="14.00">ON</text>
</g>
<!-- init&#45;&gt;ON -->
<g id="edge6" class="edge"><title>init&#45;&gt;ON</title>
<path fill="none" stroke="black" d="M85.4186,-17.3275C105.759,-13.8684 137.92,-8.93688 166,-7 225.652,-2.88536 241.656,-5.91233 300,-19 302.85,-19.6392 305.792,-20.3657 308.733,-21.1374"/>
<polygon fill="black" stroke="black" points="308.006,-24.5682 318.578,-23.8748 309.881,-17.824 308.006,-24.5682"/>
<text text-anchor="middle" x="195" y="-10.8" font-family="Times New Roman,serif" font-size="14.00">stay/init</text>
</g>
<!-- OFF&#45;&gt;OFF -->
<g id="edge8" class="edge"><title>OFF&#45;&gt;OFF</title>
<path fill="none" stroke="black" d="M182.403,-85.5442C181.371,-96.5645 185.57,-106 195,-106 201.336,-106 205.31,-101.741 206.923,-95.6031"/>
<polygon fill="black" stroke="black" points="210.421,-95.7559 207.597,-85.5442 203.436,-95.2877 210.421,-95.7559"/>
<text text-anchor="middle" x="195" y="-109.8" font-family="Times New Roman,serif" font-size="14.00">stay/off</text>
</g>
<!-- OFF&#45;&gt;ON -->
<g id="edge10" class="edge"><title>OFF&#45;&gt;ON</title>
<path fill="none" stroke="black" d="M223.716,-58.4087C244.869,-56.7458 274.601,-53.4371 300,-47 303.361,-46.1483 306.818,-45.0958 310.233,-43.9405"/>
<polygon fill="black" stroke="black" points="311.443,-47.2248 319.624,-40.4937 309.031,-40.6533 311.443,-47.2248"/>
<text text-anchor="middle" x="271" y="-60.8" font-family="Times New Roman,serif" font-size="14.00">switch/off</text>
</g>
<!-- ON&#45;&gt;OFF -->
<g id="edge12" class="edge"><title>ON&#45;&gt;OFF</title>
<path fill="none" stroke="black" d="M318.408,-26.1768C297.961,-22.771 267.267,-20.0757 242,-28 236.291,-29.7904 230.67,-32.5673 225.425,-35.7535"/>
<polygon fill="black" stroke="black" points="223.36,-32.9244 217.002,-41.4001 227.258,-38.7388 223.36,-32.9244"/>
<text text-anchor="middle" x="271" y="-31.8" font-family="Times New Roman,serif" font-size="14.00">switch/on</text>
</g>
<!-- ON&#45;&gt;ON -->
<g id="edge14" class="edge"><title>ON&#45;&gt;ON</title>
<path fill="none" stroke="black" d="M329.417,-51.7454C327.278,-62.8674 331.473,-73 342,-73 349.073,-73 353.287,-68.426 354.643,-62.051"/>
<polygon fill="black" stroke="black" points="358.141,-61.725 354.583,-51.7454 351.141,-61.7654 358.141,-61.725"/>
<text text-anchor="middle" x="342" y="-76.8" font-family="Times New Roman,serif" font-size="14.00">stay/on</text>
</g>
</g>
</svg>
