<?xml version="1.0" encoding="UTF-8" standalone="no"?>
<!DOCTYPE svg PUBLIC "-//W3C//DTD SVG 1.1//EN"
 "http://www.w3.org/Graphics/SVG/1.1/DTD/svg11.dtd">
<!-- Generated by graphviz version 2.28.0 (20110507.0327)
 -->
<!-- Title: finite_state_machine Pages: 1 -->
<svg width="516pt" height="67pt"
 viewBox="0.00 0.00 516.00 67.00" xmlns="http://www.w3.org/2000/svg" xmlns:xlink="http://www.w3.org/1999/xlink">
<g id="graph1" class="graph" transform="scale(1 1) rotate(0) translate(4 63)">
<title>finite_state_machine</title>
<polygon fill="white" stroke="white" points="-4,5 -4,-63 513,-63 513,5 -4,5"/>
<!-- A -->
<g id="node1" class="node"><title>A</title>
<ellipse fill="none" stroke="black" cx="58" cy="-18" rx="18" ry="18"/>
<text text-anchor="middle" x="58" y="-14.3" font-family="Times New Roman,serif" font-size="14.00">T</text>
</g>
<!-- B -->
<g id="node2" class="node"><title>B</title>
<ellipse fill="none" stroke="black" cx="130" cy="-18" rx="18" ry="18"/>
<text text-anchor="middle" x="130" y="-14.3" font-family="Times New Roman,serif" font-size="14.00">T</text>
</g>
<!-- A&#45;&gt;B -->
<g id="edge4" class="edge"><title>A&#45;&gt;B</title>
<path fill="none" stroke="black" d="M76.3034,-18C84.0173,-18 93.2875,-18 101.888,-18"/>
<polygon fill="black" stroke="black" points="101.896,-21.5001 111.896,-18 101.896,-14.5001 101.896,-21.5001"/>
</g>
<!-- C -->
<g id="node3" class="node"><title>C</title>
<ellipse fill="none" stroke="black" cx="202" cy="-18" rx="18" ry="18"/>
<text text-anchor="middle" x="202" y="-14.3" font-family="Times New Roman,serif" font-size="14.00">T</text>
</g>
<!-- B&#45;&gt;C -->
<g id="edge6" class="edge"><title>B&#45;&gt;C</title>
<path fill="none" stroke="black" d="M148.303,-18C156.017,-18 165.288,-18 173.888,-18"/>
<polygon fill="black" stroke="black" points="173.896,-21.5001 183.896,-18 173.896,-14.5001 173.896,-21.5001"/>
</g>
<!-- D -->
<g id="node4" class="node"><title>D</title>
<ellipse fill="none" stroke="black" cx="274" cy="-41" rx="18" ry="18"/>
<text text-anchor="middle" x="274" y="-37.3" font-family="Times New Roman,serif" font-size="14.00">T</text>
</g>
<!-- C&#45;&gt;D -->
<g id="edge8" class="edge"><title>C&#45;&gt;D</title>
<path fill="none" stroke="black" d="M219.235,-23.3345C227.422,-26.0242 237.552,-29.3528 246.805,-32.393"/>
<polygon fill="black" stroke="black" points="245.774,-35.7383 256.367,-35.5347 247.959,-29.088 245.774,-35.7383"/>
</g>
<!-- E -->
<g id="node5" class="node"><title>E</title>
<ellipse fill="none" stroke="black" cx="346" cy="-18" rx="18" ry="18"/>
<text text-anchor="middle" x="346" y="-14.3" font-family="Times New Roman,serif" font-size="14.00">T</text>
</g>
<!-- D&#45;&gt;E -->
<g id="edge10" class="edge"><title>D&#45;&gt;E</title>
<path fill="none" stroke="black" d="M291.235,-35.6655C299.422,-32.9758 309.552,-29.6472 318.805,-26.607"/>
<polygon fill="black" stroke="black" points="319.959,-29.912 328.367,-23.4653 317.774,-23.2617 319.959,-29.912"/>
</g>
<!-- E&#45;&gt;C -->
<g id="edge12" class="edge"><title>E&#45;&gt;C</title>
<path fill="none" stroke="black" d="M327.833,-16.3751C317.467,-15.4761 303.987,-14.4517 292,-14 276.011,-13.3975 271.989,-13.3975 256,-14 247.665,-14.3141 238.608,-14.905 230.379,-15.5382"/>
<polygon fill="black" stroke="black" points="229.848,-12.0699 220.167,-16.3751 230.42,-19.0465 229.848,-12.0699"/>
</g>
<!-- F -->
<g id="node6" class="node"><title>F</title>
<ellipse fill="none" stroke="black" cx="418" cy="-18" rx="18" ry="18"/>
<text text-anchor="middle" x="418" y="-14.3" font-family="Times New Roman,serif" font-size="14.00">F</text>
</g>
<!-- E&#45;&gt;F -->
<g id="edge14" class="edge"><title>E&#45;&gt;F</title>
<path fill="none" stroke="black" d="M364.303,-18C372.017,-18 381.288,-18 389.888,-18"/>
<polygon fill="black" stroke="black" points="389.896,-21.5001 399.896,-18 389.896,-14.5001 389.896,-21.5001"/>
</g>
<!-- G -->
<g id="node7" class="node"><title>G</title>
<ellipse fill="yellow" stroke="black" cx="490" cy="-18" rx="18" ry="18"/>
<text text-anchor="middle" x="490" y="-14.3" font-family="Times New Roman,serif" font-size="14.00">p</text>
</g>
<!-- F&#45;&gt;G -->
<g id="edge16" class="edge"><title>F&#45;&gt;G</title>
<path fill="none" stroke="black" d="M436.303,-18C444.017,-18 453.288,-18 461.888,-18"/>
<polygon fill="black" stroke="black" points="461.896,-21.5001 471.896,-18 461.896,-14.5001 461.896,-21.5001"/>
</g>
<!-- qi -->
<g id="node8" class="node"><title>qi</title>
<ellipse fill="yellow" stroke="black" cx="2" cy="-18" rx="1.8" ry="1.8"/>
</g>
<!-- qi&#45;&gt;A -->
<g id="edge2" class="edge"><title>qi&#45;&gt;A</title>
<path fill="none" stroke="black" d="M3.93727,-18C7.19697,-18 18.4585,-18 29.7732,-18"/>
<polygon fill="black" stroke="black" points="29.9512,-21.5001 39.9511,-18 29.9511,-14.5001 29.9512,-21.5001"/>
</g>
</g>
</svg>
