<?xml version="1.0" encoding="UTF-8" standalone="no"?>
<!DOCTYPE svg PUBLIC "-//W3C//DTD SVG 1.1//EN"
 "http://www.w3.org/Graphics/SVG/1.1/DTD/svg11.dtd">
<!-- Generated by graphviz version 2.28.0 (20110507.0327)
 -->
<!-- Title: finite_state_machine Pages: 1 -->
<svg width="344pt" height="79pt"
 viewBox="0.00 0.00 344.00 79.00" xmlns="http://www.w3.org/2000/svg" xmlns:xlink="http://www.w3.org/1999/xlink">
<g id="graph1" class="graph" transform="scale(1 1) rotate(0) translate(4 75)">
<title>finite_state_machine</title>
<polygon fill="white" stroke="white" points="-4,5 -4,-75 341,-75 341,5 -4,5"/>
<!-- qi -->
<g id="node1" class="node"><title>qi</title>
<ellipse fill="black" stroke="black" cx="2" cy="-47" rx="1.8" ry="1.8"/>
</g>
<!-- AD -->
<g id="node3" class="node"><title>AD</title>
<ellipse fill="none" stroke="black" cx="64" cy="-47" rx="23.2963" ry="23.2963"/>
<text text-anchor="middle" x="64" y="-43.3" font-family="Times New Roman,serif" font-size="14.00">AD</text>
</g>
<!-- qi&#45;&gt;AD -->
<g id="edge2" class="edge"><title>qi&#45;&gt;AD</title>
<path fill="none" stroke="black" d="M4.04141,-47C7.4114,-47 18.4786,-47 30.1288,-47"/>
<polygon fill="black" stroke="black" points="30.338,-50.5001 40.338,-47 30.3379,-43.5001 30.338,-50.5001"/>
</g>
<!-- AB -->
<g id="node5" class="node"><title>AB</title>
<ellipse fill="none" stroke="black" cx="147" cy="-22" rx="22.9987" ry="22.9987"/>
<text text-anchor="middle" x="147" y="-18.3" font-family="Times New Roman,serif" font-size="14.00">AB</text>
</g>
<!-- AD&#45;&gt;AB -->
<g id="edge4" class="edge"><title>AD&#45;&gt;AB</title>
<path fill="none" stroke="black" d="M86.7065,-40.3005C95.5407,-37.5739 105.908,-34.3742 115.481,-31.4194"/>
<polygon fill="black" stroke="black" points="116.55,-34.7525 125.073,-28.4589 114.486,-28.0638 116.55,-34.7525"/>
</g>
<!-- CD -->
<g id="node7" class="node"><title>CD</title>
<ellipse fill="none" stroke="black" cx="230" cy="-48" rx="23.2963" ry="23.2963"/>
<text text-anchor="middle" x="230" y="-44.3" font-family="Times New Roman,serif" font-size="14.00">CD</text>
</g>
<!-- AB&#45;&gt;CD -->
<g id="edge6" class="edge"><title>AB&#45;&gt;CD</title>
<path fill="none" stroke="black" d="M170.134,-23.0138C179.478,-25.2942 190.478,-28.6943 200.425,-32.3447"/>
<polygon fill="black" stroke="black" points="199.331,-35.675 209.92,-36.0464 201.874,-29.1531 199.331,-35.675"/>
</g>
<!-- CD&#45;&gt;AD -->
<g id="edge8" class="edge"><title>CD&#45;&gt;AD</title>
<path fill="none" stroke="black" d="M206.615,-50.3455C195.601,-51.385 182.119,-52.4874 170,-53 149.574,-53.864 144.418,-54.0355 124,-53 115.374,-52.5625 106.065,-51.7674 97.4483,-50.8961"/>
<polygon fill="black" stroke="black" points="97.6889,-47.4019 87.3724,-49.8144 96.9416,-54.3619 97.6889,-47.4019"/>
</g>
<!-- CD&#45;&gt;AB -->
<g id="edge14" class="edge"><title>CD&#45;&gt;AB</title>
<path fill="none" stroke="black" d="M206.571,-46.914C197.189,-44.6094 186.178,-41.1933 176.252,-37.5362"/>
<polygon fill="black" stroke="black" points="177.374,-34.2172 166.787,-33.8311 174.823,-40.7355 177.374,-34.2172"/>
</g>
<!-- CB -->
<g id="node10" class="node"><title>CB</title>
<ellipse fill="none" stroke="black" cx="313" cy="-22" rx="22.9987" ry="22.9987"/>
<text text-anchor="middle" x="313" y="-18.3" font-family="Times New Roman,serif" font-size="14.00">CB</text>
</g>
<!-- CD&#45;&gt;CB -->
<g id="edge10" class="edge"><title>CD&#45;&gt;CB</title>
<path fill="none" stroke="black" d="M252.707,-41.0325C261.541,-38.1968 271.908,-34.8691 281.481,-31.7962"/>
<polygon fill="black" stroke="black" points="282.621,-35.1062 291.073,-28.7173 280.482,-28.4411 282.621,-35.1062"/>
</g>
<!-- CB&#45;&gt;AB -->
<g id="edge12" class="edge"><title>CB&#45;&gt;AB</title>
<path fill="none" stroke="black" d="M290.283,-19.2173C279.409,-17.9607 266.031,-16.6206 254,-16 232.695,-14.9009 227.305,-14.9009 206,-16 197.447,-16.4412 188.213,-17.2461 179.682,-18.1261"/>
<polygon fill="black" stroke="black" points="179.277,-14.6494 169.717,-19.2173 180.039,-21.6078 179.277,-14.6494"/>
</g>
</g>
</svg>
