<?xml version="1.0" standalone="no"?>
<!DOCTYPE svg PUBLIC "-//W3C//DTD SVG 20010904//EN"
 "http://www.w3.org/TR/2001/REC-SVG-20010904/DTD/svg10.dtd">
<svg version="1.0" xmlns="http://www.w3.org/2000/svg"
 width="4273.000000pt" height="1686.000000pt" viewBox="0 0 4273.000000 1686.000000"
 preserveAspectRatio="xMidYMid meet">
<metadata>
Created by potrace 1.13, written by Peter Selinger 2001-2015
</metadata>
<g transform="translate(0.000000,1686.000000) scale(1.000000,-1.000000)"
fill="#000000" stroke="none">
<path d="M100 1646 c-1 0 -1 0 0 -1 0 -1 0 -1 1 -1 0 0 0 0 0 1 0 1 0 1 -1 1z
M2922 1645 c-1 0 -2 -1 -3 -2 -1 -1 -1 -3 -1 -9 1 -4 1 -10 2 -13 0 -2 0 -8 0
-11 0 -4 -1 -13 -2 -20 -2 -8 -4 -15 -4 -16 -1 -2 -2 -3 -2 -3 -1 0 -3 -1 -4
-2 -2 -3 -2 -3 -1 -5 2 -2 3 -3 4 -2 1 0 4 1 5 3 2 1 3 4 4 6 1 3 2 7 3 10 1
3 2 8 3 11 1 3 1 6 1 6 1 0 1 4 1 7 1 6 1 7 5 10 l3 3 4 -2 c2 -1 3 -2 4 -3 0
0 1 -1 1 -1 1 0 3 -2 5 -5 4 -4 4 -4 3 -6 -1 -2 -3 -5 -6 -8 -2 -3 -7 -9 -11
-14 -4 -4 -7 -8 -8 -10 -1 -1 -2 -4 -4 -7 -1 -2 -2 -6 -3 -9 -1 -4 -1 -6 0 -8
1 -1 3 -3 4 -4 3 -2 4 -2 9 -2 4 0 7 1 11 2 3 2 6 4 7 6 2 1 4 5 6 7 2 2 4 6
5 7 0 1 2 5 3 9 1 3 2 9 2 12 1 4 0 8 -1 10 0 3 -1 5 -1 7 0 1 1 4 2 5 1 1 4
2 5 3 1 1 2 2 2 3 0 1 0 2 -1 3 -1 1 -2 1 -5 1 -2 -1 -5 -2 -6 -4 l-3 -2 -7 7
c-3 4 -7 7 -8 7 0 0 -2 1 -4 3 -2 1 -4 2 -6 2 -1 0 -3 -1 -4 -2 l-2 -2 -1 2
c0 2 0 5 0 7 1 2 0 5 0 7 -1 2 -2 4 -3 5 -1 1 -3 1 -3 1z m37 -52 c0 0 1 -1 1
-2 1 -1 2 -4 2 -6 0 -3 0 -6 0 -8 -1 -2 -3 -7 -5 -11 -2 -4 -5 -9 -6 -11 -2
-2 -5 -4 -7 -5 -3 -2 -6 -3 -8 -3 -3 -1 -5 -1 -6 0 -1 1 -1 2 0 7 1 3 1 7 2 9
0 3 1 4 2 4 0 0 3 1 5 4 2 2 4 5 4 5 0 1 0 1 1 1 1 0 3 1 4 3 2 2 3 4 3 4 0 1
2 3 4 5 2 2 4 4 4 4z M121 1644 c-1 0 -1 0 -1 -1 -1 -1 -1 -1 0 -1 1 0 1 0 1
1 0 1 0 1 0 1z M110 1636 c-1 0 -1 0 1 -1 1 -1 2 -2 2 -1 0 0 0 0 0 1 -1 1 -2
1 -3 1z M2892 1632 c-1 0 -1 -1 -1 -2 0 -1 0 -1 1 0 0 1 0 1 0 2z M2383 1605
c0 0 -1 0 0 -1 0 -1 1 -1 1 -1 1 0 1 0 1 1 0 1 -1 1 -2 1z M3947 1587 c-1 0
-2 0 -2 -1 0 0 0 -1 1 -2 0 -1 3 -1 5 -1 3 0 5 0 5 0 0 0 -2 1 -4 2 -2 1 -4 1
-5 2z M977 1560 c-1 1 -1 1 -1 1 0 -1 0 -2 1 -3 1 -1 1 -1 1 0 0 0 0 1 -1 2z
M4111 1559 c-1 0 -1 -1 0 -3 0 -1 1 -3 1 -3 0 -1 1 0 2 0 1 1 1 2 -1 4 -1 1
-2 2 -2 2z M2960 1538 c-2 0 -3 -1 -4 -2 0 -1 -1 -24 -2 -52 0 -48 0 -51 -2
-53 -1 -1 -2 -3 -2 -4 0 -2 1 -4 2 -5 2 -2 2 -2 2 -56 -1 -29 -1 -83 -1 -119
-1 -37 -1 -82 -2 -101 0 -20 0 -60 -1 -90 0 -31 0 -79 -1 -108 0 -30 0 -75 0
-101 -1 -37 -1 -49 -2 -49 -1 -1 -1 -1 0 -2 0 -1 1 -13 0 -37 0 -20 0 -38 0
-39 0 -1 0 -14 0 -28 0 -15 0 -36 -1 -48 0 -12 0 -22 0 -22 0 -1 0 -17 1 -37
0 -22 0 -36 -1 -37 0 -1 -2 -1 -4 -1 -2 0 -23 0 -47 0 -24 1 -45 1 -46 1 -2 0
-4 1 -5 1 0 1 -2 1 -3 0 -1 0 -14 -1 -28 0 -14 0 -32 0 -41 0 -9 0 -16 1 -17
1 -1 1 -1 1 -2 0 -1 -1 -5 -1 -10 -1 -4 0 -13 0 -19 0 -7 0 -13 0 -14 1 -2 1
-2 1 -3 0 0 -1 -1 -2 -1 -1 -1 0 -2 -1 -3 -2 -1 -1 -2 -3 -1 -4 0 0 1 -1 2 -1
1 0 3 1 3 3 1 1 3 2 3 1 1 0 1 -1 1 -1 0 -1 0 -1 -1 0 -1 0 -1 0 -1 -1 0 0 0
-1 1 -2 0 -1 10 -1 35 -1 19 -1 46 -1 59 -2 13 0 50 0 82 -1 32 0 58 0 59 -1
2 0 2 -4 2 -48 -1 -27 -1 -71 -1 -98 -1 -27 -1 -70 -1 -95 -1 -26 -1 -82 -2
-125 0 -50 -1 -79 -1 -80 -1 0 -2 -1 -2 -1 -1 0 -3 -1 -4 -3 -1 -2 -2 -4 -2
-5 0 -1 2 -2 3 -3 1 0 3 -1 3 -2 1 0 1 -2 2 -4 0 -1 0 -7 0 -12 0 -8 1 -10 2
-11 1 -1 3 -1 4 0 2 0 3 2 3 2 0 1 1 2 2 2 0 0 1 1 1 3 0 1 0 2 -1 1 0 -1 0
-2 -1 -2 0 0 0 12 0 28 0 15 0 72 0 127 1 54 1 109 1 121 1 12 1 57 2 100 0
42 0 82 1 90 0 7 0 13 0 14 0 0 2 1 5 2 3 0 11 0 19 0 8 -1 48 -1 89 -2 40 0
77 0 82 0 l8 0 0 -10 c-1 -6 -1 -16 -2 -23 0 -10 0 -14 1 -18 2 -5 2 -6 4 -6
1 1 3 1 3 1 0 0 1 2 0 5 0 3 0 6 -1 6 0 1 0 2 0 3 0 1 0 2 0 3 1 1 1 2 1 4 0
1 1 2 3 2 1 0 2 1 2 5 1 2 1 7 0 10 0 3 0 8 0 11 l1 7 33 -1 c18 0 61 0 95 0
34 -1 75 -1 90 -2 14 0 53 0 85 -1 31 0 60 0 64 0 l7 0 0 -16 c0 -13 1 -16 3
-20 1 -2 3 -4 4 -5 2 -1 3 -1 3 0 1 0 1 4 1 7 0 4 0 12 -1 20 0 13 0 13 2 13
1 1 20 1 42 0 22 0 67 0 101 0 33 -1 73 -1 89 -1 16 -1 55 -1 87 -1 31 -1 81
-1 111 -2 29 0 72 0 96 0 39 -1 44 -1 46 -2 1 -1 2 -2 3 -2 0 0 1 -1 1 -2 1
-1 1 -5 1 -8 1 -4 1 -6 3 -7 1 -1 3 -2 4 -1 1 0 2 1 3 3 0 1 0 4 -1 7 -1 3 -1
6 -1 8 l0 3 15 0 c9 0 17 0 20 0 3 0 5 1 6 3 1 1 1 2 0 3 -1 2 -3 2 -7 3 -3 0
-11 0 -17 0 -7 0 -13 0 -14 1 -1 0 -2 1 -1 6 0 3 0 7 1 9 0 2 0 5 -1 7 0 1 -1
4 -1 6 0 2 -1 7 -1 11 -1 3 -2 11 -3 17 -1 6 -3 13 -4 17 0 3 -1 8 -2 11 0 2
-1 7 -2 11 -1 3 -2 7 -2 8 0 2 -1 6 -1 8 -1 3 -2 8 -2 11 0 3 -1 6 -1 7 -1 1
-2 4 -3 7 -1 2 -2 6 -3 8 -1 2 -2 5 -3 7 -1 1 -3 5 -4 7 -1 2 -4 8 -6 13 -1 4
-4 12 -6 18 -2 6 -5 13 -6 15 -1 3 -3 5 -3 6 -1 2 -3 4 -4 6 -2 2 -3 4 -2 5 0
0 0 1 -1 1 -1 0 -1 1 -1 2 0 0 -1 3 -2 5 -1 3 -3 6 -4 9 0 2 -1 4 -1 5 1 0 1
1 0 1 0 0 -2 2 -3 5 -2 2 -3 5 -3 6 0 1 -1 2 -1 2 -1 1 -2 2 -3 4 -1 2 -4 8
-6 13 -3 5 -6 11 -7 13 -1 1 -3 4 -4 6 -2 2 -3 4 -3 5 0 1 -1 3 -2 4 -1 2 -4
7 -7 11 -2 4 -6 12 -9 18 -4 6 -9 14 -12 19 -3 5 -6 9 -6 10 0 0 -1 2 -1 3 -1
1 -2 3 -3 5 -1 1 -3 4 -5 7 -1 2 -3 6 -4 7 0 1 -2 4 -4 7 -2 2 -5 5 -6 7 -1 2
-4 6 -6 8 -2 2 -4 5 -5 5 0 1 -2 4 -3 5 -1 2 -3 4 -3 4 -1 0 -1 1 -1 1 0 1 -1
3 -3 5 -1 2 -4 5 -6 7 -2 2 -3 4 -3 4 0 1 -1 2 -2 3 -1 2 -5 5 -7 8 -3 3 -5 6
-5 6 0 1 -1 2 -2 3 -1 2 -4 4 -6 6 -3 1 -5 3 -5 3 0 0 -4 4 -9 7 -5 4 -10 8
-12 9 -2 2 -6 5 -8 6 -3 2 -6 4 -6 4 -1 0 -2 1 -3 1 -1 1 -3 3 -5 5 -2 2 -4 4
-5 4 0 0 -1 1 -1 2 -1 1 -2 2 -2 2 0 0 -1 1 -2 1 -1 1 -4 4 -7 6 -4 2 -9 6
-11 9 -3 2 -8 6 -12 9 -3 2 -7 4 -7 4 0 0 -1 0 -1 1 0 0 -4 3 -9 6 -5 3 -12 7
-17 10 -5 2 -9 5 -10 5 -1 1 -3 2 -4 3 -1 0 -3 1 -4 1 0 1 -2 2 -4 3 -2 1 -9
4 -15 8 -6 3 -15 6 -20 8 -5 1 -11 3 -14 4 -4 2 -9 4 -12 5 -4 1 -9 2 -11 3
-2 1 -6 2 -8 3 -3 1 -8 3 -11 4 -4 1 -10 3 -13 5 -4 2 -9 4 -11 4 -2 1 -5 2
-6 3 -2 0 -7 1 -13 2 -6 0 -13 2 -15 2 -2 1 -6 2 -8 3 -3 1 -8 2 -12 3 -5 0
-12 2 -16 3 -7 1 -12 1 -27 1 -10 -1 -20 -1 -22 -2 -3 0 -11 -2 -18 -4 -7 -2
-14 -3 -15 -4 -2 0 -2 0 -2 2 0 1 0 3 -1 4 0 0 -1 1 -2 0 -1 0 -2 -1 -2 -3 0
-2 -1 -3 -1 -4 -1 0 -4 -1 -8 -2 -3 0 -8 -1 -10 -1 -3 -1 -6 -2 -7 -2 0 -1 -5
-2 -10 -3 -5 -1 -14 -4 -21 -7 -8 -3 -21 -8 -30 -11 -9 -4 -17 -8 -18 -8 -2 0
-6 -2 -11 -4 -5 -3 -10 -5 -11 -5 -1 -1 -3 -2 -4 -2 -1 -1 -3 -2 -4 -2 -1 -1
-3 -2 -3 -2 0 0 -1 -1 -2 -2 -2 0 -5 -2 -8 -4 -3 -1 -7 -4 -9 -5 -2 -1 -4 -2
-5 -2 -1 -1 -3 -2 -5 -3 -3 -1 -6 -3 -8 -5 -2 -2 -4 -3 -5 -3 0 0 -3 -2 -7 -4
-4 -3 -11 -8 -17 -12 -7 -3 -15 -9 -18 -12 -4 -2 -10 -6 -13 -7 -3 -2 -9 -5
-12 -8 -4 -3 -9 -6 -10 -7 -2 -1 -8 -5 -13 -10 -6 -4 -13 -10 -15 -14 -3 -3
-8 -8 -11 -11 -4 -3 -13 -12 -22 -21 -9 -9 -17 -17 -19 -19 -1 -2 -5 -6 -8 -9
-2 -3 -9 -10 -13 -16 -5 -6 -11 -13 -14 -16 -4 -5 -5 -5 -9 -5 -2 1 -5 0 -7 0
-2 -1 -4 -2 -4 -2 -1 -1 -1 -2 0 -2 0 -1 2 -1 5 -1 2 -1 4 -2 4 -2 0 -1 -1 -3
-2 -5 -1 -2 -3 -4 -3 -4 -1 -1 -3 -4 -5 -7 -2 -3 -8 -10 -12 -16 -4 -6 -7 -12
-7 -12 0 0 -2 -4 -5 -8 -2 -4 -5 -8 -5 -9 -1 -1 -4 -6 -8 -12 -4 -5 -8 -10 -9
-12 -1 -1 -4 -4 -6 -8 -3 -3 -6 -8 -8 -11 -2 -3 -4 -6 -4 -6 -1 0 -3 -3 -5 -7
-2 -4 -5 -9 -7 -12 -2 -4 -6 -11 -9 -16 -3 -5 -6 -11 -7 -13 -1 -2 -4 -7 -6
-12 -3 -5 -5 -9 -5 -10 0 0 -2 -4 -4 -8 -2 -4 -4 -9 -5 -10 -1 -2 -4 -8 -6
-12 -3 -5 -5 -11 -6 -12 -1 -2 -4 -8 -7 -14 -3 -6 -5 -11 -5 -11 0 -1 -2 -5
-4 -10 -3 -5 -5 -11 -5 -13 -1 -1 -3 -7 -5 -12 -3 -5 -5 -11 -6 -13 -1 -3 -3
-7 -4 -9 -2 -3 -3 -6 -3 -7 0 0 0 -1 -1 -1 -1 0 -1 -1 -1 -2 0 -1 0 -2 -1 -3
-1 -1 -1 -1 -1 2 1 2 0 4 0 5 -1 0 -1 2 -1 4 0 2 1 4 1 3 1 0 1 0 1 1 -1 0 0
3 0 6 1 3 1 5 1 6 -1 1 -2 2 -2 4 0 1 0 9 0 17 -1 13 -1 14 1 13 1 0 2 0 2 2
0 1 -1 3 -2 3 -1 1 -2 4 -1 30 0 16 0 59 0 96 1 36 1 94 1 130 1 35 1 88 1
117 1 29 1 71 1 93 1 21 1 64 2 96 0 31 0 78 0 105 1 27 1 62 1 78 0 15 0 29
0 30 0 1 0 10 0 21 0 11 0 20 0 21 0 0 0 1 0 2 0 0 1 0 1 -1 1 -1 1 -1 0 1 0
1 0 17 -1 35 0 18 0 35 -1 36 0 1 -1 2 -2 2z m629 -389 c6 0 15 -1 21 -2 6 -1
12 -2 14 -3 2 0 3 -1 3 -1 0 0 1 -1 2 -1 1 0 4 0 7 -1 2 -1 5 -2 8 -2 2 0 6 0
10 -1 3 -1 6 -1 8 -1 1 -1 5 -2 9 -3 4 -2 9 -4 12 -5 2 -1 10 -4 17 -6 7 -3
16 -6 20 -7 4 -1 7 -2 7 -2 1 0 3 -1 6 -2 3 -1 6 -3 8 -3 1 -1 7 -3 14 -5 7
-2 15 -5 18 -7 3 -2 8 -5 12 -7 3 -1 8 -4 11 -6 3 -1 5 -3 6 -3 0 -1 3 -2 7
-4 3 -2 6 -3 6 -4 1 0 2 -1 4 -2 2 0 3 -1 3 -1 0 -1 1 -1 2 -1 1 0 2 0 2 -1 0
0 2 -2 5 -4 3 -2 7 -5 9 -6 2 -2 4 -3 4 -3 1 0 4 -2 6 -4 2 -2 4 -4 5 -4 0 0
1 0 1 -1 0 0 2 -2 4 -3 2 -2 5 -4 6 -5 2 -2 5 -4 7 -6 3 -3 7 -7 11 -9 3 -3 8
-6 12 -9 3 -2 7 -5 10 -8 2 -2 6 -5 10 -8 4 -2 8 -5 10 -7 1 -1 4 -3 5 -4 2
-2 5 -5 7 -8 2 -3 4 -5 4 -6 0 0 1 -2 3 -5 2 -2 6 -7 10 -11 4 -3 7 -7 7 -7 0
-1 1 -3 3 -6 2 -2 6 -7 9 -11 3 -4 6 -7 7 -7 0 -1 1 -2 1 -4 1 -1 2 -3 4 -4 1
-2 4 -6 6 -10 2 -4 6 -11 9 -16 3 -5 6 -10 7 -12 1 -1 2 -4 3 -6 1 -1 3 -4 4
-5 1 -2 5 -9 9 -16 3 -7 6 -13 6 -13 0 -1 1 -2 2 -3 1 0 3 -3 5 -6 1 -3 3 -7
4 -8 1 -2 5 -9 9 -16 3 -7 9 -18 12 -24 4 -7 7 -13 7 -14 0 -1 1 -4 2 -6 1 -3
2 -5 2 -5 0 0 3 -6 7 -13 4 -7 8 -14 8 -16 1 -3 3 -7 4 -10 1 -3 2 -6 2 -6 0
0 1 -2 1 -4 1 -3 4 -11 8 -19 5 -9 9 -18 9 -20 1 -2 3 -8 4 -12 0 -4 2 -9 2
-10 1 -2 1 -4 1 -6 0 -1 1 -6 2 -11 1 -4 3 -14 5 -21 1 -7 3 -16 4 -19 0 -3 1
-8 2 -12 0 -4 0 -8 1 -10 0 -2 1 -6 1 -8 0 -2 0 -5 0 -6 0 -1 0 -1 -1 0 -1 0
-1 0 0 -2 0 -1 0 -4 1 -5 0 -1 -1 -2 -1 -1 -1 0 -1 -1 -1 -2 0 -1 0 -2 1 -2 0
0 1 -1 1 -3 0 -2 -1 -3 -1 -3 -1 -1 -2 -1 -3 0 -1 1 -2 1 -2 0 0 -1 -1 -1 -2
-1 -1 0 -2 0 -2 1 -1 1 -2 0 -4 -1 -3 -1 -5 -1 -13 -1 -5 1 -30 1 -54 1 -24 1
-45 1 -46 1 -1 0 -12 0 -25 0 -13 0 -38 0 -55 0 -17 1 -66 1 -107 1 -42 1 -94
1 -115 1 -22 1 -64 1 -93 2 -30 0 -55 0 -55 1 -1 0 -2 4 -3 12 -1 7 -1 17 -2
23 0 5 -1 10 -2 12 0 1 -2 2 -2 2 -1 0 -3 -1 -4 -2 -1 -2 -1 -4 -1 -17 0 -8 0
-18 0 -22 l1 -8 -22 0 c-12 0 -53 0 -90 0 -37 1 -97 1 -132 1 -35 1 -79 1 -96
1 -18 1 -32 1 -33 2 -1 0 -1 2 -1 6 1 4 1 8 2 10 0 2 0 7 -1 10 -1 4 -2 6 -4
8 -3 3 -3 3 -5 2 -1 -1 -2 -2 -3 -3 0 0 0 -4 1 -7 1 -4 2 -9 1 -11 0 -3 0 -8
-1 -10 0 -2 -1 -5 -1 -5 -1 -1 -3 -1 -5 -1 -2 0 -4 1 -5 1 -1 1 -1 1 -1 0 0
-1 -10 -1 -38 -1 -21 0 -38 1 -39 1 0 1 -3 1 -6 0 -3 0 -16 0 -28 0 -13 0 -29
0 -35 1 -6 0 -12 0 -13 0 -2 0 -8 0 -14 0 -10 0 -11 0 -13 2 -2 2 -2 3 -2 7 1
3 1 6 2 6 1 1 1 2 1 3 0 1 1 4 2 7 1 3 3 7 4 9 0 1 1 4 2 7 1 2 2 4 3 5 1 1 2
4 3 7 1 2 2 5 3 6 0 1 1 2 1 3 0 0 1 3 2 5 2 2 4 8 6 13 1 4 3 8 3 8 1 0 1 1
1 2 0 1 0 2 1 3 0 0 1 2 2 5 1 2 3 7 5 11 2 3 4 8 5 10 1 2 2 4 3 5 1 1 2 4 3
6 1 2 2 5 2 7 1 2 4 7 6 12 3 4 9 15 13 25 5 10 9 18 9 18 0 1 2 4 4 8 2 3 4
6 4 7 0 0 1 2 3 4 1 3 4 7 6 11 2 3 6 10 10 15 3 5 6 10 7 11 1 1 3 3 4 5 1 2
4 5 6 8 2 2 5 7 8 10 2 3 4 8 6 10 1 1 3 4 4 5 1 1 2 4 4 6 1 1 2 5 3 7 2 2 3
6 5 7 1 1 2 3 2 3 0 1 2 3 4 7 2 3 6 8 8 11 2 4 5 7 6 9 1 1 3 4 4 5 1 1 3 4
4 5 1 2 3 3 5 3 1 -1 6 -1 10 -1 5 -1 7 -1 9 1 l3 2 -4 1 c-2 0 -6 1 -8 2 -2
1 -4 1 -5 1 -2 0 -1 2 3 7 3 4 8 9 11 12 3 3 5 6 5 7 0 0 2 2 4 5 3 2 6 5 7 7
2 2 5 6 8 10 3 3 10 10 16 16 6 5 13 12 16 15 3 2 6 5 6 6 1 1 6 6 11 11 6 6
13 12 16 14 2 2 5 4 6 5 1 1 2 2 2 2 1 0 3 1 4 2 0 1 2 2 2 2 1 0 5 2 9 5 4 3
7 5 7 4 0 0 5 3 10 6 5 4 12 9 15 11 4 2 11 7 17 11 6 3 12 7 13 8 1 1 5 3 8
4 2 2 6 4 9 6 2 1 6 3 9 5 3 1 8 4 11 5 2 2 5 4 6 5 1 0 4 2 6 3 2 0 6 2 7 2
1 1 3 2 4 3 1 0 4 1 6 2 2 1 7 2 9 3 2 1 7 3 9 5 3 1 7 3 11 4 3 1 8 3 11 4 2
1 5 2 6 3 0 0 1 0 3 0 1 1 3 2 6 3 2 0 5 2 6 3 2 0 4 1 4 0 1 0 2 0 3 1 0 1 5
2 10 2 5 0 11 1 14 2 2 1 5 2 7 2 2 1 4 1 5 1 1 1 2 0 2 -8 1 -5 1 -12 2 -15
0 -3 0 -7 0 -8 0 -2 0 -4 1 -5 0 -1 1 -2 2 -2 0 0 1 1 1 2 0 2 0 3 1 4 1 0 1
6 1 16 -1 8 0 16 0 17 1 1 3 3 5 3 3 1 6 2 7 2 1 0 5 1 9 2 3 1 6 2 7 2 1 1 6
1 11 2 5 1 11 1 14 1 2 1 8 1 14 0z m-630 -595 c0 -1 0 -3 -1 -4 l-1 -2 0 2
c0 2 0 4 1 5 0 1 1 1 1 -1z m205 -54 c0 0 0 0 0 -1 0 -1 0 -1 -1 -1 -1 0 -1 0
0 1 0 1 0 1 1 1z M3527 1049 c-2 2 -2 2 -2 -4 0 -3 0 -9 0 -14 1 -5 1 -15 0
-22 0 -9 0 -15 1 -17 0 -2 1 -3 2 -2 1 0 1 4 2 8 0 3 0 15 0 25 0 11 0 19 -1
19 -1 1 -1 2 -1 3 0 2 -1 3 -1 4z M3420 986 c-1 0 -2 0 -3 -1 0 -1 0 -2 1 -3
1 -1 3 -1 3 -1 1 1 2 2 2 3 0 1 -1 2 -3 2z M3535 943 c0 0 -1 -1 -2 -2 0 -1
-1 -4 -1 -5 0 -2 0 -5 0 -6 0 -1 0 -3 0 -4 0 -2 0 -9 0 -16 -1 -10 -1 -16 0
-19 1 -3 2 -4 3 -4 1 0 2 2 2 5 0 2 0 8 1 13 0 5 1 9 1 10 0 1 0 2 -1 2 0 -1
-1 4 -1 9 0 5 0 11 0 13 0 2 -1 3 -2 4z M3176 896 c-1 0 -1 -1 -1 -2 -1 -1 -1
-12 -1 -23 0 -18 0 -22 1 -25 2 -3 3 -4 4 -4 2 0 3 0 3 13 0 7 -1 13 -1 14 0
0 -1 3 -1 7 1 3 1 6 1 7 0 0 -1 3 -2 7 -1 3 -3 6 -3 6z M3542 844 c0 0 -1 -1
-2 -1 0 -1 -1 -5 -2 -9 0 -4 -1 -12 -2 -18 0 -6 0 -13 0 -16 0 -4 0 -9 1 -12
1 -3 2 -6 2 -6 1 0 1 1 2 2 0 2 0 4 0 5 -1 2 -1 2 0 1 1 -1 1 0 0 5 0 3 0 8 1
11 1 3 1 9 1 13 0 4 1 8 1 8 1 0 1 3 1 6 -1 4 -1 7 -1 8 -1 2 -1 3 -2 3z
M3181 799 c-1 1 -2 1 -3 -1 -1 -1 -2 -4 -3 -7 -1 -2 -1 -8 -1 -13 0 -7 0 -9 1
-11 2 -1 2 -1 3 0 1 2 2 6 3 11 1 5 1 11 1 14 0 3 0 6 -1 7z M3978 775 c0 1
-1 2 -1 1 -1 0 -1 -1 -1 -2 0 -2 0 -2 1 -1 1 0 1 2 1 2z M3552 746 c-1 3 -2 4
-3 2 0 0 -1 -1 0 -1 0 0 0 -1 -1 -1 -1 -1 -1 -2 -1 -3 0 0 0 -2 0 -3 -1 -2 -1
-10 -2 -17 -1 -7 -1 -18 -2 -24 0 -8 0 -10 1 -10 1 0 2 2 3 3 1 2 1 4 1 6 1 1
1 3 1 4 1 1 1 6 2 11 1 4 1 13 2 19 0 6 0 11 -1 14z M3180 742 c-1 0 -2 -1 -3
-1 0 -1 -2 -8 -3 -16 -2 -9 -3 -16 -3 -18 -1 -1 -1 -4 -1 -7 -1 -3 -2 -6 -2
-6 -1 -1 -1 -3 -1 -5 0 -2 1 -4 2 -5 2 -2 2 -2 3 4 1 3 3 6 3 8 1 1 2 4 3 8 1
4 2 13 3 22 0 14 0 16 -1 16z M3189 708 c-1 0 -1 0 -1 -1 0 -1 0 -1 1 -1 1 0
1 0 1 1 0 1 0 1 -1 1z M3191 704 c-1 0 -2 0 -2 -1 -1 0 -1 -1 0 -2 0 -1 1 -1
2 0 0 1 1 2 1 2 0 1 -1 1 -1 1z M3196 698 c-1 0 -1 0 -1 -1 0 -1 -1 -1 -2 -1
-1 0 -1 0 0 -1 1 -1 2 -2 3 -2 1 0 1 0 0 1 -1 0 -1 1 0 2 1 1 1 2 0 2z M3208
679 c-1 0 -1 0 -1 -1 0 -1 0 -1 1 -1 1 0 1 0 1 1 0 1 0 1 -1 1z M3209 676 c0
0 0 0 0 -1 0 -1 0 -1 1 -1 1 0 1 0 1 1 -1 1 -1 1 -2 1z M3209 672 c-1 1 -1 1
-1 -1 0 -1 0 -2 1 -2 0 -1 1 -1 1 0 1 0 0 2 -1 3z M3214 671 c-1 0 -1 -1 -1
-1 -1 -1 -1 -2 0 -2 1 0 1 1 1 2 0 0 0 1 0 1z M3216 665 c-1 2 -1 2 -1 0 0 -1
-1 -2 -1 -2 -1 0 -2 0 -2 1 0 1 0 1 -1 1 -1 0 -1 0 -1 -1 0 0 1 -1 3 -2 1 -1
2 -1 3 -1 0 1 0 2 0 4z M3551 648 c-1 2 -1 2 -1 1 0 -1 0 -2 -1 -2 0 0 -1 -3
-1 -6 0 -3 0 -7 -1 -8 -1 -1 -1 -5 -2 -9 0 -4 0 -10 -1 -13 -1 -3 -1 -7 -1 -7
1 -1 2 -2 3 -2 2 0 3 1 4 4 1 2 2 11 2 20 1 9 2 17 1 18 0 2 -1 3 -2 4z m-4
-42 c0 0 1 0 1 -1 0 0 0 -1 -1 -1 -1 -1 -1 -1 -2 0 -1 0 -1 1 0 1 0 1 1 1 2 1z
M3171 649 c0 0 -1 -1 -1 -3 -1 -1 -1 -4 -1 -6 -1 -3 -1 -6 -1 -8 -1 -2 -1 -5
-2 -6 0 -1 -1 -4 -1 -7 0 -4 0 -6 1 -6 1 0 2 0 4 0 1 0 2 1 2 1 1 1 1 3 1 4 0
2 -1 3 -1 3 -1 1 -1 1 0 2 0 1 1 4 2 8 1 4 1 8 1 11 0 2 0 5 -1 5 -1 1 -2 2
-3 2z M3322 605 c-1 0 -1 0 -1 -1 0 0 0 -1 1 -1 1 -1 1 0 1 0 0 1 0 2 -1 2z
M4129 558 c-1 0 -1 0 -1 -1 -1 0 -1 -1 0 -1 1 -1 1 0 1 0 0 1 0 2 0 2z M4119
549 c0 0 -1 -1 -1 -1 -1 -1 0 -2 0 -3 1 -1 0 -2 0 -2 -1 0 0 -1 0 -3 2 -1 2
-1 2 3 0 3 -1 5 -1 6z M4123 549 c0 0 -1 0 -1 -1 -1 0 0 -1 1 -2 0 -1 1 -2 1
-2 -1 0 0 -1 1 -1 1 -1 1 -1 2 -1 0 0 0 1 0 3 0 1 0 1 -1 1 -1 0 -2 1 -2 1 0
1 0 1 -1 2z M4123 541 c-1 0 -1 0 0 -1 0 -1 1 -1 1 -1 1 0 1 0 1 1 -1 1 -2 1
-2 1z M738 1463 c-2 0 -3 -1 -4 -2 0 -1 0 -3 1 -5 0 -2 0 -4 1 -5 0 -2 0 -7 0
-12 0 -5 0 -11 -1 -14 -1 -3 -2 -9 -3 -14 -1 -4 -2 -10 -3 -13 0 -3 -1 -7 -2
-9 0 -2 -1 -6 -2 -9 0 -3 -1 -6 -2 -7 0 -2 -1 -4 -1 -5 0 -2 1 -3 1 -4 1 0 3
1 4 2 1 1 3 3 3 5 1 1 3 8 5 15 1 7 4 18 5 24 2 6 4 12 4 14 1 2 2 2 4 1 1 -1
3 -1 6 0 1 1 4 2 5 4 l2 2 6 -6 c4 -4 7 -7 7 -7 0 -1 1 -3 3 -5 1 -2 2 -4 1
-5 -1 0 -2 -1 -3 -1 0 0 -4 -3 -8 -6 -3 -4 -8 -9 -11 -11 -2 -2 -5 -6 -7 -9
-2 -3 -4 -7 -5 -9 0 -2 -1 -3 0 -4 1 0 1 -3 1 -6 0 -3 0 -7 -1 -8 -1 -2 -1 -3
0 -3 1 0 1 -1 1 -2 0 -1 1 -3 2 -5 1 -2 3 -5 4 -6 2 -2 5 -3 8 -4 5 0 6 0 10
2 2 2 5 4 6 6 1 1 3 3 4 5 1 2 2 3 1 3 0 0 0 0 1 1 0 0 2 3 3 6 2 3 3 6 4 7 0
1 1 4 2 6 1 3 2 6 2 19 l0 16 4 2 c2 0 5 2 8 2 2 0 5 1 5 2 1 2 1 2 -1 4 -2 2
-3 2 -8 1 -3 0 -7 -1 -8 -2 -3 -1 -3 -1 -6 1 -1 1 -4 5 -6 8 -2 3 -5 7 -7 9
-2 1 -5 4 -8 6 -2 2 -5 4 -6 4 -2 0 -4 -1 -6 -4 -2 -3 -3 -5 -4 -4 -1 0 -2 1
-2 2 -1 1 -1 6 -2 11 -1 5 -2 11 -3 13 -1 2 -2 3 -4 3z m43 -63 c0 0 1 -1 2
-1 1 -1 1 -5 1 -10 0 -4 0 -10 -1 -13 -1 -2 -2 -5 -2 -6 0 -2 -2 -5 -3 -8 -2
-4 -5 -9 -7 -12 -1 -2 -4 -5 -6 -6 -1 -1 -4 -2 -5 -1 -2 0 -3 1 -4 3 0 1 -1 3
-1 5 0 1 -1 1 -2 1 -1 0 -2 1 -3 7 -1 5 -1 6 0 7 1 0 1 1 1 2 0 0 0 1 0 2 0 1
1 3 3 5 2 2 5 6 7 8 2 2 4 4 5 4 0 0 3 3 7 7 4 3 7 6 8 6z M2244 1374 c-2 0
-3 0 -3 -1 0 -1 1 -1 3 -1 1 0 2 0 2 1 0 1 -1 1 -2 1z M775 1324 c-1 0 -1 -1
-1 -2 -1 -1 -1 -5 -1 -8 0 -4 0 -12 0 -20 0 -7 1 -13 1 -14 1 0 0 -2 -1 -3 0
-2 -1 -5 -1 -8 0 -2 0 -6 -1 -8 0 -2 -1 -4 -1 -3 -1 0 -1 -1 -1 -1 0 -1 1 -2
1 -2 1 -1 2 -6 2 -24 0 -12 0 -26 0 -30 0 -5 0 -10 -1 -11 0 -2 -1 -3 -2 -3
-1 0 -1 -1 -1 -2 0 -2 1 -3 3 -3 1 0 2 -1 3 -5 0 -3 0 -6 -1 -10 -1 -4 -1 -5
0 -7 1 0 2 -5 2 -10 0 -5 0 -8 -1 -8 -1 0 -1 -2 -1 -4 0 -3 0 -5 -1 -5 -1 0
-1 -1 -1 -4 1 -2 1 -12 1 -22 0 -10 1 -22 1 -26 1 -4 1 -9 1 -10 0 -1 0 -13 0
-27 0 -13 0 -25 0 -26 0 -2 0 -19 0 -39 0 -34 0 -36 -2 -36 -1 0 -2 0 -2 -1
-1 0 0 -1 1 -2 2 -2 3 -3 3 -7 0 -4 0 -6 0 -7 1 0 0 -2 0 -4 -1 -3 -2 -4 -4
-3 -2 0 -3 0 -3 -3 -1 -1 -1 -3 -2 -4 0 -2 0 -2 2 -1 1 0 3 0 4 -1 2 0 2 -1 2
-11 0 -6 0 -15 0 -20 -1 -4 -1 -9 -2 -9 0 -1 0 -2 1 -3 1 -1 1 -1 0 -1 -1 1
-1 1 -1 0 0 -1 0 -2 1 -2 1 0 1 -1 1 -2 0 -1 -1 -2 -2 -3 -1 0 -1 -1 0 -2 0
-1 0 -3 1 -5 0 -2 0 -5 1 -5 0 -1 1 -3 1 -5 0 -3 0 -6 0 -7 1 -2 0 -4 0 -5 -1
-2 -1 -2 -1 0 0 1 0 1 -1 0 -1 -1 -1 -3 -1 -4 0 -2 1 -3 2 -3 1 0 1 0 0 -1 0
0 -1 -3 -2 -6 0 -4 0 -5 1 -6 2 -2 2 -4 2 -18 -1 -8 -1 -18 -1 -20 -1 -3 -1
-9 -1 -13 -1 -5 -1 -13 -1 -18 0 -6 0 -11 1 -13 0 -1 0 -2 -1 -3 0 -1 0 -2 0
-2 0 -1 -1 -2 -2 -2 -1 0 -2 0 -3 0 -1 0 -1 -1 -1 -3 1 -2 2 -4 4 -5 2 -3 2
-3 1 -4 -1 -1 -1 -3 0 -4 0 -1 0 -7 1 -12 0 -5 0 -11 0 -13 1 -3 1 -4 0 -4 0
0 0 -1 0 -3 0 -2 1 -4 0 -4 0 0 -1 1 -1 2 -1 1 -2 1 -3 1 0 -1 -1 -2 0 -3 0
-1 1 -2 2 -2 2 1 2 0 1 -9 0 -7 0 -11 1 -14 1 -3 1 -5 0 -8 -1 -1 -1 -11 -2
-21 0 -11 0 -20 1 -21 0 -1 0 -2 0 -4 0 -1 0 -2 1 -2 1 -1 1 -3 1 -4 0 -2 -1
-4 -1 -5 -1 -1 -1 -1 0 -1 1 0 2 -1 2 -1 0 -1 -1 -2 -1 -1 -2 0 -2 -1 -2 -3 0
-1 0 -3 1 -3 1 0 1 -2 0 -5 -1 -2 -1 -5 -1 -5 0 -1 -1 -1 -2 -1 -1 0 -4 0 -8
0 -4 0 -16 0 -27 0 -12 0 -24 0 -27 0 -3 0 -6 1 -7 1 -1 1 -1 1 -2 0 0 -1 -5
-1 -17 -1 -10 0 -30 0 -45 0 -15 0 -30 0 -33 0 -3 1 -7 1 -7 0 -1 0 -3 0 -6 0
-2 0 -4 0 -4 0 0 1 -1 1 -2 2 0 0 -2 -1 -3 -1 -2 -2 -2 -2 -5 -1 -1 1 -4 2 -5
1 -1 0 -9 -1 -17 -1 -8 0 -16 -1 -18 0 -2 0 -3 1 -3 1 0 1 -1 2 -3 3 -2 1 -2
1 -3 0 -1 -1 -1 -1 -1 1 0 2 -1 3 -1 3 -1 0 -2 0 -3 -1 0 0 -1 -2 -1 -3 -1 -1
-1 -2 0 -2 0 0 1 -1 2 -3 0 -2 1 -3 0 -3 0 0 1 -2 3 -4 l3 -3 16 0 c15 0 18
-1 19 -2 1 -1 1 -1 1 0 1 1 2 2 3 1 1 0 2 0 2 1 0 1 1 1 3 1 2 -1 6 0 8 0 2 1
4 1 4 0 1 -1 5 -1 10 -1 5 0 8 0 9 0 0 -1 0 0 0 1 -1 2 0 2 2 2 1 0 2 -1 2 -1
0 -1 1 -2 2 -2 2 0 3 0 3 1 0 1 1 2 1 2 1 0 2 -1 2 -1 0 -1 4 -1 11 -1 6 0 10
0 11 0 0 1 1 1 1 0 0 0 1 0 1 1 1 1 4 1 7 1 3 0 6 0 6 -1 0 -1 0 -1 1 -1 1 0
1 0 0 1 0 1 6 1 21 1 15 0 23 -1 26 -2 3 -1 5 -1 6 0 1 0 2 0 3 0 1 -1 8 -1
15 -1 8 1 18 1 23 2 5 0 12 0 15 0 4 0 6 0 7 0 0 -1 0 -12 0 -26 0 -14 1 -27
1 -29 1 -3 1 -8 1 -12 0 -4 0 -11 0 -15 -1 -4 -1 -7 0 -6 0 2 1 2 1 1 1 0 1
-3 0 -5 0 -2 -1 -4 -2 -4 -1 -1 -1 -2 0 -6 1 -3 1 -6 1 -7 -1 -2 0 -4 0 -6 1
-1 1 -3 0 -5 0 -1 0 -3 0 -4 0 -1 0 -2 0 -3 1 0 1 -1 1 -3 0 -1 0 -4 0 -7 0
-3 0 -7 0 -8 0 -2 0 -7 0 -11 0 -5 0 -11 -1 -15 -1 -6 -1 -6 1 -8 2 -1 2 -2 1
-9 0 -3 -1 -8 -1 -9 -1 -1 -1 -3 0 -4 1 0 1 -3 1 -6 0 -3 0 -6 0 -7 -1 -1 -1
-2 0 -2 0 -1 1 -6 0 -12 0 -6 0 -10 1 -8 0 1 1 2 0 2 0 1 0 2 1 3 0 2 0 2 2 1
1 -1 1 -1 2 1 0 1 1 5 0 9 0 4 0 8 -1 9 -1 1 -1 5 -1 8 0 4 0 7 0 8 -1 1 -1 4
0 6 1 3 1 5 0 7 0 1 0 2 0 4 1 1 1 7 1 12 0 5 0 15 -1 23 0 7 0 13 1 13 0 1 1
7 1 14 0 7 0 16 0 21 0 5 0 14 0 22 0 7 0 20 0 30 0 10 0 19 -1 20 0 2 0 3 1
3 1 0 1 1 0 2 -1 1 -1 5 -1 8 0 4 0 7 1 8 1 2 1 2 2 1 1 -2 2 -2 3 0 2 1 8 1
42 2 35 0 40 0 41 -1 0 -2 0 -2 2 0 2 0 3 1 3 1 0 -1 2 -1 3 -1 2 -1 3 0 3 0
0 1 4 1 11 1 7 -1 11 -1 11 -2 1 -1 1 -1 3 0 1 2 6 2 41 1 21 0 43 0 48 -1 6
0 12 -1 15 -1 2 1 7 1 9 1 4 1 5 1 5 -1 1 -1 1 -1 1 0 0 1 0 2 1 2 0 0 0 -4 0
-9 0 -9 0 -11 3 -20 2 -8 3 -11 4 -11 1 -1 2 0 3 0 0 1 0 6 1 11 0 6 0 11 -1
12 -1 0 -1 5 -1 9 0 5 1 9 1 8 1 0 8 0 17 0 8 0 17 0 20 0 2 0 12 0 22 0 12 0
19 0 19 -1 1 -1 2 -1 2 -1 0 1 1 0 1 -1 1 -1 1 -1 2 1 2 2 2 2 9 2 3 0 7 0 7
-1 0 0 1 -1 2 -1 2 -1 2 -1 2 0 -1 1 0 2 1 2 1 0 4 0 8 0 4 0 8 0 9 0 1 0 4 0
6 0 2 0 10 0 19 0 11 0 15 -1 16 -2 1 0 2 -1 3 -1 0 0 1 1 1 2 0 1 4 1 35 1
20 -1 38 -1 41 -1 3 0 8 0 11 0 5 0 6 0 7 -2 1 -1 2 -4 2 -6 1 -3 1 -11 1 -17
1 -6 1 -16 2 -20 0 -7 1 -10 2 -11 1 -1 2 -2 3 -2 1 0 3 0 3 1 1 0 2 1 2 2 0
1 0 2 -1 2 0 0 -1 6 -1 13 -1 7 -1 17 -2 23 0 5 0 11 0 13 l0 4 19 -1 c11 0
21 0 23 0 2 -1 4 -1 5 -1 0 -1 1 -1 2 -1 1 0 2 0 2 1 0 0 1 1 2 1 1 -1 2 0 2
0 0 1 0 1 1 1 1 0 1 -1 1 -1 0 -1 0 -2 1 -2 1 0 1 1 2 2 0 1 2 1 13 0 8 0 24
0 36 0 12 0 26 0 30 0 3 0 8 0 11 0 2 0 5 0 6 0 1 0 5 0 8 0 3 0 5 -1 4 -1 0
-1 1 -1 3 -1 2 1 5 1 7 2 2 0 3 0 4 -1 1 -1 3 -1 12 -1 5 0 11 0 11 1 0 0 3 1
6 1 3 -1 6 -1 6 -2 1 0 2 -1 3 0 0 0 1 0 1 -1 1 -1 2 0 4 1 2 1 5 1 7 1 2 -1
4 0 6 0 2 1 3 1 3 0 0 -1 2 -2 4 -2 2 0 4 0 4 0 1 0 6 1 11 0 6 0 13 0 15 0 3
-1 6 -1 7 0 1 1 3 1 3 0 1 0 3 -1 5 -2 2 -1 3 0 3 1 1 1 1 2 0 2 0 1 1 1 1 1
1 0 2 -1 2 -1 0 -1 0 -2 0 -3 -1 -2 -1 -2 0 -3 1 -1 2 0 2 1 0 1 1 2 1 3 1 0
1 1 1 2 -1 1 0 1 2 1 2 0 4 0 4 0 1 0 6 0 10 0 5 0 12 0 15 0 2 0 10 0 17 0 7
-1 13 -1 14 -1 0 0 1 0 1 0 0 0 4 0 9 0 4 1 9 1 10 2 0 1 5 1 11 1 5 0 13 0
17 0 6 -1 8 -1 9 1 0 0 1 1 1 1 1 0 1 -1 0 -1 0 -1 1 -2 2 -2 1 -1 3 -1 5 -1
2 1 5 0 6 0 2 -1 3 0 3 0 1 0 5 1 10 0 5 0 10 -1 10 -1 0 -1 1 -1 2 -1 0 0 1
0 1 1 0 1 1 2 2 3 1 1 5 1 55 1 29 0 77 0 107 -1 29 0 56 0 60 0 4 0 9 -1 10
-1 2 -1 4 -1 5 0 0 1 4 1 8 1 3 0 7 0 9 1 1 0 2 2 1 3 0 2 0 3 0 4 -1 0 -3 1
-5 1 -3 0 -4 1 -4 3 0 2 -2 4 -4 7 -2 2 -4 4 -4 4 0 1 -2 5 -4 9 -2 4 -4 9 -4
10 -1 1 -2 3 -2 3 0 0 -1 2 -2 4 -1 1 -3 5 -5 8 -2 3 -5 7 -7 9 -1 2 -3 4 -2
4 0 0 -1 1 -2 2 -1 1 -2 4 -3 6 -2 2 -4 6 -5 9 -1 2 -5 8 -7 13 -3 5 -6 9 -6
10 -1 1 -2 3 -3 4 -1 2 -4 8 -8 14 -3 6 -6 11 -6 12 0 0 0 1 -1 1 0 0 -2 2 -4
5 -2 2 -4 6 -5 8 -1 2 -3 4 -3 4 -1 1 -3 4 -4 6 -2 3 -4 6 -5 8 -1 1 -5 7 -8
12 -4 4 -8 10 -9 11 -1 1 -3 5 -5 8 -2 2 -4 6 -4 7 -1 1 -2 4 -3 5 -1 2 -2 3
-2 3 0 1 -3 5 -7 11 -4 5 -10 13 -13 18 -4 5 -9 12 -12 16 -3 4 -10 11 -15 16
-5 5 -10 11 -11 13 -1 2 -3 4 -5 5 -1 1 -4 4 -7 7 -2 3 -8 10 -13 15 -5 4 -11
11 -13 13 -3 3 -6 7 -8 9 -3 2 -6 5 -7 6 -1 2 -3 4 -5 5 -1 2 -4 5 -7 7 -3 2
-8 7 -11 10 -4 3 -9 8 -12 11 -3 3 -9 9 -12 13 -4 4 -10 9 -13 11 -3 2 -6 4
-7 4 0 0 -2 1 -3 3 -2 1 -4 2 -5 2 0 0 -3 2 -7 5 -4 3 -9 6 -11 8 -3 1 -6 3
-7 3 -2 1 -5 3 -7 5 -3 2 -7 4 -9 6 -3 1 -8 3 -12 6 -4 2 -8 4 -8 4 0 0 -2 1
-3 2 -2 1 -6 3 -10 5 -4 2 -9 4 -11 5 -3 2 -7 3 -9 4 -2 1 -4 2 -5 2 -1 1 -3
2 -5 3 -3 2 -7 4 -10 4 -3 1 -8 3 -10 3 -3 1 -12 4 -20 7 -8 2 -15 5 -16 5 -2
1 -4 2 -5 2 -2 0 -4 0 -4 1 -1 0 -5 2 -8 3 -4 1 -8 2 -9 2 -2 1 -3 1 -4 1 -1
1 -5 2 -9 2 -4 1 -17 3 -28 4 -15 1 -29 2 -46 1 -14 0 -30 0 -36 0 -7 -1 -14
-1 -16 -2 -3 0 -10 -2 -16 -3 -7 -1 -14 -3 -18 -4 -4 0 -8 -1 -9 -1 -2 0 -7
-1 -11 -2 -4 -1 -11 -3 -14 -4 -4 -1 -10 -3 -12 -4 -3 -1 -10 -3 -15 -5 -6 -2
-11 -4 -12 -4 0 0 -4 -1 -7 -3 -3 -2 -8 -4 -11 -5 -4 -1 -13 -4 -20 -7 -8 -3
-15 -6 -16 -6 -1 0 -3 0 -4 -1 -1 0 -5 -3 -9 -4 -5 -2 -8 -4 -9 -4 0 0 -7 -3
-15 -7 -8 -4 -15 -8 -16 -8 -1 -1 -4 -2 -7 -4 -2 -1 -8 -5 -12 -7 -4 -3 -9 -6
-11 -7 -2 -1 -5 -3 -6 -4 -2 -1 -10 -5 -17 -10 -7 -5 -18 -12 -23 -15 -5 -4
-11 -9 -13 -11 -3 -2 -5 -4 -6 -4 0 0 -2 -1 -4 -3 -2 -2 -4 -3 -5 -3 0 0 -3
-2 -6 -5 -2 -2 -7 -7 -11 -9 -3 -3 -9 -8 -13 -11 -4 -4 -8 -7 -8 -7 0 0 -2 -2
-5 -4 -4 -3 -4 -3 -15 -3 -6 -1 -12 0 -13 0 -2 1 -3 1 -3 0 -1 0 -4 0 -8 0 -4
-1 -9 -1 -10 -2 -2 -1 -3 -2 -3 -3 0 -1 1 -2 2 -2 1 0 2 0 2 0 1 0 4 0 9 0 4
1 12 1 18 2 l10 0 -4 -4 c-2 -2 -9 -8 -14 -13 -5 -5 -11 -11 -13 -13 -2 -1 -5
-4 -6 -6 -2 -2 -6 -6 -8 -9 -3 -3 -5 -5 -6 -5 0 0 -1 -1 -3 -3 -1 -1 -4 -5 -7
-9 -3 -4 -6 -8 -8 -10 -1 -2 -5 -6 -8 -9 -3 -3 -5 -6 -5 -6 0 -1 -2 -3 -4 -5
-2 -3 -6 -8 -10 -13 -3 -4 -7 -10 -9 -13 -2 -3 -4 -6 -4 -7 -1 -2 -4 -6 -7
-10 -3 -4 -5 -9 -6 -10 0 -2 -4 -8 -8 -14 -3 -6 -8 -12 -9 -14 -2 -2 -4 -6 -5
-8 -1 -2 -5 -9 -8 -14 -4 -6 -9 -14 -11 -18 -3 -4 -5 -8 -6 -9 0 0 -2 -4 -4
-7 -2 -4 -4 -8 -6 -10 -1 -1 -2 -3 -2 -3 0 -1 -1 -3 -3 -4 -1 -2 -2 -4 -2 -5
0 0 -2 -3 -4 -6 -2 -2 -5 -7 -7 -11 -2 -4 -4 -7 -4 -7 0 0 -1 -2 -2 -4 -1 -3
-3 -6 -5 -8 -1 -3 -4 -7 -5 -9 -1 -3 -2 -6 -3 -7 -1 -1 -1 -3 -2 -4 -1 -1 -2
-2 -3 -2 -1 0 -1 2 -2 5 0 2 1 4 1 5 1 1 1 1 0 2 -1 1 -1 4 0 10 0 4 0 25 0
46 0 20 0 43 0 50 0 6 0 12 0 14 0 1 0 6 0 13 0 6 0 19 0 30 0 10 0 28 0 40 0
11 0 21 0 21 0 -1 1 0 2 1 0 0 1 1 1 2 -1 1 0 1 0 0 1 0 2 0 2 1 0 0 -1 1 -2
2 -2 1 -2 1 -2 -1 0 -2 0 -2 -1 -1 0 1 0 4 1 8 0 3 1 7 0 8 0 1 0 7 0 15 0 9
0 13 1 13 0 0 1 0 2 -1 0 -1 1 -1 2 1 2 1 5 1 16 2 8 1 15 1 16 2 0 1 1 2 1 3
0 0 -1 1 -1 2 -1 0 -5 1 -8 1 -4 0 -10 0 -13 0 -4 0 -7 0 -9 -2 -1 -1 -3 -2
-5 -2 -1 -1 -2 0 -2 1 -1 1 -1 6 -1 11 1 4 0 9 0 10 0 1 0 4 0 7 0 3 0 5 0 6
-1 0 -1 2 -1 4 0 3 0 4 2 4 1 0 2 0 2 1 0 1 0 1 -1 1 0 -1 -1 0 -2 1 -1 1 -1
2 -1 6 1 2 1 11 1 20 0 9 0 16 0 18 0 1 0 4 0 8 0 3 1 6 1 6 0 -1 1 9 0 21 0
13 0 31 0 41 0 9 0 19 0 21 0 2 0 3 1 3 1 -1 2 0 3 0 0 1 2 1 4 1 3 0 6 1 7 1
2 1 3 2 3 1 0 0 2 -1 5 -1 3 0 5 1 5 1 0 0 2 1 4 0 2 0 5 0 7 1 2 0 4 1 4 2 0
1 0 2 -1 2 0 -1 -1 0 -1 0 0 1 -3 1 -8 1 -4 0 -10 0 -12 -1 -2 0 -5 0 -6 0 -2
0 -5 0 -9 1 l-6 0 1 5 c0 3 0 20 0 37 0 17 0 40 0 51 -1 11 -1 21 -1 22 0 2 0
4 1 5 0 1 1 17 1 35 0 18 0 45 0 59 0 14 1 26 1 26 1 0 0 2 0 4 -1 3 -1 5 0 5
0 1 1 2 0 4 -1 1 -1 3 -1 3 1 0 0 3 0 6 -1 3 -2 6 -1 6 0 0 -1 2 -3 4 -1 2 -3
3 -3 3z m659 -278 c18 0 34 0 35 -1 1 0 3 0 6 -1 2 0 7 0 10 0 3 -1 8 -1 10
-2 2 0 10 -2 16 -4 6 -2 12 -4 13 -4 0 0 3 -1 7 -2 3 -1 6 -3 8 -3 1 0 2 -1 4
-2 1 0 3 0 4 -1 1 0 8 -2 14 -4 6 -2 13 -4 15 -5 1 0 3 -1 4 -1 0 0 7 -3 15
-7 8 -3 19 -8 25 -11 5 -3 11 -6 13 -7 1 -1 5 -3 9 -5 3 -2 7 -4 9 -5 2 -1 6
-3 8 -5 2 -2 7 -4 11 -6 3 -2 9 -5 12 -8 4 -3 7 -5 8 -5 0 0 2 -1 3 -2 2 -2 3
-3 4 -3 0 0 3 -2 6 -5 4 -2 9 -6 11 -9 2 -2 9 -8 14 -13 5 -5 12 -11 14 -13 2
-2 6 -5 9 -7 2 -3 5 -6 7 -7 1 -2 5 -5 7 -8 2 -2 6 -6 8 -7 2 -1 4 -3 5 -5 1
-1 8 -8 15 -16 7 -8 17 -18 21 -22 5 -5 8 -9 8 -9 0 -1 1 -2 2 -3 2 -1 5 -4 9
-8 3 -4 9 -11 13 -16 4 -5 7 -9 7 -9 0 -1 2 -3 3 -6 2 -3 6 -8 9 -12 3 -3 6
-7 7 -9 1 -2 4 -6 5 -9 2 -4 5 -9 7 -12 2 -3 5 -7 6 -8 2 -1 4 -5 6 -8 2 -4 5
-9 8 -12 2 -2 6 -8 9 -12 2 -5 6 -10 8 -13 1 -3 4 -7 6 -9 1 -3 4 -6 5 -8 1
-2 2 -4 2 -4 0 0 2 -2 3 -4 1 -1 2 -3 2 -4 0 0 2 -4 4 -8 3 -3 5 -7 5 -7 0 -1
0 -2 1 -2 1 -1 5 -8 10 -17 4 -9 10 -17 11 -19 2 -3 4 -5 6 -7 1 -1 2 -3 2 -3
0 -1 2 -4 4 -7 1 -2 4 -7 5 -9 1 -3 3 -8 5 -12 2 -4 4 -7 4 -8 1 -1 2 -3 3 -5
l2 -2 -5 -1 c-3 0 -57 -1 -153 0 -82 0 -158 0 -168 0 -10 1 -19 1 -20 1 -1 0
-2 1 -3 1 0 1 -2 1 -4 0 -2 0 -4 0 -5 0 -1 0 -5 0 -9 0 -4 -1 -37 -1 -74 -1
-37 0 -72 0 -78 0 -6 0 -47 0 -90 0 -44 0 -82 0 -85 0 l-6 0 0 8 c0 4 0 10 -1
12 -1 3 -1 7 -1 10 l-1 5 -4 0 c-3 0 -5 0 -5 -1 1 0 1 -5 2 -10 0 -5 0 -13 1
-17 l1 -8 -3 1 c-1 0 -10 0 -18 0 -9 0 -18 0 -20 0 -2 0 -10 0 -19 0 -9 0 -57
0 -108 0 -51 0 -92 0 -92 0 -1 0 -1 3 -1 7 0 4 0 10 0 14 1 3 1 8 0 10 0 2 -1
3 -2 4 -1 0 -2 1 -2 1 0 0 -1 1 -3 1 -1 1 -2 1 -3 -1 -1 -1 -1 -3 0 -6 1 -2 1
-9 1 -17 l0 -13 -9 0 c-5 0 -11 0 -12 0 -2 0 -21 0 -43 0 -22 0 -52 0 -67 0
-15 0 -27 0 -28 0 -1 0 -12 0 -24 0 -13 0 -29 0 -35 0 -8 0 -11 0 -11 1 0 1 1
4 2 6 0 2 1 5 2 5 0 0 2 3 3 5 1 2 4 7 6 11 2 4 5 9 7 12 2 3 5 8 6 10 2 2 4
6 4 8 1 1 4 5 6 9 2 3 4 6 4 7 0 1 0 2 1 2 0 0 4 6 8 12 4 6 7 12 7 12 0 1 0
2 1 2 1 0 2 2 2 4 1 2 3 4 4 6 1 1 2 3 2 4 0 0 0 2 1 2 1 1 3 4 5 7 2 3 4 6 4
6 0 1 1 2 3 4 1 2 4 6 6 9 1 3 3 6 3 6 1 0 1 1 1 2 0 1 0 2 1 2 0 0 2 3 4 6 2
3 4 6 4 7 0 0 2 3 4 7 2 3 7 10 10 16 4 6 9 13 12 16 2 2 5 7 7 9 1 2 4 6 6 8
2 2 3 3 3 4 0 0 2 3 5 5 2 3 6 7 8 10 2 3 10 12 18 20 8 8 14 15 14 16 0 0 1
1 2 1 1 1 6 5 11 11 6 5 10 9 11 9 0 0 1 1 2 1 0 1 2 2 2 3 1 0 5 4 10 7 5 4
10 9 12 10 2 2 4 4 5 4 0 0 4 3 7 7 4 3 8 6 8 6 0 0 3 2 5 4 3 2 7 6 11 9 4 2
9 6 12 9 3 2 7 5 9 7 2 1 3 2 3 2 0 1 2 2 4 3 2 1 5 3 6 4 1 0 4 3 8 5 3 3 7
5 8 6 2 0 4 2 7 3 2 2 5 3 6 4 2 1 6 3 9 5 3 2 6 4 8 5 1 0 2 1 3 2 1 0 2 1 3
2 0 0 5 3 12 6 6 3 12 7 14 8 2 1 7 3 10 5 4 2 10 4 14 6 3 1 7 3 8 3 0 1 4 2
7 3 4 1 10 3 14 4 4 2 8 4 9 4 1 1 6 3 11 4 5 2 11 4 13 5 1 1 4 2 6 3 2 1 5
3 8 4 2 0 6 2 10 3 4 1 7 2 7 2 0 0 1 -1 1 -2 0 -1 0 -9 0 -17 0 -9 1 -16 1
-17 1 0 2 -1 2 -1 1 0 1 1 1 2 0 0 0 1 1 1 0 0 1 3 1 6 1 4 1 10 1 14 0 5 -1
10 -2 11 0 2 -1 4 -1 4 1 1 3 2 7 3 3 1 7 2 9 3 2 1 8 2 14 3 5 0 11 1 12 1 1
1 6 2 11 3 5 0 9 1 11 1 1 0 2 1 3 1 0 1 5 1 10 2 4 1 12 1 17 2 4 0 23 0 42
0z m-641 -2 c1 0 2 0 2 -1 -1 0 -1 0 -2 0 -1 1 -1 1 0 1z m-21 -339 c0 -1 0
-1 0 -2 -1 -1 -1 -1 -1 0 0 1 0 2 1 2z M1299 960 c0 0 -1 -1 -2 -2 0 -1 -1 -3
0 -5 0 -2 -1 -10 -2 -19 -1 -8 -2 -16 -3 -16 0 -1 0 -3 1 -5 1 -3 1 -5 1 -6 1
-1 2 -2 3 -2 1 0 2 0 1 1 0 0 -1 1 -1 2 0 1 0 1 1 0 1 -1 1 -1 1 2 0 2 0 6 1
10 0 4 0 8 0 9 0 1 1 3 1 3 1 0 2 4 2 8 1 6 1 9 0 13 0 2 -1 4 -1 4 0 -1 -1 0
-1 1 -1 1 -1 2 -2 2z M1299 871 l-2 2 -1 -2 c0 -2 -1 -3 -1 -3 0 0 -1 -4 -1
-8 0 -5 0 -10 0 -12 0 -3 0 -8 0 -11 0 -4 1 -7 1 -8 1 0 2 0 2 1 1 1 2 4 3 8
0 3 1 7 1 8 1 1 1 5 1 12 -1 10 -1 11 -3 13z M1039 870 c0 0 -1 -1 -2 -1 0 -1
-2 -6 -4 -12 -2 -6 -3 -12 -3 -14 0 -1 0 -3 1 -3 0 -1 1 -1 2 0 1 0 3 3 4 6 1
2 3 7 3 10 1 2 2 6 3 8 0 3 0 4 -1 5 -1 1 -2 1 -3 1z M1033 816 c-1 1 -2 0 -3
-1 -2 -2 -2 -5 -3 -17 -1 -12 -1 -15 0 -16 1 0 2 0 3 0 1 1 2 4 3 8 2 6 2 10
2 17 -1 6 -2 9 -2 9z M1297 795 c-1 0 -2 -1 -2 -2 0 -1 0 -2 -1 -3 -1 0 -1 -1
-1 -2 1 -1 0 -4 0 -6 -1 -2 -1 -8 -1 -14 0 -8 0 -12 2 -15 0 -2 2 -4 2 -4 0 0
1 1 2 2 2 2 2 3 1 8 0 4 0 9 0 13 1 4 1 8 1 10 0 1 0 5 -1 7 0 4 -1 5 -2 6z
M1028 758 c0 0 -1 -2 -2 -4 -1 -3 -2 -7 -2 -10 -1 -3 -1 -7 0 -9 1 -3 2 -6 2
-8 1 -4 1 -4 3 -3 1 1 1 2 1 5 -1 2 0 6 0 9 1 3 2 9 2 11 0 4 -1 6 -2 7 0 1
-1 2 -2 2z M1554 733 c0 0 -1 0 -1 -1 -1 0 -1 -1 -1 -2 0 -1 0 -1 1 0 1 1 1 2
1 3z M1301 723 c-1 0 -2 -1 -3 -3 -1 -2 -1 -7 -1 -17 1 -9 1 -16 1 -17 0 -1 1
-2 1 -2 1 1 1 1 1 2 0 0 1 1 2 1 0 0 1 0 1 1 -1 0 0 4 1 7 2 5 2 7 1 10 -1 1
-1 5 -1 8 0 3 -1 6 -1 7 -1 2 -2 3 -2 3z M1031 698 c-1 1 -2 0 -3 -1 0 -1 -1
-6 -1 -12 0 -6 1 -12 1 -14 1 -1 2 -2 3 -2 1 0 2 3 3 6 2 3 2 6 1 11 0 4 -1 7
-2 8 0 1 -1 2 -1 3 0 0 -1 1 -1 1z M1298 654 c0 0 -1 0 -2 -1 -1 -1 -1 -4 -2
-17 0 -9 0 -16 1 -17 1 -1 1 -1 2 0 1 1 2 2 2 2 1 0 2 2 2 4 0 2 1 8 1 14 -1
7 -1 11 -2 13 -1 1 -2 2 -2 2z M1028 635 c-1 0 -2 0 -2 -1 -1 0 -1 -2 -1 -5 0
-2 1 -4 1 -5 1 -1 2 -2 1 -2 0 -1 0 -1 1 -1 1 0 2 0 3 1 0 0 1 2 1 3 -1 1 -1
4 -1 6 -1 3 -2 4 -3 4z M1028 614 l-2 2 0 -2 c0 -2 1 -3 1 -4 1 -1 2 -1 2 0 1
1 0 2 -1 4z M688 1283 c-1 0 -2 0 -3 -1 -1 0 -2 -1 -2 -1 0 -1 1 -3 2 -4 2 -1
2 -1 3 0 1 1 2 3 1 4 0 1 -1 2 -1 2z M693 1281 c-1 0 -2 0 -2 -1 0 0 1 -1 2
-2 1 -1 1 -1 0 -1 l-2 0 2 -1 c1 -1 3 -3 5 -4 1 -1 5 -3 8 -5 2 -2 7 -5 9 -7
2 -3 6 -6 8 -8 1 -3 4 -8 6 -12 2 -5 5 -13 7 -19 1 -6 3 -13 4 -15 1 -4 0 -10
-1 -23 -1 -10 -2 -18 -2 -19 0 -1 -1 -2 -1 -3 -1 0 -1 -1 -1 -2 0 -1 -1 -5 -2
-9 -1 -3 -4 -11 -6 -16 -1 -5 -5 -14 -7 -20 -3 -5 -5 -11 -6 -12 -1 -1 -4 -5
-6 -9 -2 -5 -5 -9 -6 -10 -1 -1 -1 -2 0 -2 0 0 0 -1 -1 -1 0 -1 -1 -2 -1 -3 0
-1 1 -2 2 -2 0 0 1 1 1 1 0 0 1 2 2 3 1 1 3 4 5 6 2 2 3 4 3 4 0 1 2 4 4 7 2
3 4 6 4 7 1 2 2 4 2 5 1 1 2 2 2 1 0 0 2 3 4 7 1 4 3 8 4 10 0 1 3 7 5 15 2 7
5 16 6 21 1 4 3 13 3 20 1 6 1 14 1 17 0 2 -1 8 -1 13 -1 5 -3 13 -6 20 -2 6
-4 12 -4 12 0 1 -2 5 -5 9 -2 5 -5 9 -6 9 0 1 -1 2 -2 2 -1 1 -4 3 -7 6 -2 2
-6 4 -7 5 -2 0 -3 1 -3 1 0 0 -3 2 -6 3 -3 1 -7 2 -8 2z M458 1279 c-2 0 -3 0
-3 -1 -1 0 -1 -1 -1 -2 0 -1 -2 -3 -3 -5 -3 -3 -5 -7 -7 -14 -1 -6 -2 -9 -1
-10 1 0 0 -1 -1 -3 0 -2 -2 -6 -3 -10 0 -4 -2 -13 -3 -20 0 -8 -1 -17 -2 -21
0 -4 0 -13 0 -20 0 -7 0 -14 1 -17 1 -3 3 -9 4 -13 1 -5 3 -11 4 -14 2 -4 4
-7 5 -8 1 -2 3 -4 5 -6 2 -2 7 -6 11 -8 4 -3 8 -5 9 -5 0 0 1 -1 3 -2 1 -1 5
-2 8 -3 5 -1 7 0 8 1 2 0 2 1 1 1 0 0 -3 1 -5 3 -2 1 -4 2 -5 2 -1 0 -6 3 -11
7 -6 3 -11 7 -12 8 -2 0 -2 1 -2 1 1 0 0 1 -2 3 -1 1 -3 4 -4 6 -1 2 -2 5 -3
7 -1 1 -2 6 -3 10 -1 3 -3 10 -4 14 -1 7 -1 12 -1 27 1 10 2 24 3 32 1 8 3 17
3 21 1 3 2 6 2 6 1 1 1 3 1 4 0 2 0 5 1 7 1 3 2 5 3 6 2 2 3 4 4 6 0 2 0 4 0
5 0 1 0 2 1 2 1 0 1 1 1 2 0 0 -1 1 -2 1z M390 1263 c-2 0 -5 0 -8 0 -2 -1 -5
-2 -7 -3 -1 -1 -3 -2 -4 -3 -1 -2 -2 -3 -3 -4 0 -2 -1 -4 -2 -6 -1 -2 -2 -7
-2 -11 0 -5 -1 -15 0 -23 0 -15 0 -15 -2 -16 -2 -1 -3 -2 -4 -3 0 -1 -1 -3 0
-3 0 -1 1 -2 3 -2 2 0 3 -1 4 -3 1 -1 1 -4 2 -5 0 -2 0 -6 1 -10 0 -4 1 -8 2
-9 0 -1 2 -7 2 -12 1 -6 2 -12 3 -13 0 -1 0 -6 1 -11 0 -4 1 -9 2 -11 1 -2 3
-7 3 -11 1 -4 1 -12 1 -18 0 -8 0 -10 2 -11 1 -1 1 -1 1 0 -1 1 -1 1 1 1 1 -1
2 -1 2 0 1 1 1 6 2 11 0 7 0 11 -1 11 -1 0 -1 0 -1 1 0 1 0 1 1 0 1 0 1 0 1 2
-1 1 -2 6 -3 12 -2 5 -4 15 -4 21 -1 7 -2 14 -3 16 0 2 -2 7 -3 11 0 4 -2 8
-2 10 -1 1 -1 5 -2 10 0 5 0 9 0 10 0 1 2 2 3 3 1 0 7 2 12 3 4 1 14 3 20 5 8
2 11 4 11 5 0 1 -1 1 -9 1 -5 -1 -13 -2 -18 -3 -4 -1 -9 -2 -10 -2 -2 0 -4 -1
-7 -2 l-4 -2 0 13 c0 7 0 16 0 21 1 4 2 9 2 11 1 2 3 5 4 7 2 3 4 5 5 5 1 0 4
0 7 0 3 0 8 0 10 -1 3 -1 6 -2 6 -2 1 0 1 1 1 2 0 1 0 2 -1 2 0 0 -1 1 -2 1
-1 1 -4 2 -6 3 -2 1 -6 2 -7 2z m-3 -159 c0 -1 0 -4 0 -8 0 -3 0 -6 0 -5 -1 0
-1 2 -1 4 -1 2 -1 5 0 7 0 2 0 3 1 2z M642 1263 c-1 1 -1 1 -1 0 0 0 -1 -1 -2
0 -1 0 -2 0 -2 -1 -1 -1 -1 -2 0 -2 0 -1 1 -3 1 -5 1 -3 1 -8 2 -12 1 -5 2
-13 3 -18 0 -5 1 -15 2 -21 0 -7 0 -13 1 -13 0 0 0 -15 0 -33 1 -18 2 -35 2
-38 1 -4 2 -6 4 -7 1 0 3 -1 4 -1 1 1 2 2 2 3 1 1 1 5 2 8 1 4 2 9 3 11 2 2 3
4 4 5 1 2 2 4 3 5 0 1 1 3 1 5 1 1 3 3 5 5 3 2 3 2 4 1 1 -1 1 -2 1 -4 0 -1 0
-3 1 -5 1 -1 1 -9 2 -16 0 -12 0 -15 2 -16 1 0 2 -1 3 -1 1 0 2 1 3 2 0 1 1 3
0 4 0 1 -1 8 -1 15 -1 7 -1 13 -1 14 0 1 -1 4 -2 8 -1 3 -3 7 -4 8 -1 0 -4 1
-5 1 -2 0 -4 -1 -5 -2 -2 -1 -5 -7 -8 -13 -4 -6 -7 -11 -8 -11 -2 -1 -2 -1 -2
4 0 2 0 5 -1 7 0 1 0 10 0 19 -1 8 -1 19 -1 24 -1 5 -1 14 -2 20 -1 6 -2 19
-4 28 -1 9 -3 17 -3 19 -1 1 -2 2 -2 1 -1 0 -1 1 -1 2z m45 -134 c1 0 1 -1 1
-2 0 0 0 -1 -1 0 -1 0 -1 1 -1 1 0 1 0 1 1 1z M2826 1264 c-2 0 -4 -1 -5 -1
-1 -1 -2 -2 -2 -2 0 -1 0 -2 1 -2 1 -1 2 -1 3 -2 1 0 4 -2 6 -4 1 -2 4 -5 5
-6 2 -2 4 -5 5 -7 1 -2 3 -8 5 -12 2 -5 4 -13 5 -17 2 -5 3 -12 4 -16 0 -4 1
-7 1 -7 0 -1 1 -3 1 -4 0 -2 0 -9 1 -15 0 -9 0 -14 -1 -18 0 -4 -1 -9 -2 -12
-1 -4 -2 -9 -3 -12 -1 -3 -3 -6 -3 -7 -1 -2 -2 -5 -4 -7 -1 -3 -2 -7 -3 -9 -1
-2 -1 -5 -2 -6 0 0 0 -1 1 -1 1 0 2 1 2 2 0 0 0 1 1 1 1 0 1 1 1 2 0 0 0 1 1
1 0 0 1 1 2 3 1 2 3 6 5 9 2 3 5 10 7 16 1 5 3 11 3 13 1 1 1 5 2 8 0 3 1 8 1
12 0 4 0 10 0 14 -1 4 -2 8 -2 10 0 1 -1 5 -1 8 -1 3 -2 10 -3 15 -2 5 -4 13
-5 17 -1 3 -4 9 -5 13 -2 3 -4 6 -4 7 -1 1 -2 2 -2 3 0 0 -1 2 -2 3 -2 1 -4 4
-6 6 -3 2 -5 3 -8 4z M3597 1256 c-1 0 -1 0 -1 -1 -1 -1 -1 -1 0 -1 1 0 1 0 1
1 0 1 0 1 0 1z M2758 1255 c-2 0 -4 -1 -5 -3 -1 -1 -3 -5 -4 -7 -1 -3 -3 -9
-4 -13 -1 -4 -3 -10 -4 -13 -1 -4 -2 -9 -3 -13 0 -4 -1 -10 -2 -14 0 -5 -1
-12 -1 -15 -1 -4 -1 -15 -1 -25 0 -14 0 -20 1 -25 1 -4 3 -8 3 -10 1 -1 2 -3
2 -4 0 0 1 -3 2 -5 1 -3 3 -6 4 -7 2 -2 4 -5 6 -7 2 -1 4 -3 5 -3 0 0 3 -1 5
-2 3 -2 5 -2 7 -1 1 0 3 1 3 2 0 0 -1 1 -2 2 -1 0 -3 1 -5 2 -3 1 -6 4 -9 8
-3 4 -6 7 -7 8 -1 0 -1 1 -1 1 1 0 0 2 -1 4 -1 3 -2 7 -3 10 0 2 -1 9 -2 14 0
5 0 9 -1 9 0 0 1 7 1 16 1 8 1 17 2 21 0 3 0 7 0 8 1 1 2 7 2 12 1 5 3 11 3
12 1 2 2 6 2 8 1 2 2 6 2 8 1 2 2 4 2 5 1 0 1 1 1 2 0 1 1 4 2 5 1 2 2 4 2 4
1 0 1 2 1 3 -1 2 -2 3 -3 3z M406 1245 c-1 0 -2 -1 -3 -1 0 -1 -1 -3 -1 -5 l0
-4 3 2 c2 1 3 2 4 3 0 1 0 3 -1 4 -1 0 -2 1 -2 1z M2666 1237 c-3 0 -5 0 -6
-1 -2 0 -4 -2 -6 -4 -2 -2 -5 -6 -6 -10 -2 -5 -2 -8 -2 -19 0 -7 0 -15 1 -17
0 -2 2 -7 3 -11 l2 -7 -3 0 c-1 0 -3 -1 -4 -1 -1 -2 -1 -2 0 -4 1 -2 2 -2 5
-2 l4 1 2 -9 c2 -5 4 -11 5 -13 0 -3 2 -8 3 -11 1 -4 3 -9 4 -13 2 -4 4 -10 5
-13 1 -4 3 -9 4 -11 1 -3 2 -5 1 -5 0 0 1 -1 1 -1 1 -1 3 0 4 1 1 1 1 1 0 3
-1 2 -1 2 0 2 1 -1 2 0 1 1 0 1 -1 2 -2 2 -1 0 -3 0 -3 1 0 0 0 1 0 1 0 0 0 2
0 3 -1 1 0 2 1 2 1 0 1 1 1 3 -1 2 -2 6 -3 8 -1 2 -2 5 -3 7 0 1 -1 2 -1 2 0
1 -1 5 -2 9 -2 4 -4 10 -5 14 0 3 -2 8 -3 10 -1 3 -2 6 -2 7 0 0 1 1 3 1 2 1
7 1 11 2 4 1 9 1 11 1 3 0 8 1 12 2 5 1 7 2 7 3 1 1 0 2 0 3 -1 0 -5 0 -9 0
-5 -1 -13 -2 -18 -2 -6 -1 -12 -1 -15 -2 -4 0 -4 0 -5 3 -1 2 -2 7 -3 12 -1 5
-2 11 -2 18 0 5 0 11 1 12 0 1 1 3 1 5 0 1 1 4 3 6 2 3 4 4 6 4 2 0 5 -1 7 -2
2 -1 4 -3 5 -5 1 -2 2 -3 3 -3 0 -1 1 0 2 1 0 1 -1 4 -2 6 -1 2 -3 5 -6 7 -3
2 -5 3 -8 3z M562 1198 c-1 0 -2 0 -3 -1 0 0 -1 -1 -1 -2 0 0 -1 -1 -1 -1 -1
0 -3 -3 -4 -6 -1 -3 -3 -7 -4 -9 -2 -2 -2 -3 -3 -2 -1 1 -2 2 -3 4 -1 2 -2 3
-2 3 -1 0 -1 1 -1 2 0 1 0 1 -1 1 0 -1 -1 0 -2 1 -1 1 -2 2 -2 3 -1 1 -2 2 -2
3 -1 0 -3 0 -3 -1 -2 -1 -2 -3 -1 -5 1 -2 2 -5 4 -7 2 -2 3 -4 3 -4 0 -1 1 -3
2 -5 2 -2 3 -5 3 -6 1 -1 0 -3 0 -4 0 -1 -4 -7 -7 -14 -3 -7 -6 -13 -6 -14 0
-1 0 -2 -1 -3 -1 0 -1 -1 -1 -1 1 0 0 -1 0 -2 -1 -1 -2 -3 -3 -4 0 -2 -1 -5
-2 -7 -1 -2 -1 -5 -1 -9 0 -6 1 -6 3 -6 2 0 3 0 3 5 0 3 1 7 3 13 3 5 5 11 6
14 2 2 4 7 5 11 1 3 3 6 4 7 1 1 2 2 3 2 0 -1 2 -4 3 -7 1 -3 3 -7 4 -10 1 -2
3 -6 4 -10 2 -4 3 -8 4 -9 1 -1 2 -3 1 -3 0 -1 1 -2 2 -4 2 -2 3 -3 5 -3 1 1
2 0 2 0 1 -1 1 -1 1 0 0 1 -1 3 -2 4 -1 2 -2 3 -2 3 1 0 -1 5 -2 10 -2 5 -6
14 -8 21 -2 6 -4 12 -5 14 -1 2 -2 3 -2 3 -1 0 -1 1 -1 2 0 1 1 3 2 5 1 2 2 6
3 9 1 2 3 6 4 8 1 2 2 4 2 5 -1 1 0 2 1 2 1 0 1 1 1 2 0 1 -1 2 -2 2z M603
1193 c-2 0 -3 0 -3 -2 0 0 1 -5 2 -10 1 -5 2 -9 3 -11 0 -1 0 -2 -1 -2 0 -1
-2 -1 -4 -1 -2 0 -4 -1 -5 -1 0 -1 -1 -1 -1 0 -1 0 -2 0 -2 -1 -1 0 -2 -1 -2
-1 -1 0 -4 0 -6 -1 -4 0 -6 -2 -8 -4 -2 -2 -3 -4 -3 -4 1 -1 2 -2 3 -2 1 0 5
1 9 2 3 2 9 3 13 3 5 1 6 1 7 -1 0 -1 1 -8 2 -17 1 -8 1 -17 1 -20 1 -4 1 -6
3 -7 1 -1 3 -2 4 -2 2 0 2 0 2 3 -1 2 -1 5 -1 8 -1 2 -1 11 -1 20 -1 16 -1 17
1 17 1 -1 2 -1 3 -2 1 0 2 1 2 2 1 2 1 3 -1 5 -1 1 -3 2 -3 2 -1 0 -2 0 -3 1
0 0 -2 4 -3 8 -1 6 -2 9 -3 10 -2 1 -2 3 -2 5 0 2 -1 3 -3 3z M2795 1189 c-2
0 -3 -1 -4 -2 -1 -1 -1 -2 0 -4 0 -2 1 -3 2 -3 1 0 2 -3 4 -6 2 -2 4 -8 5 -12
2 -6 2 -7 -1 -12 -1 -4 -2 -8 -3 -9 -1 -2 -2 -5 -2 -6 -1 -1 -2 -3 -2 -4 0 -2
-1 -4 -2 -6 -1 -2 -3 -5 -4 -6 -1 -2 -2 -4 -2 -4 0 0 -1 -2 -1 -4 -1 -3 -1 -4
0 -5 1 -1 2 -1 3 -1 0 1 3 5 6 11 2 5 5 10 5 10 0 0 2 4 4 7 2 4 3 8 3 9 0 0
0 1 1 1 0 1 1 -1 2 -3 0 -2 2 -7 3 -12 1 -5 3 -12 4 -17 2 -5 3 -9 3 -10 1 0
2 -1 3 -1 0 0 1 1 1 2 0 0 1 1 1 1 1 0 1 1 1 3 -1 1 -2 7 -2 12 -1 6 -2 11 -3
12 0 1 -1 5 -2 9 -1 3 -3 8 -3 11 -1 2 -2 6 -2 7 0 2 1 6 3 10 2 3 3 7 3 8 0
2 0 3 1 3 0 0 1 -1 1 -2 1 -1 1 1 1 5 0 5 0 6 -1 6 -1 0 -3 -1 -4 -2 -1 -1 -2
-3 -2 -3 0 -1 -1 -4 -3 -7 -1 -3 -3 -6 -3 -6 -1 0 -1 1 -1 2 0 1 -1 3 -2 4 -2
1 -3 4 -4 6 -1 2 -2 4 -3 6 -1 1 -3 2 -4 2z M769 1172 c-1 0 -1 0 0 -1 0 -1 0
-1 1 -1 0 0 0 0 0 1 0 1 0 1 -1 1z M2527 1168 c-3 0 -6 0 -6 0 0 -1 -2 -1 -3
-1 -1 -1 -4 -2 -6 -3 -3 -2 -6 -4 -8 -7 -1 -2 -4 -7 -5 -11 -1 -4 -2 -11 -2
-16 -1 -6 0 -15 0 -21 1 -7 2 -14 2 -18 1 -4 2 -10 2 -13 1 -4 1 -8 1 -9 1 -1
1 -5 2 -8 0 -4 0 -13 0 -19 0 -11 -1 -14 -3 -19 -1 -4 -3 -8 -5 -9 -1 -1 -3
-3 -4 -5 -2 -1 -4 -2 -6 -2 -2 -1 -4 -2 -5 -3 -1 -1 -1 -2 0 -4 1 -1 3 -1 7
-1 6 1 6 1 8 -2 2 -3 2 -5 2 -11 0 -5 0 -9 -1 -12 -1 -2 -4 -10 -7 -17 -2 -7
-5 -16 -7 -21 -2 -5 -4 -13 -6 -18 -1 -7 -2 -15 -3 -22 0 -9 0 -14 1 -19 1 -4
3 -9 4 -11 0 -3 2 -7 4 -10 1 -3 2 -5 2 -5 0 -1 1 -2 2 -4 1 -2 4 -5 6 -7 1
-2 4 -5 5 -6 1 -1 3 -1 5 -2 2 0 4 1 7 4 2 2 4 4 4 5 0 1 -1 2 -3 2 -1 -1 -3
-1 -3 -2 -1 0 -2 -1 -3 -1 -1 0 -4 2 -7 5 -2 2 -5 7 -7 10 -1 3 -2 5 -2 6 0 0
-1 1 -1 2 -1 1 -2 2 -2 3 0 1 -1 3 -1 4 -1 2 -2 5 -3 8 0 3 -1 5 -1 4 0 0 0 4
0 10 0 6 1 12 1 13 0 1 1 5 2 9 0 3 1 9 3 12 1 3 2 6 2 7 0 2 1 5 3 9 2 3 3 6
3 7 0 1 1 3 2 5 1 2 4 8 6 14 2 7 3 14 4 17 0 4 0 7 -1 10 -1 3 -3 6 -4 7 -1
1 -2 2 -2 3 0 1 1 2 1 3 1 1 3 3 4 5 2 2 3 4 3 6 1 1 2 5 2 10 1 5 2 12 2 17
0 4 0 10 0 14 -1 4 -1 8 -2 11 0 2 0 4 -1 4 0 1 -1 2 -1 4 0 2 0 8 -1 14 -1 5
-1 12 -2 16 0 4 -1 11 0 18 0 6 0 12 0 14 1 1 2 5 4 8 1 3 3 6 4 7 1 1 3 2 3
2 1 0 3 1 4 1 2 1 4 2 6 1 2 0 3 0 3 1 1 1 2 1 2 0 1 0 1 1 2 1 0 1 1 2 4 1 2
0 4 0 4 -1 0 0 -1 -1 -2 -2 -2 -2 -2 -2 -1 -2 1 0 2 0 2 -1 -1 -1 0 -1 0 -1 1
0 2 -1 3 -1 1 -1 2 -2 5 -1 1 1 3 2 3 2 0 1 -1 2 -2 3 -1 1 -3 3 -4 4 -2 0 -5
2 -8 3 -2 1 -7 1 -10 2z M3202 1165 c-12 0 -24 -1 -25 -1 -1 0 -4 -1 -6 -1 -1
-1 -3 -2 -3 -3 -1 -1 -1 -2 0 -2 1 -1 3 -1 4 0 1 0 9 0 18 1 8 1 19 1 25 2 6
0 12 0 13 1 l3 0 -3 2 c-2 1 -7 1 -26 1z M3326 1164 c-5 0 -9 0 -9 -1 0 0 -4
0 -8 0 -4 -1 -12 -2 -17 -2 -8 -1 -9 -2 -8 -2 1 -1 2 -2 1 -2 0 -1 1 -1 2 -1
2 0 3 1 4 2 1 1 1 1 1 0 0 -1 1 -1 5 -1 3 1 7 1 10 1 2 1 6 1 9 1 3 1 9 1 14
1 5 0 9 0 9 1 0 1 -1 1 -3 1 -2 0 -3 0 -3 1 1 0 -2 1 -7 1z M3101 1163 c-4 0
-9 -1 -11 -1 -2 0 -6 -1 -7 -1 -1 -1 -5 -1 -7 -2 -2 -1 -5 -2 -6 -2 -1 -1 -1
-2 0 -3 1 -2 2 -2 5 -1 1 0 3 0 4 0 1 1 2 1 3 1 1 1 6 2 13 2 6 1 12 2 13 2 1
0 4 0 6 0 3 0 4 0 4 1 0 1 -2 2 -5 3 -3 0 -8 1 -12 1z M3413 1161 c-3 0 -6 0
-6 -1 -1 0 -3 0 -6 -1 -3 0 -8 0 -11 0 -4 0 -6 0 -5 -1 1 0 2 -1 2 -2 1 -1 2
-2 4 -2 1 0 6 0 10 0 4 0 14 0 22 0 8 0 20 0 26 0 8 0 11 0 12 1 0 0 -1 1 -1
1 -1 0 -2 0 -2 1 0 0 -3 1 -7 1 -3 0 -6 1 -6 1 0 0 -6 1 -13 1 -7 0 -15 0 -19
1z M291 1158 c-5 0 -10 0 -12 -1 -1 0 -3 -1 -4 -3 -2 -2 -3 -3 -3 -3 0 -1 -1
-3 -2 -6 -2 -3 -3 -7 -4 -9 0 -3 -1 -6 -1 -7 -1 -1 -2 -4 -2 -6 0 -3 0 -6 -1
-7 0 -2 -1 -6 -2 -9 0 -4 -1 -11 -1 -17 -1 -6 -1 -12 -1 -12 -1 0 -1 -5 -1
-11 -1 -7 -1 -13 -2 -14 0 -2 0 -7 0 -13 -1 -5 -1 -14 -1 -19 -1 -5 -1 -16 -2
-24 0 -8 -1 -16 -1 -17 -1 -1 -2 -4 -4 -6 -2 -2 -6 -6 -8 -9 -3 -3 -5 -4 -7
-4 -2 0 -4 1 -6 2 -3 1 -3 1 -6 0 -2 -1 -3 -3 -4 -4 -1 -2 -1 -3 0 -5 1 -2 2
-3 3 -4 2 0 4 0 6 0 2 0 5 1 7 1 1 1 3 2 3 1 1 0 1 -3 1 -5 0 -3 0 -7 -1 -9 0
-2 -2 -7 -3 -11 -1 -5 -2 -10 -2 -12 -1 -3 -1 -6 -1 -7 -1 -1 -1 -4 -2 -6 0
-2 -1 -6 -2 -9 0 -4 -1 -11 -1 -16 0 -5 1 -13 2 -18 0 -5 2 -12 3 -15 2 -4 4
-10 5 -14 1 -4 3 -11 5 -17 3 -8 4 -12 9 -18 3 -5 8 -9 10 -10 5 -3 6 -3 12
-3 4 0 7 0 8 1 0 0 1 1 2 1 1 0 3 1 3 2 1 1 1 2 1 2 0 1 -3 0 -6 0 -5 -1 -7
-1 -11 0 -4 2 -7 3 -9 6 -2 2 -5 6 -6 9 -2 2 -3 6 -4 7 0 1 -2 5 -3 9 -2 3 -3
7 -3 9 -1 2 -2 4 -2 5 0 1 -1 3 -2 6 0 2 -2 7 -3 12 -3 8 -3 11 -3 23 0 12 0
17 3 30 2 9 4 22 6 29 1 7 3 15 3 18 -1 2 -1 5 -1 6 -1 1 0 3 5 8 5 5 7 8 8
11 1 2 2 5 2 6 0 0 1 8 1 18 0 10 0 19 0 21 1 2 1 7 2 13 0 5 0 13 0 18 1 5 1
12 2 17 1 5 1 11 1 15 0 4 0 7 1 7 0 0 1 4 1 9 0 5 1 11 1 14 1 2 2 6 2 8 1 1
2 6 3 10 1 4 3 9 4 11 1 2 2 4 2 4 0 1 2 3 4 3 3 2 5 2 14 2 5 -1 11 -1 12 -1
2 -1 3 0 3 1 0 1 0 2 -1 3 0 0 -3 1 -5 2 -3 0 -9 1 -14 1z m-66 -200 c0 0 1 0
1 -1 0 0 -1 -1 -2 -1 0 -1 -2 -1 -2 -1 -1 0 -1 0 -1 1 0 1 0 1 1 1 1 -1 1 -1
1 0 0 1 1 1 2 1z M3028 1152 c0 0 -1 0 -1 0 0 -1 -9 -1 -20 -1 -10 -1 -20 -2
-21 -2 -2 0 -4 -1 -6 -1 -2 -1 -4 -2 -5 -2 -1 -1 -2 -2 -1 -3 0 -1 1 -2 2 -2
1 0 2 -1 2 -1 0 -1 1 -2 2 -2 0 0 1 1 2 2 0 1 1 2 1 2 1 0 2 0 3 0 0 1 3 1 6
1 3 1 10 1 16 2 6 0 13 0 16 0 3 1 7 1 10 2 2 0 4 1 5 1 1 1 2 2 1 2 0 1 -1 1
-2 0 -2 0 -4 0 -5 1 -2 1 -3 1 -3 0 -1 -1 -1 -1 -1 0 0 0 0 1 -1 1z m-46 -7
c0 -1 0 -2 -1 -3 -1 -2 -1 -2 -2 -1 0 0 0 2 1 3 1 0 1 1 2 1z M2507 1139 c-1
0 -1 0 -1 -1 0 0 0 -1 1 -1 1 -1 1 0 1 0 0 1 0 2 -1 2z M2995 1135 c-1 0 -2
-1 -3 -1 0 -1 0 -3 0 -3 1 -1 2 -2 3 -2 1 0 2 1 2 2 1 1 1 2 1 3 -1 1 -2 1 -3
1z M766 1115 c0 0 0 -1 0 -2 0 0 0 -1 1 0 1 0 1 1 0 1 0 1 0 1 -1 1z M770
1071 c-1 0 -1 0 -1 -1 0 -1 0 -1 1 -1 1 0 1 0 1 1 0 1 0 1 -1 1z M1129 1057
c0 1 -1 1 -2 0 -1 0 -3 -1 -5 -1 -2 -1 -5 -2 -6 -3 -1 -1 -2 -2 -3 -2 -1 0 -1
0 -1 -1 0 0 2 -1 5 -1 2 0 4 0 4 1 0 0 4 0 9 0 5 0 10 0 10 0 1 0 4 0 7 0 3 0
6 0 7 0 0 0 1 0 2 0 0 0 3 0 6 -1 2 0 6 0 7 0 2 0 3 0 3 1 0 1 -2 2 -4 3 -1 1
-6 2 -10 3 -3 0 -12 1 -18 1 -6 0 -11 0 -11 0z M975 1056 c-6 0 -14 0 -18 0
-7 0 -9 -1 -9 -2 0 -1 1 -2 2 -3 1 -1 9 -1 18 -1 9 -1 18 -1 20 -2 2 -1 6 -1
9 -1 3 0 5 0 5 1 0 1 -1 2 -2 2 -1 1 -4 2 -6 3 -3 1 -6 2 -7 3 -1 0 -6 0 -12
0z M876 1054 c-8 0 -15 0 -16 -1 -1 0 -1 -1 -1 -1 0 0 0 -2 -1 -3 -1 -2 -1 -3
-1 -4 1 0 2 0 2 1 1 0 2 1 3 1 1 0 2 -1 2 -1 1 -1 1 -1 3 0 1 1 2 2 2 1 0 0 4
-1 11 0 6 0 13 0 17 0 3 1 6 1 6 2 0 0 -1 1 -3 1 -1 1 -3 2 -4 2 -1 0 -2 0 -3
1 -1 0 -8 0 -17 1z M1058 1053 c-9 0 -17 -1 -19 -1 -1 -1 -3 -2 -3 -3 -1 -1 0
-2 2 -2 1 -1 9 -1 16 -1 7 0 19 0 25 -1 9 0 11 0 11 1 0 1 -1 3 -3 3 -2 1 -6
2 -8 3 -3 0 -12 1 -21 1z M2357 1051 c0 0 -2 -1 -3 -1 -2 -1 -3 -3 -3 -5 -1
-2 -2 -4 -2 -4 0 0 -1 -1 -2 -3 0 -2 0 -4 -1 -4 0 0 0 -2 -1 -3 0 -2 -1 -4 -2
-5 -1 -1 -1 -3 -1 -3 0 -1 0 -3 -1 -4 0 -1 -2 -7 -4 -13 -2 -7 -5 -16 -6 -22
-1 -5 -3 -12 -3 -14 -1 -2 -2 -5 -2 -5 -1 -1 -2 -1 -3 -2 -1 -1 -1 -1 0 -3 0
-2 1 -3 2 -2 1 0 1 -1 1 -1 0 -1 1 -2 2 -2 1 -1 4 -1 6 -1 2 0 5 -1 8 -2 4 -2
6 -2 13 -2 5 0 13 0 18 1 8 0 10 1 11 3 0 1 1 2 2 1 0 0 4 -1 7 -1 6 -1 7 -1
8 1 0 1 0 2 0 4 0 1 -2 4 -3 6 -2 2 -4 5 -4 5 -1 0 -1 1 -1 2 0 1 0 2 -1 2 -1
0 -1 1 -1 2 0 1 0 2 -1 2 0 1 -1 2 -1 4 -1 1 -3 5 -5 9 -1 4 -3 8 -3 9 0 0 0
1 -1 1 0 0 -1 1 -2 3 -1 2 -2 7 -4 12 -2 5 -5 12 -7 15 -2 5 -3 8 -3 9 1 1 1
4 0 5 0 2 -1 3 -3 4 -2 1 -3 2 -4 2z m-2 -18 c1 0 2 -1 3 -2 0 -2 1 -3 0 -3 0
-1 0 -1 1 -1 0 1 2 -2 3 -5 2 -4 3 -7 3 -8 0 -1 1 -2 1 -3 1 0 1 -1 1 -1 -1 0
-1 -1 0 -2 1 0 2 -2 2 -2 0 -1 1 -5 3 -9 2 -4 4 -8 4 -10 1 -1 3 -5 4 -8 1 -4
4 -9 5 -11 2 -3 3 -5 3 -6 -1 0 -3 0 -5 0 -2 0 -5 -1 -8 -2 -3 -1 -4 -2 -4 -3
0 -1 -1 -2 -2 -3 -1 0 -4 0 -7 0 l-4 0 4 2 c3 0 5 1 6 1 0 1 -3 1 -6 0 -5 0
-9 0 -14 2 -4 1 -8 2 -8 2 -1 1 -2 1 -4 1 -2 0 -2 0 -2 5 0 3 1 6 1 6 0 0 3 8
5 18 2 10 5 19 6 20 1 1 2 4 2 5 1 1 1 3 1 4 1 2 2 5 3 8 1 3 3 5 3 5z M1258
1044 c-1 0 -3 0 -3 0 0 -1 -7 -1 -14 -1 -7 -1 -16 -1 -19 -1 -4 -1 -7 -1 -7
-2 0 -1 -1 -1 -2 0 -1 1 -2 1 -3 0 -1 -1 -2 -2 -2 -2 0 -1 4 -2 16 -1 9 0 17
0 18 0 1 0 1 0 0 1 -1 0 -1 1 0 1 0 0 1 1 2 0 0 0 2 0 3 0 1 0 1 0 0 -1 l-2
-1 2 0 c1 -1 5 -1 9 -2 3 0 8 -1 10 -1 1 0 4 0 6 0 3 -1 4 -1 4 1 1 2 0 3 -1
4 0 1 -4 2 -8 3 -3 1 -8 1 -9 2z m15 -8 c1 0 2 0 2 -1 -1 0 -1 0 -2 0 -1 1 -1
1 0 1z M95 1043 c-2 0 -3 -1 -4 -3 -1 -1 -1 -3 -1 -3 0 -1 -1 -4 -3 -7 -2 -4
-3 -7 -3 -9 0 -2 -1 -5 -3 -8 -1 -3 -3 -8 -4 -12 -1 -3 -2 -6 -3 -7 -1 0 -1
-1 -1 -2 0 -1 -1 -3 -1 -4 -1 -1 -3 -5 -4 -8 -1 -3 -3 -8 -4 -11 0 -4 -2 -10
-3 -14 -2 -4 -3 -10 -4 -12 0 -3 -1 -7 -1 -10 0 -3 0 -5 1 -6 1 0 3 -1 4 0 1
0 2 1 3 2 1 1 2 1 7 0 3 0 8 -1 12 -1 3 0 8 0 10 1 l4 0 -4 2 -4 1 2 1 c2 0 4
1 5 1 0 0 1 0 1 1 0 1 -3 1 -8 1 -5 -1 -11 -1 -14 0 -4 1 -7 1 -7 1 0 1 0 3 1
5 1 2 1 3 -1 3 -1 0 -1 0 1 2 0 2 1 3 1 4 -1 1 -1 3 0 5 1 2 2 6 3 8 1 2 2 4
2 3 0 -1 -1 -4 -2 -6 0 -2 -1 -4 -1 -4 1 0 2 0 2 1 1 1 2 2 2 3 0 1 0 2 1 2 0
0 1 1 2 3 1 2 3 8 6 13 2 5 5 11 5 14 1 2 2 5 3 6 0 1 0 2 1 3 0 1 0 2 1 2 1
1 1 1 1 0 1 -1 3 -9 6 -17 3 -9 5 -17 6 -18 1 -2 2 -6 4 -9 1 -4 3 -10 4 -14
1 -3 2 -7 2 -7 -1 0 -3 0 -7 0 -3 -1 -7 -1 -9 -2 -2 0 -3 -1 -4 -1 0 -1 0 -2
1 -2 1 -1 2 -1 2 -2 0 -1 1 -1 6 -1 4 0 9 0 11 0 3 0 6 0 7 -1 2 -1 3 -1 5 0
1 1 2 2 2 3 0 1 -1 4 -3 7 -2 3 -3 6 -3 7 0 1 0 2 -1 2 0 1 -1 1 -1 2 0 0 0 2
0 4 -1 2 -2 6 -4 8 -1 3 -3 7 -3 8 -1 1 -2 4 -2 6 -1 2 -2 6 -4 10 -1 3 -3 11
-6 17 -2 9 -3 14 -3 18 0 3 0 7 0 8 0 2 0 4 -1 4 0 0 -1 2 -1 5 -1 4 -1 4 -5
4z M772 1035 c-1 0 -1 -1 -1 -2 0 -1 0 -1 1 0 0 1 0 1 0 2z M770 1005 c-1 0
-2 -1 -2 -2 0 -1 0 -2 1 -2 0 1 1 0 0 -1 0 -1 0 -2 1 -2 1 0 2 0 2 1 1 0 1 1
0 1 -1 1 -1 2 -1 3 0 1 -1 2 -1 2z M770 990 c0 0 -1 0 -1 -1 -1 -1 0 -1 1 -1
1 0 2 0 2 1 -1 1 -2 1 -2 1z M2818 988 c0 0 -1 0 -2 -1 -1 0 -2 -1 -2 -2 0 -1
1 -3 2 -3 0 -1 2 -2 2 -2 1 0 3 -1 5 -3 3 -1 6 -3 9 -4 2 -2 6 -5 9 -8 3 -3 6
-7 9 -14 3 -7 5 -13 7 -22 2 -7 3 -16 4 -21 0 -5 0 -13 1 -19 0 -6 0 -13 -1
-16 0 -4 -2 -9 -2 -13 -1 -3 -3 -9 -5 -11 -2 -3 -3 -6 -3 -7 0 -1 -1 -3 -2 -4
-2 -2 -3 -4 -3 -5 0 -2 1 -3 2 -3 0 0 1 1 1 2 0 0 1 1 1 1 1 1 3 3 5 6 2 3 5
8 7 11 2 5 3 7 2 7 -1 1 -1 1 0 1 0 0 1 2 2 4 1 2 2 7 3 11 0 4 1 12 1 17 0 5
-1 15 -2 23 0 7 -1 15 -2 17 -1 3 -2 6 -2 9 -1 2 -2 5 -3 7 0 2 -1 4 -1 5 0 0
0 1 -1 1 0 0 -2 3 -4 7 -2 3 -4 8 -5 10 -2 2 -4 4 -5 5 -1 1 -5 3 -7 4 -3 2
-6 4 -6 4 0 0 -4 2 -7 3 -4 2 -7 3 -7 3z M2720 967 c-1 0 -3 0 -4 0 -2 0 -4
-1 -5 -3 -1 -2 -2 -3 -2 -4 0 -1 -1 -2 -2 -3 -1 -1 -2 -4 -2 -7 -1 -3 -3 -11
-5 -17 -2 -7 -5 -15 -5 -18 -1 -3 -3 -11 -4 -17 -1 -8 -1 -15 -1 -25 1 -8 2
-17 2 -20 1 -4 3 -10 3 -15 1 -5 3 -11 3 -13 1 -3 4 -8 6 -11 2 -3 4 -5 4 -6
1 0 4 -3 6 -6 3 -3 6 -6 7 -6 0 0 1 -1 1 -1 0 -1 2 -3 4 -4 2 -1 4 -2 5 -2 0
0 1 0 1 1 0 1 0 2 -1 2 -1 1 -2 3 -4 5 -2 3 -3 5 -3 5 0 1 0 1 -1 1 -1 -1 -1
-1 -1 0 0 1 -2 4 -5 7 -3 3 -7 9 -9 12 -2 4 -4 10 -5 15 0 5 -1 10 -2 13 0 2
-1 6 -1 9 -1 2 -1 10 -1 16 -1 6 0 15 1 21 0 4 2 12 2 16 1 4 2 8 3 9 0 1 0 2
0 2 0 0 1 2 2 4 0 2 1 4 1 5 0 0 0 1 1 3 0 1 1 4 2 5 0 1 1 3 1 4 0 1 0 2 1 2
1 0 1 1 1 2 0 0 2 4 4 8 1 4 3 8 3 9 0 0 -1 1 -1 2z M2631 961 c-1 0 -3 -1 -5
-2 -2 -1 -4 -3 -6 -7 -2 -4 -3 -9 -4 -12 -1 -2 -2 -8 -2 -12 -1 -4 -1 -12 -1
-18 1 -6 1 -14 2 -19 1 -6 1 -9 0 -10 0 0 -3 -1 -6 -1 -3 -1 -7 -1 -8 -2 -2
-1 -2 -1 -1 -3 1 -1 2 -2 2 -2 1 0 5 0 8 0 7 0 7 -1 8 -3 1 -2 2 -8 3 -14 2
-6 5 -19 6 -29 2 -10 5 -20 5 -21 1 -1 1 -3 2 -3 0 -1 0 -2 0 -2 0 -1 1 -1 1
0 1 1 2 2 3 2 1 -1 1 0 1 3 0 3 0 5 -1 5 0 1 0 2 -1 4 0 2 0 5 0 8 -1 2 -1 5
-2 6 0 1 -1 4 -1 6 -1 2 -2 5 -2 6 0 1 -2 6 -2 11 -1 5 -3 12 -3 15 -1 3 -1 6
-1 7 1 0 7 0 14 0 9 1 12 1 13 2 0 1 1 2 0 3 0 0 -1 1 -2 1 0 -1 -2 0 -3 0 -1
1 -7 1 -12 2 -6 0 -10 0 -11 0 0 1 -1 3 -1 6 -1 2 -1 5 -2 6 -1 0 -1 8 -1 20
0 13 0 20 1 21 0 1 1 4 2 7 1 3 2 6 3 7 0 1 1 2 1 3 0 0 2 2 4 3 3 2 3 2 1 4
-1 1 -2 2 -2 2z M638 927 c-2 1 -2 1 -4 -1 -1 -1 -2 -4 -2 -5 0 -2 0 -3 1 -3
1 0 1 -1 1 -1 0 -1 1 -2 2 -2 1 -1 2 0 2 0 1 1 1 1 2 0 1 -1 2 -2 2 -3 0 0 1
-2 3 -5 1 -2 4 -5 5 -7 1 -2 4 -6 5 -8 1 -3 3 -10 5 -15 2 -6 5 -14 6 -18 1
-5 2 -12 3 -16 0 -5 0 -11 1 -13 0 -3 0 -10 -1 -16 0 -6 -1 -15 -1 -20 -1 -5
-2 -13 -2 -17 -1 -4 -2 -11 -3 -15 -1 -5 -2 -10 -2 -11 0 -2 -1 -4 -2 -6 0 -2
-1 -5 -1 -8 0 -3 0 -6 0 -7 1 0 2 0 2 1 1 1 2 3 3 5 1 2 2 5 2 6 0 1 0 2 1 3
1 0 1 2 1 4 0 1 0 3 1 3 1 0 1 1 1 2 0 2 1 4 1 6 1 1 1 3 2 5 0 1 1 6 2 12 0
5 2 14 2 19 1 4 1 17 1 28 1 10 0 20 0 23 -1 2 -2 6 -2 10 -1 4 -3 11 -4 16
-2 4 -3 10 -4 13 -1 2 -3 6 -4 9 -2 3 -3 6 -4 7 -1 1 -3 4 -4 6 -1 3 -3 5 -3
6 -1 1 -2 2 -2 3 0 0 0 1 -1 1 0 0 -2 1 -4 3 -2 2 -4 3 -5 4 0 0 -1 1 -2 2z
M548 917 c-2 0 -3 -1 -6 -3 -1 -2 -4 -5 -5 -6 -1 -1 -4 -5 -6 -10 -2 -4 -5
-12 -6 -18 -3 -9 -3 -12 -3 -25 0 -9 1 -20 1 -25 0 -6 2 -14 2 -17 1 -4 3 -10
4 -14 1 -4 4 -9 5 -12 2 -4 4 -7 5 -8 0 -1 3 -4 5 -8 3 -3 7 -7 10 -9 3 -3 5
-5 5 -5 0 -1 1 -1 3 -2 2 0 5 0 6 1 2 1 3 2 3 2 0 1 -1 2 -2 2 -1 0 -3 1 -6 2
-2 1 -6 5 -10 10 -3 4 -6 8 -6 9 0 0 -1 1 -2 2 0 1 -2 3 -2 4 -1 2 -3 5 -4 8
-1 2 -1 4 -2 5 0 0 0 3 -1 5 -1 2 -1 4 -2 5 0 1 0 2 -1 3 0 1 0 4 0 6 -1 2 -1
9 -2 14 -1 5 -1 15 -1 22 -1 11 0 14 2 22 1 5 2 10 2 11 0 0 -1 -1 -1 -2 -1
-1 -2 -2 -2 -1 0 0 2 3 4 5 1 2 3 4 3 4 0 1 2 3 3 6 2 4 5 8 7 10 2 1 3 4 3 5
0 1 -2 2 -3 2z M3057 905 c-2 1 -4 0 -6 0 -2 0 -5 -2 -6 -3 -1 -1 -2 -2 -2 -3
1 -1 4 -1 11 -1 6 1 15 0 20 0 4 -1 10 -1 12 -2 4 0 4 0 4 3 0 1 -1 2 -2 2 -1
0 -4 1 -6 2 -3 1 -7 2 -14 2 -5 0 -10 0 -11 0z M118 900 c-1 0 -1 0 0 -2 1 -1
2 -1 3 -1 0 1 0 1 0 2 -1 1 -2 1 -3 1z M2990 897 c-1 1 -4 0 -6 0 -2 0 -4 -1
-4 -2 -1 -1 -2 -1 -3 -1 -1 0 -2 -1 -3 -2 -1 0 -2 -1 -3 0 -1 0 -2 -1 -3 -2
-1 -2 -1 -3 0 -3 1 -1 1 -1 2 0 1 0 3 1 4 1 1 0 3 0 5 0 1 0 3 1 5 2 3 0 6 1
9 1 4 -1 5 0 5 1 1 1 0 2 -1 3 0 1 -2 2 -3 2 -1 0 -3 0 -4 0z M455 893 c-1 0
-4 -1 -6 -2 -2 -1 -4 -3 -5 -4 0 -1 -1 -4 -2 -6 -1 -3 -1 -8 -1 -12 -1 -4 0
-11 1 -15 1 -5 3 -12 4 -15 1 -4 1 -7 1 -8 -1 0 -3 0 -6 0 -2 0 -6 -1 -9 -1
-2 -1 -4 -3 -5 -4 -1 -2 -1 -4 0 -4 1 -1 2 -1 4 0 2 0 7 1 11 1 l8 0 2 -6 c1
-3 2 -7 3 -8 0 -2 2 -8 4 -12 2 -8 2 -12 3 -24 0 -8 0 -16 1 -17 1 -1 2 -2 2
-1 1 0 2 1 1 1 0 1 1 2 1 3 2 1 2 2 1 3 -1 1 -1 1 0 2 2 1 2 2 2 8 0 4 -1 11
-1 15 -1 3 -2 8 -3 10 0 1 -1 4 -1 5 0 2 -1 5 -1 7 -1 2 -3 6 -3 9 -1 3 -2 5
-2 5 0 1 3 1 7 2 4 0 9 1 12 1 3 0 6 1 8 2 2 0 3 1 3 2 0 0 -1 1 -1 2 -1 1 -5
1 -10 1 -4 0 -11 0 -15 0 -4 -1 -7 0 -7 0 0 1 -1 3 -1 4 -1 2 -3 8 -4 14 -2 7
-3 14 -3 17 0 3 0 7 1 10 1 3 2 6 3 7 2 1 4 1 5 0 2 0 4 -1 5 -2 1 -1 2 -2 2
-1 1 0 0 1 0 3 0 2 -2 4 -3 5 -2 1 -4 2 -6 3z M2768 889 c-2 0 -5 0 -6 -1 -2
0 -5 -2 -7 -3 -4 -3 -5 -4 -8 -13 -3 -6 -4 -11 -5 -17 0 -6 0 -8 1 -11 1 -3 2
-5 2 -6 0 -1 1 -3 3 -5 2 -3 4 -3 8 -4 3 0 5 0 5 1 1 0 2 1 3 1 1 0 3 1 5 3 1
2 4 5 6 8 2 2 4 4 4 4 0 1 1 2 1 3 1 0 2 2 2 2 1 1 1 1 3 0 1 -1 2 -3 2 -5 0
-1 0 -2 1 -2 0 0 2 -3 3 -6 2 -3 5 -7 6 -9 2 -2 5 -5 8 -6 4 -2 5 -2 7 -1 1 1
2 2 2 4 0 2 -1 3 -3 3 -3 1 -5 2 -7 4 -1 2 -5 8 -7 13 -2 5 -5 9 -5 11 0 1 -2
4 -3 8 -1 3 -2 7 -2 8 0 0 -1 3 -3 5 -1 2 -4 6 -7 7 -4 3 -5 4 -9 4z m-8 -9
c1 0 2 -1 2 -1 0 0 0 -1 0 -1 0 -1 0 -1 1 0 0 1 3 1 6 1 4 1 4 1 6 -4 1 -2 3
-6 3 -7 1 -1 1 -3 0 -7 -1 -2 -1 -5 -1 -6 0 -1 -3 -5 -7 -9 -4 -4 -7 -7 -8 -7
0 0 -1 -1 -2 -1 0 -1 -1 -1 -4 -1 -2 1 -3 2 -4 6 -1 2 -2 6 -2 9 0 2 0 6 1 9
1 3 2 6 2 7 0 0 1 2 1 4 1 2 2 3 3 4 0 0 1 1 1 2 1 1 2 2 2 2z m22 -20 c1 0 1
-1 0 -2 0 -1 -1 -3 -1 -4 -1 0 -2 -2 -2 -3 0 0 -1 -1 -2 -1 -1 0 -1 0 0 2 1 1
2 3 2 3 0 0 1 2 2 3 1 1 1 2 1 2z m-6 -12 c0 -1 0 -1 0 -2 -1 -1 -1 -1 -1 0 0
1 0 2 1 2z M769 884 c-1 0 -1 0 0 -1 1 0 1 0 2 0 0 1 -1 1 -2 1z M451 875 c0
0 0 -1 0 -2 0 0 0 -1 1 0 1 0 1 1 0 1 0 1 0 1 -1 1z M926 874 c-3 0 -8 -1 -11
-1 -4 0 -7 -1 -8 -1 0 -1 -1 -2 -1 -3 0 0 1 -1 2 -1 1 -1 4 -1 6 -1 2 -1 4 -1
5 -1 1 0 5 0 9 0 4 0 8 -1 9 -1 0 -1 2 -1 3 -1 1 1 2 0 3 0 0 -1 1 -1 1 -1 1
0 1 1 1 1 0 1 -1 2 -2 3 -2 2 -3 3 -3 4 0 1 -3 2 -5 2 -2 1 -7 1 -9 1z M849
871 c0 0 -1 0 -1 -1 -1 -1 0 -1 0 -1 1 0 2 0 2 1 0 1 0 1 -1 1z M865 866 c-9
0 -15 -1 -16 -1 0 -1 -1 -1 -3 -1 -1 1 -4 0 -6 -1 -2 -1 -4 -2 -4 -4 0 -1 1
-2 2 -3 1 0 3 -1 6 0 2 0 5 1 6 2 3 1 7 1 16 1 6 0 12 0 13 0 1 0 1 1 1 3 l0
4 -15 0z M615 859 c-1 0 -3 -1 -4 -3 -2 -2 -4 -5 -6 -8 -1 -3 -2 -6 -3 -7 0
-1 -2 -4 -4 -8 l-3 -6 -3 5 c-1 2 -3 5 -4 6 -1 1 -2 3 -2 3 0 1 0 1 -1 1 -1 0
-1 -1 0 -1 0 -1 0 -2 -1 -2 -1 -1 -1 0 -1 2 0 1 0 4 -1 6 -1 2 -2 4 -3 5 -2 1
-3 1 -5 0 -1 -1 -2 -2 -2 -2 0 -1 1 -2 1 -4 1 -1 3 -4 4 -5 1 -1 2 -3 2 -3 0
-1 1 -2 2 -3 0 -1 1 -2 1 -2 0 -1 1 -3 2 -4 1 -1 2 -2 1 -2 0 0 0 -1 1 -2 1
-1 2 -3 3 -6 2 -3 2 -4 1 -7 -1 -2 -3 -7 -5 -11 -1 -4 -4 -12 -5 -17 -2 -5 -3
-11 -3 -12 0 -2 1 -3 2 -4 2 -1 2 -1 4 0 0 1 1 2 1 4 0 1 1 6 2 10 1 3 4 10 6
14 1 4 3 8 3 9 0 0 0 1 1 1 1 0 3 -4 5 -8 2 -4 7 -13 10 -20 4 -8 8 -16 10
-19 2 -3 5 -6 6 -6 0 0 2 1 2 2 1 3 1 4 -5 14 -3 6 -7 14 -8 17 -2 3 -6 11 -9
18 -5 10 -6 14 -6 16 1 1 2 4 3 7 1 2 3 6 4 8 0 1 2 5 3 8 1 2 3 6 4 7 2 2 3
3 2 3 0 1 0 2 1 3 1 1 1 1 0 2 -1 1 -2 1 -3 1z M242 850 c-1 0 -1 -1 -1 -2 0
-1 0 -1 1 0 0 1 0 1 0 2z M2844 831 c-1 0 -1 -1 -1 -1 0 -1 0 -2 1 -2 1 0 1 1
1 2 0 0 0 1 -1 1z M2041 813 c0 0 -1 0 -2 -1 -1 -1 -1 -1 1 -1 1 0 2 0 2 1 -1
1 -1 1 -1 1z M2743 807 c-1 0 -2 -1 -3 -2 0 -1 0 -3 1 -3 0 -1 2 -1 4 0 2 0 3
1 2 1 0 1 0 1 1 1 1 0 1 1 -1 1 -1 1 -2 2 -4 2z M2782 806 c-1 1 -1 0 -1 -1 0
-1 1 -2 2 -2 0 0 1 0 1 1 0 1 -1 2 -2 2z M2754 806 c0 0 -1 0 -1 -1 -1 -1 0
-1 0 -1 1 0 2 0 2 1 0 1 0 1 -1 1z M2768 806 c-3 0 -6 -1 -7 -1 0 -1 0 -1 1
-1 0 -1 2 -1 5 0 2 0 4 0 5 0 1 0 2 0 2 1 0 0 -3 1 -6 1z M2778 805 c-1 1 -1
1 -1 0 -1 -1 -1 -1 -1 -2 1 0 1 0 2 0 0 1 0 1 0 2z M2737 805 c-1 0 -1 0 -1
-1 0 0 0 -1 1 -1 1 -1 1 0 1 0 0 1 0 2 -1 2z M2795 805 c-1 0 -2 0 -2 -1 0 -1
1 -1 2 -1 0 0 1 0 1 1 0 1 -1 1 -1 1z M2810 805 c-3 0 -3 0 -2 -1 1 0 4 -1 6
-1 3 -1 5 0 5 0 0 0 -1 1 -3 1 -2 1 -5 1 -6 1z M3003 794 c-1 0 -1 -1 -1 -2 0
-2 0 -3 1 -3 0 -1 2 -1 3 0 2 0 3 1 2 1 0 1 -1 1 -1 0 -1 0 -2 1 -2 2 -1 1 -2
2 -2 2z M2988 793 c0 0 -1 0 -1 -1 -1 0 -1 -1 0 -1 0 -1 1 -1 1 -1 1 0 1 1 1
2 0 0 0 1 -1 1z M127 723 c-1 0 -1 -1 0 -2 0 -1 1 -3 1 -4 0 -2 1 -4 1 -4 1
-1 2 -1 2 -1 1 0 1 1 1 3 0 2 -1 3 -1 4 -1 0 -2 1 -2 2 -1 1 -1 2 -2 2z M768
686 c-1 0 -1 -1 -1 -2 0 -1 0 -1 1 0 0 1 0 1 0 2z M2646 677 c-1 0 -1 0 -2 -1
0 -1 0 -1 0 -2 1 0 2 0 3 1 2 0 2 0 1 1 -1 1 -2 1 -2 1z M4135 665 c-1 0 -2 0
-3 -1 -1 0 -2 -1 -2 -1 0 -1 1 -1 2 -2 2 0 3 0 4 1 0 1 1 2 0 2 0 1 -1 1 -1 1z
M581 649 c-1 0 -2 -1 -2 -1 -1 -2 0 -2 2 -2 1 0 2 1 2 2 0 0 -1 1 -2 1z M586
644 c0 1 -1 0 -2 0 -2 -2 -2 -2 0 -2 0 -1 1 0 2 1 0 0 0 1 0 1z M2958 639 c-1
0 -1 -1 0 -1 0 -1 0 -2 1 -2 0 0 0 1 0 2 0 0 0 1 -1 1z M2040 604 c-1 0 -2 -1
-3 -2 -1 -1 -1 -4 -1 -7 0 -3 0 -5 2 -5 0 0 1 1 1 2 0 1 0 1 1 0 1 0 2 -3 3
-6 1 -3 2 -8 4 -11 1 -3 2 -6 3 -7 0 -2 0 -3 -2 -5 -1 -1 -3 -3 -4 -6 -2 -2
-6 -8 -10 -13 -3 -5 -7 -11 -8 -14 -2 -4 -4 -8 -4 -9 -1 -2 -1 -4 0 -6 1 -1 2
-2 3 -2 2 0 3 1 3 2 1 0 1 2 1 3 0 1 2 5 4 10 3 5 5 9 5 9 1 0 1 1 1 1 0 1 2
4 4 7 2 3 6 7 8 9 1 2 3 3 3 3 0 0 2 -3 4 -5 1 -3 3 -7 4 -9 1 -2 2 -4 2 -5 0
-1 0 -2 1 -2 1 0 1 -1 1 -1 0 -1 1 -2 1 -3 1 -1 2 -1 2 1 1 0 1 2 0 2 0 1 0 2
1 3 1 0 1 1 1 2 -1 1 0 1 0 0 1 0 2 0 3 1 0 1 0 2 -1 2 0 0 -1 1 -1 2 0 0 -1
1 -1 1 -1 0 -2 1 -2 2 0 1 -2 6 -4 10 -2 5 -4 9 -4 9 0 1 2 3 4 5 3 3 5 5 6 6
0 1 1 2 1 3 0 1 1 1 1 1 1 0 2 1 2 3 0 1 -1 3 -1 3 -1 1 -2 0 -3 0 -1 -1 -5
-4 -8 -7 -4 -4 -6 -5 -7 -4 0 1 -1 2 -1 3 0 0 -1 3 -2 5 -2 3 -3 5 -3 6 0 0
-1 3 -3 6 -2 3 -4 5 -5 5 0 0 -1 0 -1 1 0 1 -1 1 -1 1z M2077 594 c-2 0 -3 0
-3 -2 -1 0 -1 -2 -1 -2 1 0 2 -1 4 -1 3 1 4 1 4 3 0 1 -1 2 -4 2z M4205 586
c-1 0 -3 -1 -3 -2 -1 -1 -2 -3 -2 -5 0 -2 0 -4 1 -4 1 -1 1 -1 2 0 2 1 2 1 4
-1 1 -1 4 -6 6 -10 l3 -7 -2 -3 c-1 -2 -4 -6 -7 -10 -2 -3 -4 -6 -4 -7 0 -1 0
-1 -1 -1 0 0 -1 -1 -2 -3 0 -1 -2 -5 -4 -7 -1 -3 -4 -7 -5 -8 -2 -2 -3 -4 -3
-5 0 0 -1 -1 -1 -1 -1 -1 -3 -3 -4 -5 -2 -4 -2 -6 -1 -7 0 -1 2 -2 3 -2 2 0 3
1 5 3 1 1 3 4 5 6 2 2 5 7 7 11 1 5 3 9 4 9 1 1 2 4 4 7 1 2 3 6 5 9 1 2 3 4
4 4 1 0 2 -2 3 -4 1 -3 3 -9 5 -13 2 -5 4 -10 4 -11 1 -1 2 -5 2 -10 1 -5 2
-7 3 -8 1 0 2 0 3 2 0 1 1 3 1 6 0 3 -1 9 -3 14 -1 5 -2 9 -3 11 0 1 -2 5 -3
9 -1 4 -3 9 -4 10 -1 3 -1 3 0 5 1 1 2 2 2 3 0 0 0 1 1 1 0 0 2 2 3 4 1 2 3 4
3 4 0 0 1 2 2 4 1 1 2 4 2 4 0 1 -1 2 -3 3 -1 0 -3 0 -3 -1 0 -1 -2 -3 -3 -4
-2 -2 -4 -5 -5 -7 -1 -2 -2 -4 -2 -4 0 0 -3 3 -5 7 -3 4 -5 7 -6 7 -1 0 -2 0
-3 1 0 1 -1 1 -1 1 0 -1 -1 0 -2 2 -1 2 -2 3 -2 3z M674 578 c-1 0 -2 0 -2 -1
0 -1 1 -1 2 -1 0 0 1 0 1 1 0 1 -1 1 -1 1z M4157 565 c-1 0 -1 -1 -2 -2 -1 -1
-1 -1 0 0 1 0 2 1 2 1 0 1 0 1 0 1z M1482 547 c-1 0 -1 0 0 -1 1 0 1 0 2 0 0
1 -1 1 -2 1z M626 546 c0 0 0 0 0 -1 0 -1 0 -1 1 -1 1 0 1 0 1 1 -1 1 -1 1 -2
1z M668 544 c-2 1 -3 2 -3 1 0 -1 0 -1 1 -1 1 0 1 -1 1 -1 0 -1 1 -3 2 -4 1
-1 2 -2 2 -1 1 0 1 1 0 3 0 1 -2 2 -3 3z M738 537 c0 0 -1 0 -1 -1 -1 0 0 -1
1 -2 0 -1 1 -1 2 -1 0 1 0 2 0 2 -1 1 -1 2 -2 2z M2073 536 c-1 0 -1 -1 -1 -3
0 -2 0 -2 -1 -1 -1 1 -1 1 -1 0 0 -1 1 -1 2 -2 2 0 2 -1 2 -3 -1 -2 0 -3 2 -5
1 -1 3 -3 4 -3 1 0 2 0 2 1 0 0 0 1 -1 2 -1 0 -1 1 -1 1 1 0 0 2 -1 5 0 2 -1
3 -2 3 0 -1 -1 0 -2 0 0 1 -1 2 -1 3 0 1 0 2 -1 2z M3559 514 c-1 1 -1 0 -1
-1 0 -2 0 -3 1 -2 0 1 0 3 0 3z M1377 501 c0 1 -1 0 -2 -1 -1 0 -2 -1 -2 -2 0
0 1 -2 2 -3 1 -1 3 -2 3 -2 1 0 2 0 1 1 0 1 0 2 -1 4 0 1 0 3 -1 3z M1382 496
c0 0 0 0 0 0 0 0 0 -1 0 -2 -1 -1 -1 -3 -2 -4 -1 -1 -1 -1 -1 0 1 1 1 2 0 1
-1 0 -1 -1 -1 -2 0 -1 1 -2 2 -3 0 0 1 -1 1 -1 0 -1 0 -1 -1 0 -1 0 -1 -13 -1
-40 1 -33 1 -42 3 -48 0 -4 2 -8 3 -9 0 0 2 -1 4 -1 1 0 2 1 3 3 1 1 3 7 5 12
1 5 3 10 3 10 0 0 2 3 3 5 1 2 2 6 2 7 1 1 2 3 4 5 1 1 4 4 5 6 3 4 3 4 5 3 1
-1 2 -2 3 -2 0 0 2 -3 4 -7 2 -4 4 -10 5 -13 1 -4 1 -5 0 -6 -1 0 -1 -1 -1 -2
1 -1 1 -6 0 -12 -1 -7 -1 -11 0 -11 0 0 1 -1 0 -2 0 -2 1 -3 1 -4 1 -1 2 -1 4
0 1 1 2 2 2 3 0 1 1 4 1 7 0 2 0 9 0 14 0 5 0 12 0 15 -1 4 -2 9 -4 12 -2 4
-4 8 -6 10 -2 3 -5 5 -6 6 -1 0 -3 1 -5 1 -1 0 -4 -2 -7 -5 -2 -3 -5 -7 -7 -9
-1 -2 -2 -5 -3 -6 0 -1 -1 -3 -2 -4 -1 -1 -1 -3 -1 -3 0 -1 -1 -3 -3 -4 -1 -1
-3 -4 -3 -5 -1 -1 -1 -2 -2 -2 -1 1 -1 10 -1 24 0 13 0 28 0 35 -1 6 -1 13 -1
17 -1 3 -2 7 -3 8 0 2 -1 3 -2 3z m21 -73 c0 -1 -1 -2 -2 -4 l-3 -2 2 3 c1 2
3 3 3 3z M2754 486 c-1 0 -1 0 -1 -1 0 -1 0 -1 1 -1 1 0 1 0 1 1 0 1 0 1 -1 1z
M1256 453 c-1 0 -2 0 -2 -1 -1 -1 -1 -3 0 -5 0 -2 2 -7 3 -10 2 -4 3 -8 4 -9
1 -1 1 -3 1 -3 0 -1 1 -4 3 -7 l2 -5 -3 -8 c-1 -4 -4 -10 -5 -13 -2 -3 -3 -5
-3 -4 0 1 -1 0 -1 -2 -1 -1 -2 -5 -2 -7 0 -3 0 -6 0 -8 0 -3 0 -5 1 -5 1 -1 2
-1 3 -1 0 0 1 1 2 3 1 1 2 4 3 7 0 2 1 6 3 10 1 4 3 8 4 11 1 2 2 4 2 5 0 1 0
2 1 2 0 -1 2 -3 3 -6 0 -3 2 -6 3 -7 0 -1 1 -2 1 -3 0 0 1 -2 3 -5 2 -3 4 -4
5 -4 2 0 3 1 4 1 0 1 1 2 1 3 0 1 -1 4 -3 6 -1 1 -2 3 -2 3 0 0 0 2 -1 3 -1 2
-2 5 -3 8 -1 3 -3 6 -4 7 0 2 -1 4 -1 5 0 2 1 5 2 8 1 2 2 4 2 4 0 1 2 5 4 10
2 5 3 9 3 11 -1 1 -2 2 -2 2 -1 0 -3 -2 -5 -4 -2 -3 -5 -9 -7 -13 -2 -4 -4 -8
-4 -8 -1 0 -1 0 0 1 0 1 -1 3 -2 5 -1 3 -3 6 -4 7 -1 1 -3 2 -3 2 -1 0 -1 2
-1 3 0 2 -1 6 -2 7 -1 3 -2 4 -3 4z M999 443 c-2 0 -3 -1 -4 -2 -1 0 -1 -2 -1
-4 1 -2 2 -5 3 -7 1 -2 2 -3 3 -3 0 1 1 0 2 -1 0 -1 0 -2 1 -2 0 1 1 -2 3 -6
1 -4 2 -8 3 -8 1 -1 2 -3 2 -6 2 -3 1 -4 -1 -8 -1 -3 -3 -6 -3 -7 -1 -1 -1 -3
-2 -4 -1 -1 -2 -4 -2 -5 -1 -1 -2 -4 -3 -5 -1 -1 -2 -2 -2 -3 1 0 0 -2 -1 -4
0 -1 -1 -4 -1 -6 0 -3 1 -4 2 -4 1 -1 2 0 3 0 0 1 1 4 1 6 1 2 2 5 4 7 1 2 2
4 2 5 0 0 1 1 2 2 0 1 1 2 1 3 0 2 1 4 2 5 1 1 2 3 2 4 0 1 1 1 2 1 1 0 3 -3
4 -6 2 -2 4 -7 5 -9 1 -2 4 -6 5 -8 1 -2 4 -4 5 -5 1 -2 3 -2 4 -2 1 0 2 -1 2
-2 0 -1 0 -1 1 0 1 1 2 3 1 4 0 1 -1 2 -2 3 0 0 -3 5 -6 10 -3 4 -6 10 -7 12
-1 1 -2 4 -3 5 -1 1 -2 4 -3 6 0 3 0 5 2 10 2 3 3 6 2 7 0 1 0 2 1 2 1 0 2 2
3 5 1 2 2 5 2 5 0 1 0 2 1 4 0 1 1 4 2 7 0 3 0 4 -1 4 -1 0 -2 -1 -3 -2 -2 -2
-3 -4 -4 -6 -1 -2 -2 -5 -3 -6 0 -2 -1 -5 -2 -6 -1 -1 -2 -4 -3 -7 -1 -2 -1
-4 -2 -4 0 0 -2 3 -4 7 -2 3 -5 9 -7 13 -2 3 -4 6 -5 7 0 1 -1 2 -1 3 0 0 -1
1 -2 1z M1335 439 c-1 0 -2 -1 -3 -2 0 -1 0 -3 1 -5 1 -3 1 -6 1 -9 0 -4 0 -4
-5 -4 -2 -1 -7 -1 -10 -2 -3 0 -6 -1 -7 -1 -2 0 -3 -1 -4 -1 -2 0 -3 -1 -3 -4
0 -2 0 -3 2 -4 0 0 3 0 6 1 2 1 6 1 8 1 1 1 5 1 7 2 4 0 5 0 6 -1 1 -1 1 -4 1
-7 0 -3 0 -7 1 -10 1 -3 2 -6 3 -7 1 -1 3 -2 3 -2 1 0 2 2 3 3 1 2 1 4 0 10
-1 4 -2 8 -1 10 l1 3 6 1 c3 0 7 0 7 1 1 0 1 2 1 3 0 1 -2 2 -6 3 -3 0 -5 1
-5 0 0 0 -1 0 -2 1 -1 1 -2 3 -3 5 -1 2 -1 5 -1 7 -1 1 -1 3 -2 5 0 1 -1 2 -1
2 -1 1 -3 1 -4 1z M3112 435 c-1 0 -2 0 -2 -1 0 -1 0 -1 1 -1 0 0 1 0 2 1 0 1
-1 1 -1 1z M3554 431 c-3 0 -3 0 -3 -4 0 -2 1 -4 2 -5 0 -1 1 -2 1 -3 0 0 1
-1 1 -1 1 0 2 -1 3 -3 1 -2 2 -4 2 -4 0 -1 2 -6 4 -12 l4 -10 -3 -6 c-2 -4 -4
-8 -5 -9 -1 -2 -2 -5 -3 -6 -1 -1 -3 -4 -4 -6 -2 -3 -5 -8 -6 -11 -1 -4 -3 -8
-4 -10 0 -1 -1 -4 -1 -6 0 -2 0 -4 1 -5 0 -1 2 -1 3 -1 2 0 3 2 4 5 1 3 2 6 3
7 0 2 1 3 1 5 0 1 0 2 1 3 1 0 1 1 1 2 0 1 1 3 2 4 1 1 2 2 2 3 0 0 1 2 3 4 1
1 2 3 2 3 0 1 2 4 4 8 l4 6 1 -3 c1 -1 3 -5 4 -7 2 -3 3 -6 4 -6 0 0 1 -2 2
-3 1 -2 2 -5 2 -6 1 -2 2 -6 4 -9 1 -3 3 -8 3 -12 1 -4 2 -8 3 -9 1 -1 1 -1 4
0 2 1 2 2 2 9 -1 5 -2 10 -3 13 -1 2 -2 5 -3 7 0 1 -1 3 -2 5 -1 2 -2 5 -4 7
-1 3 -3 7 -4 10 -2 3 -4 7 -5 10 -1 3 -2 5 -2 7 1 1 3 4 5 6 1 2 3 5 4 6 0 1
1 2 1 2 1 0 1 1 1 3 -1 2 -1 5 -1 6 -1 2 -1 2 0 1 1 -1 1 -1 1 0 0 0 0 1 1 1
1 0 1 -1 1 -1 0 -1 0 -2 1 -2 1 0 1 1 2 2 0 2 0 4 0 5 0 1 -1 2 -1 2 -1 0 -1
-1 -1 -1 0 -1 -1 -1 -2 -1 -1 0 -2 -1 -3 -3 -1 -2 -1 -4 0 -4 0 -1 0 -1 -1 0
-1 1 -2 1 -3 -1 -1 -1 -2 -3 -4 -5 -1 -1 -2 -4 -3 -5 -2 -3 -2 -3 -4 -2 0 1
-1 2 -1 3 0 0 -1 4 -3 7 -1 4 -3 7 -3 8 -1 0 -2 2 -3 4 -1 2 -3 4 -4 6 -1 1
-4 2 -5 2z M3118 426 c-1 0 -2 0 -4 0 -1 0 -2 -1 -1 -2 0 -1 0 -2 -1 -2 -1 0
-1 -1 0 -2 0 -1 0 -2 -1 -2 0 0 -2 -1 -3 -2 -1 -1 -2 -3 -2 -4 0 -2 -1 -3 -1
-3 -1 0 -5 -4 -10 -8 -4 -5 -9 -11 -9 -13 -1 -2 -3 -7 -4 -12 -1 -8 -1 -9 1
-18 1 -5 2 -10 3 -11 0 -1 2 -4 5 -7 2 -2 6 -4 8 -5 2 0 6 0 9 1 3 1 7 2 8 3
1 2 4 4 6 7 2 2 4 5 4 6 l1 3 -2 -2 c-1 -1 -2 -2 -2 -1 0 0 1 3 3 5 2 3 3 4 3
3 1 -1 1 -1 1 -1 0 1 1 0 3 -1 1 -2 4 -4 6 -5 2 -2 6 -3 9 -4 4 -1 6 0 8 1 2
1 3 2 4 3 1 1 1 2 1 3 0 1 -2 1 -5 0 -3 0 -5 0 -8 2 -3 1 -5 2 -5 2 -1 0 -3 2
-5 5 -3 4 -3 5 -4 13 0 8 0 8 1 7 2 -1 2 -1 4 1 1 2 2 4 2 8 0 3 -1 5 -1 6 -1
1 -2 2 -2 3 -1 1 -4 4 -8 6 -4 3 -7 5 -6 6 0 0 -1 1 -2 1 0 0 -1 0 0 1 0 1 0
1 -1 1 0 0 -1 2 -2 3 0 2 -1 4 -1 5z m6 -29 c1 0 1 -3 1 -8 0 -4 0 -9 0 -11 0
-3 -1 -5 -1 -5 -1 0 -1 -2 0 -3 0 -2 0 -5 -2 -9 -1 -4 -3 -7 -7 -11 -5 -5 -6
-6 -10 -6 -3 -1 -5 -1 -7 1 -1 0 -3 3 -4 5 -1 2 -2 6 -2 8 -1 3 -1 7 -1 9 -1
1 -1 3 -1 4 0 0 0 0 -1 -1 -1 -1 -1 -1 0 2 0 1 1 5 2 7 1 2 2 5 3 6 1 1 2 3 2
4 l1 3 1 -3 1 -2 0 2 c0 1 1 3 1 5 2 1 2 1 2 -3 0 -3 0 -4 1 -2 0 2 1 4 2 5 1
1 4 1 9 1 5 1 8 1 9 1 0 1 1 1 1 1z M3115 384 c-1 0 -1 -1 -1 -2 0 0 0 -1 1 0
1 0 1 1 1 1 0 1 0 1 -1 1z M3119 374 c-1 0 -2 -1 -2 -1 -1 -1 -1 -2 0 -2 0 0
1 1 2 2 1 1 1 1 0 1z M1302 409 c0 1 -1 1 -1 0 0 0 0 -1 1 -1 0 -1 1 -1 1 0 1
0 0 1 -1 1z M806 373 c-1 1 -1 1 -2 0 0 -1 0 -3 1 -3 1 -1 1 -1 2 0 0 1 0 3
-1 3z M1193 326 c-2 0 -3 0 -3 0 -1 0 -1 -1 -1 -1 0 -1 1 -1 2 -1 2 0 3 1 4 1
0 0 -1 1 -2 1z M1313 317 c-1 1 -2 1 -3 0 0 0 -2 -2 -3 -4 -1 -2 -4 -5 -7 -7
-2 -3 -6 -6 -9 -7 -2 -1 -7 -3 -11 -5 -4 -1 -9 -2 -16 -3 -7 0 -10 0 -17 2 -5
1 -10 3 -12 4 -2 1 -5 3 -7 4 -2 1 -6 3 -9 4 -3 1 -8 2 -10 2 -2 0 -9 0 -14 0
-5 -1 -10 -1 -11 -1 -1 0 -3 -2 -5 -4 -2 -3 -3 -4 -5 -4 -1 0 -3 0 -3 -1 -1
-2 -3 -4 -4 -5 -2 -2 -3 -3 -3 -4 0 -1 0 -1 -1 -1 -1 0 -1 1 -2 2 0 0 -1 1 -2
1 -1 0 -2 0 -2 1 -1 0 -4 1 -7 2 -3 1 -9 1 -13 1 -4 0 -10 -1 -15 -2 -4 -1 -8
-2 -8 -3 -1 0 -4 -2 -6 -4 -3 -2 -5 -4 -5 -4 0 -1 -2 -4 -5 -6 -3 -3 -7 -6 -9
-7 -2 -1 -6 -2 -9 -3 -2 -1 -6 -1 -7 -2 -2 0 -6 0 -10 0 -3 0 -8 1 -11 1 -5 2
-7 3 -15 11 -7 6 -10 10 -12 15 -1 3 -3 7 -3 9 -1 2 -1 6 -2 8 0 2 -1 4 -1 5
-1 1 -2 2 -3 2 0 1 -1 0 -1 0 0 -1 0 -2 1 -2 1 -1 1 -2 1 -3 0 0 -1 -1 -2 -1
-1 0 -1 0 0 -2 1 -1 1 -1 0 -2 -2 -1 -2 -3 -2 -7 1 -2 3 -8 5 -12 2 -5 5 -10
7 -11 1 -2 5 -5 8 -8 3 -3 7 -6 9 -7 1 -1 6 -3 11 -4 6 -1 11 -1 15 -1 4 1 8
1 10 1 1 1 2 1 2 1 0 0 1 0 2 0 1 1 5 2 8 4 3 2 10 8 16 13 10 10 10 10 17 11
7 2 10 2 18 2 5 -1 10 -2 12 -3 2 0 4 -2 5 -4 1 -1 2 -4 3 -6 0 -3 1 -4 3 -4
2 0 4 1 5 1 1 1 2 4 2 7 0 3 1 7 2 9 2 3 4 6 7 9 l4 4 13 0 c12 1 14 1 17 0 1
-1 4 -3 6 -4 2 -2 6 -4 8 -5 3 -2 9 -4 14 -5 7 -2 12 -2 18 -2 6 0 12 1 18 3
5 1 12 4 16 6 4 2 9 5 10 7 2 1 5 5 8 7 3 4 4 6 4 8 0 2 0 3 -1 3 0 0 -1 0 -2
0z M3583 287 c0 0 -2 -1 -3 -1 -1 -1 -2 -2 -2 -2 0 0 1 -1 2 -2 0 -1 1 -2 1
-3 0 -1 -2 -4 -5 -7 -2 -3 -5 -5 -6 -5 -1 0 -2 0 -2 -1 0 0 -3 -2 -7 -4 -4 -2
-11 -4 -16 -5 -5 -2 -10 -3 -12 -3 -2 -1 -8 -2 -13 -2 -6 -1 -16 -2 -26 -1 -9
0 -30 0 -47 1 -18 0 -33 0 -35 0 -2 0 -9 0 -16 -1 -7 0 -15 -1 -19 -1 -4 -1
-9 -1 -13 -2 -4 -1 -7 -1 -8 -2 -2 0 -4 0 -6 -1 -3 -1 -6 -1 -8 -2 -3 0 -5 -1
-6 -1 -2 -1 -4 -2 -5 -2 -2 -1 -4 -2 -6 -4 -2 -1 -3 -2 -4 -2 0 1 -2 0 -2 -2
-1 -2 -2 -3 -3 -3 -1 -1 -1 0 -1 1 0 1 0 5 -1 8 -2 7 -2 7 -8 10 -5 2 -6 2
-19 2 -7 -1 -18 -1 -23 -2 -5 -1 -10 -1 -11 -2 -1 -1 -4 -2 -8 -4 -4 -1 -12
-6 -19 -10 -6 -4 -12 -7 -13 -7 0 0 -2 -1 -4 -3 -2 -2 -4 -3 -5 -3 0 0 -1 -1
-2 -1 -1 -1 -2 -2 -4 -3 -2 0 -4 -1 -5 -2 -2 -1 -6 -3 -9 -4 -3 0 -9 -1 -12
-1 -3 -1 -6 0 -7 0 0 0 -1 1 -3 1 -1 1 -3 2 -4 2 0 1 -4 4 -9 8 -6 5 -8 7 -10
12 -1 2 -3 7 -4 9 -1 3 -1 7 -1 12 0 5 -1 6 -2 6 -1 0 -2 1 -4 2 -1 1 -3 2 -4
2 -1 0 -2 -2 -2 -5 -1 -3 0 -6 1 -10 1 -3 2 -6 2 -7 0 -1 1 -5 2 -9 2 -6 3 -7
11 -15 5 -4 11 -10 14 -11 2 -2 6 -4 7 -5 2 0 6 -1 9 -2 4 0 9 0 12 1 3 1 8 2
11 4 2 1 7 3 10 5 2 2 6 3 7 4 1 1 3 2 4 3 1 1 3 2 4 2 0 0 4 2 7 4 4 2 10 6
14 8 4 2 8 4 8 4 1 0 2 0 3 1 0 0 3 2 5 2 2 1 6 2 7 3 1 0 11 1 21 1 15 2 18
1 20 0 2 -1 3 -2 3 -4 1 -2 1 -6 2 -10 0 -3 1 -8 2 -10 1 -3 3 -4 5 -4 2 -1 3
0 5 2 1 1 2 3 2 4 0 1 0 2 1 2 1 0 1 1 1 1 0 1 2 3 5 5 2 2 4 4 4 4 0 1 1 1 1
1 1 0 2 1 2 1 1 1 3 2 7 3 3 0 10 2 15 3 4 1 12 3 16 3 4 1 10 1 14 2 4 0 20
0 37 0 17 0 45 0 62 0 21 -1 33 -1 37 0 3 1 8 1 10 2 2 0 11 2 20 5 9 3 16 6
17 6 0 1 1 2 3 3 1 0 3 2 5 3 2 1 4 2 4 2 0 1 2 3 4 5 1 2 3 4 3 6 1 1 1 3 2
5 0 3 0 4 -1 4 -1 -1 -2 0 -3 1 -1 1 -3 2 -3 2z M774 286 c0 0 -1 0 -1 -1 -1
0 -1 -2 0 -3 0 -2 1 -4 1 -5 1 -1 2 -2 2 -2 1 0 1 1 1 3 -1 1 -1 4 -2 5 0 2
-1 3 -1 3z M1540 248 c0 0 -1 0 -1 -1 -1 -1 -1 -1 0 -2 0 -1 1 -1 1 -1 1 0 1
1 1 2 0 1 0 2 -1 2z M1143 238 c-2 1 -3 1 -3 0 -1 0 0 -3 0 -7 1 -3 1 -8 2
-11 0 -4 0 -7 0 -8 1 -2 1 -7 2 -13 0 -6 0 -12 0 -14 1 -3 1 -8 2 -12 0 -5 0
-9 1 -10 0 -2 1 -10 1 -19 1 -9 1 -19 2 -22 0 -3 2 -8 2 -11 2 -4 3 -7 5 -8 2
-1 2 -1 4 1 2 2 3 3 3 9 0 3 0 7 1 7 0 0 0 3 0 6 1 3 3 11 4 18 2 6 5 13 6 16
1 2 3 5 4 6 1 2 2 3 2 2 1 0 1 1 1 1 0 1 1 2 3 3 1 1 3 1 3 1 1 0 1 1 1 1 0 1
1 2 3 2 1 1 3 0 5 -1 1 0 3 -2 4 -4 1 -1 2 -5 3 -7 0 -3 2 -13 3 -23 0 -9 1
-17 1 -18 -1 0 -1 -1 0 -2 0 0 1 -1 3 -2 1 -2 2 -2 4 -1 2 1 3 2 3 2 0 0 0 3
-1 6 0 3 -1 10 -1 15 -1 4 -1 11 -2 15 0 3 -1 7 -2 9 0 2 -2 6 -3 10 -2 4 -4
7 -6 8 -2 1 -5 2 -6 2 -2 0 -3 1 -4 1 0 1 -1 1 -2 0 -1 0 -3 -1 -5 -2 -1 0 -5
-4 -9 -7 -3 -3 -7 -8 -8 -11 -2 -3 -4 -6 -4 -8 -1 -1 -2 -3 -2 -5 -1 -2 -2 -5
-3 -8 0 -2 -1 -4 -1 -5 0 -1 0 -1 -1 -2 0 0 -1 1 -1 4 0 2 0 8 0 13 -1 6 -1
12 -2 14 -1 3 -1 9 -2 14 0 5 0 14 -1 21 0 6 -1 13 -2 15 0 2 -1 6 -1 7 -1 2
-2 3 -4 4 -2 0 -3 1 -3 2 0 1 1 2 1 1 1 0 2 1 3 1 0 1 1 2 0 3 0 0 -2 1 -3 1z
m21 -94 c1 0 1 -4 1 -7 -1 -4 -1 -7 -2 -7 0 0 -1 0 -2 1 -1 0 -1 2 1 7 1 5 2
7 2 6z M1655 222 c-1 1 -1 0 -1 -1 0 -1 0 -2 1 -1 0 0 0 2 0 2z M3251 156 c0
0 -2 -1 -4 -2 -2 -1 -3 -3 -3 -4 0 0 1 -2 2 -4 1 -1 2 -3 2 -3 0 0 2 -3 3 -6
1 -4 2 -6 3 -6 1 0 2 0 3 1 0 1 0 2 -1 2 0 1 -1 3 -1 4 -1 1 0 2 0 2 1 0 2 -2
3 -4 0 -1 2 -5 3 -7 2 -3 3 -6 4 -7 0 -2 0 -4 -2 -6 -1 -2 -3 -4 -3 -4 0 0 -2
-3 -4 -6 -2 -3 -3 -6 -3 -7 0 0 0 -1 -1 -1 0 0 -2 -1 -3 -3 -1 -2 -4 -6 -6 -9
-2 -3 -5 -8 -7 -11 -1 -3 -4 -8 -6 -11 -2 -3 -4 -7 -4 -8 -1 -2 0 -4 1 -5 2
-2 2 -2 4 0 1 1 3 4 5 7 1 2 3 5 4 7 1 1 2 2 2 3 1 1 2 4 4 7 2 3 7 11 11 17
4 6 8 12 10 14 l3 4 2 -7 c2 -4 4 -8 5 -9 0 -2 2 -6 3 -8 1 -2 3 -7 5 -10 2
-3 3 -6 3 -7 0 -2 1 -3 1 -3 1 -1 2 -3 3 -6 1 -4 2 -7 4 -10 2 -1 4 -3 5 -3 0
0 2 1 3 2 1 2 1 4 1 6 -1 1 -3 6 -4 9 -2 4 -5 10 -6 13 -1 3 -3 6 -3 6 -1 0
-3 5 -5 11 -2 5 -5 12 -7 15 -1 3 -2 7 -2 9 0 2 1 5 4 8 2 2 5 6 7 9 2 2 3 4
2 4 0 0 0 1 1 1 1 1 1 2 1 3 -1 1 -2 1 -2 0 -1 0 -1 1 -1 2 0 2 0 2 -2 1 -2
-1 -3 -2 -3 -3 0 0 -1 -1 -1 -2 -1 0 -2 -1 -3 -2 0 -1 -2 -4 -4 -6 l-4 -4 -6
10 c-5 9 -7 11 -11 14 -3 2 -5 3 -5 3z M3295 156 c-1 0 -1 -1 -1 -2 -1 -1 -1
-4 -1 -6 0 -3 0 -3 1 -2 1 1 1 1 1 0 0 -1 1 -1 3 1 1 1 2 3 2 5 0 1 -1 2 -3 3
-1 1 -2 1 -2 1z M3443 133 c-3 0 -6 0 -8 0 -1 0 -4 -1 -4 -2 -1 -1 -4 -4 -5
-6 -2 -2 -4 -6 -5 -8 0 -2 -2 -5 -4 -7 -1 -2 -3 -5 -3 -6 -1 -2 -2 -6 -2 -8
-1 -3 -2 -7 -3 -10 -1 -3 -1 -5 0 -9 1 -2 2 -6 4 -8 1 -2 3 -4 5 -4 1 -1 4 -1
6 -1 1 0 5 1 7 2 2 1 4 2 5 2 1 0 3 1 5 2 1 2 4 5 6 7 2 2 4 5 4 6 -1 0 0 2 0
3 2 1 2 1 2 -2 1 -2 3 -5 8 -10 5 -5 8 -7 12 -8 3 -1 7 -2 9 -1 1 0 4 1 5 1 1
1 2 2 2 3 0 1 -1 2 -1 3 -1 0 -3 1 -6 1 -3 0 -6 1 -8 2 -2 1 -5 4 -8 7 -2 3
-4 6 -5 8 0 3 -1 6 -2 8 -1 3 -1 5 0 7 1 1 1 3 2 3 0 0 1 2 2 3 0 2 1 4 1 5 0
2 -1 3 -1 4 -1 1 -2 2 -2 3 0 0 0 1 -1 1 -1 0 -1 1 -1 1 0 1 -1 2 -2 3 -2 1
-4 2 -4 2 -1 1 -1 1 -1 1 0 -1 -1 0 -3 0 -1 1 -4 1 -6 2z m5 -13 c2 -1 3 -1 4
-1 0 -1 0 -2 -1 -3 -1 -1 -1 -3 -1 -5 1 -1 1 -2 0 -2 0 -1 -1 -5 -1 -10 0 -6
0 -9 -1 -10 -1 -1 -3 -4 -4 -5 -2 -2 -6 -5 -9 -7 -2 -2 -6 -3 -7 -3 -1 0 -2 0
-3 -1 0 -1 -1 0 -3 0 -1 1 -3 2 -3 3 0 1 -1 2 -2 4 -1 1 0 3 1 8 0 3 1 6 1 8
0 1 1 2 2 3 1 1 1 2 1 3 -1 0 0 1 0 2 1 0 2 3 3 5 1 3 3 5 4 5 0 0 1 0 1 1 0
1 0 1 1 0 1 0 1 1 2 1 0 1 1 2 2 2 0 -1 1 -1 1 0 -1 0 0 1 0 1 1 1 3 1 5 0 2
0 3 0 3 1 1 0 2 0 4 0z M3290 119 c-1 0 -1 -1 -1 -1 0 -1 0 -2 1 -2 1 -1 1 0
1 1 0 1 0 2 -1 2z M3380 109 c-2 0 -5 0 -8 0 -2 -1 -5 -1 -5 0 -1 0 -1 0 -2 0
0 -1 -5 -1 -10 -2 -5 0 -12 0 -16 0 -4 -1 -8 -1 -9 -1 -1 0 -2 -1 -2 -2 0 -1
0 -2 -1 -2 0 1 -1 0 -2 -1 0 -1 -1 -2 -1 -3 1 0 5 -1 9 -1 4 0 9 0 10 1 2 1 7
1 11 1 5 1 13 1 18 2 9 1 11 1 17 -1 4 -1 7 -1 7 0 1 1 0 2 -2 4 -1 1 -4 3 -7
4 -2 0 -5 1 -7 1z M3291 100 c-1 0 -1 0 0 -1 0 -1 0 -1 1 -1 0 0 0 0 0 1 0 1
0 1 -1 1z M1641 66 c-1 0 -1 0 -1 -1 0 -1 0 -1 1 -1 1 0 1 0 1 1 0 1 0 1 -1 1z
M2675 24 c-1 0 -1 -1 -1 -1 0 -1 0 -2 1 -2 1 0 1 0 1 1 0 0 0 1 -1 2z"/>
</g>
</svg>
