<?xml version="1.0" standalone="no"?>
<!DOCTYPE svg PUBLIC "-//W3C//DTD SVG 20010904//EN"
 "http://www.w3.org/TR/2001/REC-SVG-20010904/DTD/svg10.dtd">
<svg version="1.0" xmlns="http://www.w3.org/2000/svg"
 width="2297.000000pt" height="1796.000000pt" viewBox="0 0 2297.000000 1796.000000"
 preserveAspectRatio="xMidYMid meet">
<metadata>
Created by potrace 1.13, written by Peter Selinger 2001-2015
</metadata>
<g transform="translate(0.000000,1796.000000) scale(1.000000,-1.000000)"
fill="#000000" stroke="none">
<path d="M721 1740 c-1 0 -2 -1 -3 -2 -1 -1 -1 -13 -1 -28 -1 -15 -1 -42 -2
-61 0 -19 0 -48 -1 -63 0 -16 0 -46 0 -66 -1 -21 -1 -52 -1 -69 -1 -18 -1 -36
-1 -40 0 -6 0 -8 -2 -8 -1 -1 -7 -1 -14 -1 -10 0 -13 1 -14 2 -1 1 -2 1 -4 1
-2 -1 -3 -1 -3 0 0 1 -1 1 -2 0 0 0 -2 -2 -3 -3 0 -2 -1 -4 -1 -5 1 -1 3 -3 4
-4 2 -1 8 -3 13 -5 6 -3 11 -4 17 -4 l9 0 -1 -36 c0 -20 0 -52 -1 -73 0 -21 0
-65 0 -98 -1 -33 -1 -61 -2 -61 0 -1 0 -3 0 -6 1 -3 1 -17 1 -30 -1 -14 -1
-36 -1 -49 -1 -13 -1 -35 -1 -50 0 -22 0 -26 -2 -28 -1 -1 -4 -1 -18 -1 -14 1
-17 1 -18 -1 -1 -1 -2 -2 -2 -3 0 -2 1 -3 6 -5 3 -2 6 -3 8 -4 1 0 6 0 10 0 5
0 11 0 12 -1 l4 0 -1 -8 c0 -4 0 -31 0 -60 -1 -30 -1 -68 -2 -85 0 -17 0 -47
0 -67 -1 -20 -1 -53 -2 -73 0 -21 0 -50 0 -63 0 -13 0 -25 0 -27 0 -1 1 -3 5
-5 l4 -2 106 0 c59 0 107 -1 108 -1 0 -1 1 0 3 0 1 0 19 0 40 0 20 0 39 0 41
0 l5 0 -1 -11 c0 -6 0 -15 0 -20 0 -8 0 -9 2 -11 1 -1 4 -2 5 -3 2 0 3 1 5 3
2 3 2 4 2 19 1 10 1 16 2 18 1 1 1 2 0 3 -1 0 -1 1 -1 2 1 0 15 0 31 0 17 0
42 0 57 0 15 0 35 0 45 0 10 0 28 0 40 0 11 0 31 0 45 0 13 0 59 0 103 -1 43
0 110 0 149 0 39 0 71 -1 72 -1 1 -1 1 -3 1 -8 -1 -3 -1 -8 -2 -11 0 -4 0 -4
4 -6 l5 -2 2 2 c1 1 2 3 3 4 1 1 1 4 1 8 0 3 0 7 1 9 l1 4 62 0 c34 0 96 0
139 0 42 -1 77 -1 77 -1 0 0 24 0 55 0 30 -1 55 -1 56 -1 0 0 4 0 9 0 4 1 9 1
10 0 2 0 8 0 16 0 7 0 13 0 14 0 2 0 2 -1 0 -5 -1 -3 -4 -7 -5 -9 -2 -2 -3 -5
-3 -5 0 -1 -1 -3 -1 -5 -1 -1 -2 -4 -3 -5 -1 -2 -2 -6 -3 -9 0 -3 -2 -7 -2 -8
-1 -2 -2 -4 -3 -6 0 -3 -1 -9 -2 -13 -1 -5 -1 -10 -1 -10 1 0 2 -6 3 -13 1 -7
3 -14 3 -15 1 -2 2 -6 3 -8 1 -2 3 -7 4 -9 2 -2 4 -5 5 -6 0 -1 1 -1 1 -2 0 0
1 -2 3 -3 1 -2 2 -4 2 -4 0 0 1 -1 3 -2 1 -1 5 -3 7 -6 3 -2 6 -5 8 -6 2 -2 5
-3 6 -3 1 -1 2 -2 2 -2 0 0 1 -1 2 -1 2 -1 4 -2 5 -3 1 -1 3 -2 4 -2 1 0 2 -1
3 -1 0 -1 1 -2 3 -3 1 0 5 -1 8 -2 3 0 8 -1 11 -2 2 0 6 -1 8 -1 2 -1 5 -1 7
-1 2 0 4 0 5 0 1 -1 4 -2 7 -3 3 -1 6 -1 7 -1 0 1 2 0 5 -1 2 -1 8 -2 12 -3 4
-1 12 -1 18 -1 7 1 13 1 15 2 3 1 5 2 5 2 0 -1 3 0 6 2 3 2 6 4 7 5 0 0 1 1 2
1 0 0 2 0 4 1 1 1 5 2 7 4 3 2 5 4 5 5 0 0 1 1 2 1 1 0 3 1 4 3 2 1 3 2 4 1 1
0 3 1 5 3 1 2 3 4 3 4 0 1 2 3 6 6 3 2 5 5 5 5 0 1 1 2 2 2 2 0 2 1 2 2 0 1 1
2 2 3 2 0 5 2 7 5 2 2 4 5 4 6 0 1 1 3 2 4 1 1 3 4 4 6 2 2 3 5 4 7 0 2 0 4 1
5 0 0 0 2 1 3 1 1 3 5 4 8 2 3 3 10 4 14 1 5 1 10 2 13 0 2 0 10 0 17 0 7 0
17 0 22 -1 5 -1 10 -2 11 0 2 -1 3 -2 3 0 1 -2 3 -3 5 -1 3 -5 9 -10 13 -5 7
-8 9 -11 10 -2 1 -5 2 -6 4 -1 1 -4 5 -7 9 -3 3 -8 9 -11 12 -2 3 -5 5 -6 5
-1 0 -1 0 -1 1 0 0 -1 1 -2 2 -1 0 -3 1 -4 2 -2 1 -4 3 -6 4 -2 1 -5 3 -8 4
-2 2 -6 4 -8 4 -2 0 -7 2 -10 2 -4 1 -10 2 -14 2 -4 0 -11 -1 -15 -2 -5 -1
-15 -4 -21 -6 -6 -2 -14 -5 -18 -7 -4 -1 -7 -3 -7 -3 -1 0 -4 -1 -7 -3 -3 -1
-8 -4 -10 -6 -3 -2 -5 -3 -6 -3 0 0 -1 0 -1 -1 0 -1 -1 -1 -1 -1 -1 0 -2 0 -2
-1 0 0 -1 -1 -2 -2 -1 0 -3 -1 -3 -1 0 0 -4 -3 -7 -5 -4 -3 -7 -5 -7 -5 -1 0
-3 -2 -6 -5 -3 -2 -8 -7 -11 -10 l-6 -6 -24 0 c-14 0 -24 1 -25 1 0 1 -2 1 -4
1 -1 -1 -9 -1 -16 -1 -9 -1 -14 0 -15 0 0 1 -2 1 -6 0 -4 0 -9 0 -12 0 -4 0
-8 0 -9 0 -1 0 -4 0 -5 0 -2 0 -9 0 -16 0 -7 0 -16 0 -20 0 -5 0 -10 0 -12 0
-2 0 -13 0 -25 0 -13 0 -31 0 -42 0 -18 0 -19 0 -20 2 0 1 -1 2 -2 1 -1 0 -2
-1 -2 -2 -1 -1 -11 -1 -58 0 -31 0 -74 0 -95 0 l-39 0 1 8 c0 5 0 14 1 20 0
12 0 13 -1 15 -2 1 -4 2 -6 2 -2 1 -4 0 -5 -1 -1 -1 -2 -3 -2 -5 0 -2 -1 -7
-2 -10 -1 -3 -2 -7 -3 -9 0 -2 -1 -4 -1 -5 -1 -1 -1 -2 -1 -3 1 0 2 0 3 1 0 1
2 3 2 4 1 1 1 2 2 2 0 0 0 -4 -1 -8 -1 -4 -1 -8 -2 -9 0 -2 -2 -2 -18 -2 -10
0 -43 0 -72 0 -29 0 -64 0 -76 0 -12 1 -38 1 -58 1 -20 0 -45 0 -56 0 -11 0
-68 0 -125 1 -58 0 -106 0 -107 0 -1 0 -8 0 -16 0 l-14 0 -1 5 c-1 2 -1 8 0
12 1 6 1 10 0 16 -1 4 -1 8 -2 9 -1 1 -3 2 -6 2 -4 1 -5 1 -6 -1 -2 -2 -2 -3
-2 -10 1 -5 1 -14 1 -20 0 -7 0 -13 -1 -13 0 -1 -2 -1 -5 0 -3 0 -38 0 -77 0
-40 0 -72 0 -73 0 -1 -1 -2 -1 -2 0 -1 0 -15 1 -30 1 -16 0 -33 0 -36 0 -4 0
-12 0 -17 0 -6 -1 -11 0 -12 0 0 1 -4 1 -7 0 -4 -1 -7 -1 -7 0 0 1 -1 1 -3 1
-1 0 -2 0 -2 1 0 1 -1 1 -2 1 -2 0 -3 0 -3 -1 0 -1 -1 -1 -3 -1 -1 0 -3 1 -4
1 0 1 -3 1 -6 1 -2 0 -5 0 -6 1 -1 0 -1 2 -1 3 0 1 -1 1 -2 1 -1 0 -2 1 -2 2
0 2 0 4 0 5 0 1 0 23 0 48 1 24 1 48 2 52 0 5 1 9 0 11 0 3 -1 16 0 31 0 15 0
29 1 31 0 4 0 5 -1 5 -1 0 -1 0 -1 1 1 0 1 13 1 27 1 15 1 53 2 85 0 31 0 61
0 66 1 4 1 8 1 9 1 1 1 1 2 1 0 -1 5 -1 10 -2 7 0 9 0 10 1 0 1 2 4 2 8 2 5 2
7 1 8 -1 0 -2 1 -3 1 -1 0 -5 -1 -10 -2 -4 -1 -8 -2 -9 -2 -2 1 -3 2 -3 6 -1
3 -1 6 -1 7 1 1 1 14 2 30 0 16 0 31 0 34 0 2 0 6 0 9 0 3 0 19 1 36 0 16 0
47 0 68 1 21 1 39 1 39 0 0 0 22 1 49 0 26 0 51 0 55 0 3 0 9 0 12 0 2 0 24 0
48 1 38 1 44 3 46 1 1 2 2 6 1 2 0 5 -1 6 -1 0 -1 1 -1 2 0 1 0 3 2 4 4 l2 4
-3 3 c-2 2 -3 2 -9 2 -4 0 -7 0 -8 1 -1 0 -2 2 -1 11 0 6 0 25 0 42 0 18 1 32
1 32 1 1 1 1 0 2 0 1 -1 7 0 18 0 8 0 30 1 47 0 17 0 34 0 38 0 3 0 11 0 19 0
7 0 18 0 26 0 7 0 13 -1 14 0 1 1 2 1 3 1 1 1 2 1 4 0 2 0 6 0 10 1 4 1 12 1
18 0 6 0 18 0 28 1 15 1 17 -1 20 -1 1 -2 3 -2 3 -1 1 -2 1 -4 1z m1443 -1132
c4 0 8 0 10 0 2 -1 5 -1 7 -1 2 -1 7 -3 11 -5 5 -3 11 -6 15 -9 3 -2 9 -7 11
-9 3 -3 6 -7 7 -8 0 -2 1 -3 2 -3 0 0 1 -1 1 -2 1 -1 1 -3 1 -4 0 0 1 -1 3 -2
2 -1 3 -3 4 -4 0 -1 1 -4 3 -5 1 -2 2 -4 2 -5 0 0 0 -2 1 -3 l1 -3 3 3 c1 1 2
3 2 3 0 1 1 1 1 1 1 0 3 -2 5 -4 2 -1 3 -4 3 -4 0 -1 1 -2 2 -4 2 -2 2 -5 3
-14 1 -6 1 -15 1 -20 1 -5 0 -11 0 -16 -1 -3 -2 -8 -1 -11 0 -3 0 -5 -2 -11
-2 -3 -5 -9 -6 -12 -2 -4 -5 -9 -6 -13 -1 -4 -4 -9 -6 -12 -2 -3 -4 -5 -5 -5
0 0 -3 -2 -5 -4 -2 -3 -5 -6 -6 -7 -2 -1 -5 -4 -8 -7 -2 -2 -7 -5 -9 -6 -2 -2
-6 -4 -8 -6 -3 -2 -9 -5 -15 -8 -6 -3 -11 -6 -11 -7 -1 0 -5 -2 -8 -2 -4 -1
-11 -2 -16 -2 -6 -1 -10 -1 -14 0 -2 1 -5 2 -5 2 0 0 -5 1 -10 2 -6 1 -11 3
-12 3 -1 1 -5 1 -8 2 -4 0 -9 0 -11 1 -3 1 -8 2 -13 3 -5 1 -10 3 -12 4 -2 2
-6 4 -8 5 -3 2 -6 4 -6 4 -1 1 -2 1 -3 1 -1 0 -3 1 -4 3 -2 2 -5 4 -7 6 -2 1
-5 4 -6 5 -1 2 -4 5 -5 6 -1 1 -3 4 -4 7 -1 2 -2 4 -2 5 -1 0 -1 2 -1 4 -1 2
-1 4 -1 5 0 1 -1 2 -1 3 0 0 -1 5 -2 10 -1 5 -2 11 -3 14 0 2 0 4 0 5 0 1 1 2
1 2 1 0 1 2 1 5 0 2 0 4 0 5 0 1 0 1 1 1 0 -1 2 1 2 4 1 3 2 6 2 8 0 2 1 4 2
6 1 2 2 5 2 6 0 1 0 3 1 5 0 1 1 2 2 3 1 0 2 1 2 2 0 1 1 3 2 5 0 2 2 5 3 7 1
2 2 4 3 5 2 2 3 2 47 1 25 0 46 0 48 0 1 0 7 0 13 0 10 0 12 0 14 2 1 1 2 3 2
4 0 2 0 3 -1 3 0 0 -2 1 -3 3 l-3 2 -35 0 c-20 -1 -37 -1 -39 -1 -2 -1 -10 -2
-17 -2 -8 -1 -14 -1 -14 -1 -1 0 1 2 4 5 2 2 9 7 14 11 5 4 13 9 18 12 4 3 13
8 19 11 6 3 14 7 17 8 2 0 5 2 5 2 1 1 2 1 4 1 1 0 3 1 4 1 1 1 5 2 9 3 3 0 7
1 7 1 0 -1 2 0 4 1 2 0 6 1 10 0z M2112 513 c0 0 -1 0 -2 -1 -2 0 -3 -1 -4 -1
0 -1 -1 -3 -1 -4 0 -2 0 -3 1 -3 0 -1 1 -3 2 -6 1 -2 2 -6 2 -7 1 -2 2 -5 3
-7 0 -1 1 -4 1 -4 0 -1 0 -2 1 -2 0 0 1 -1 2 -2 0 -2 -1 -4 -6 -10 -3 -4 -7
-10 -9 -13 -3 -4 -5 -7 -6 -7 0 -1 -1 -2 -1 -3 0 0 -1 -2 -1 -3 -1 -1 -1 -2 1
-4 1 -2 3 -3 6 -3 3 -1 4 0 5 1 1 1 2 3 2 4 0 2 1 4 2 5 1 1 2 3 3 3 0 1 1 2
1 2 0 1 2 4 4 6 3 3 5 5 5 5 1 0 3 -4 5 -10 2 -5 4 -11 5 -13 1 -3 3 -6 5 -7
2 -2 4 -3 6 -3 3 0 4 1 5 4 1 1 2 4 2 5 0 0 -1 3 -2 4 -1 2 -3 6 -4 8 -2 2 -3
5 -4 7 0 1 -1 5 -3 8 -1 3 -2 7 -2 8 0 2 1 4 2 5 1 1 2 2 3 2 0 0 1 1 2 2 0 1
1 2 1 2 1 0 3 2 6 5 2 2 5 6 7 8 1 2 2 5 2 6 0 1 -1 3 -3 5 -2 3 -3 3 -6 2 -1
0 -3 -1 -4 -2 -1 -1 -5 -6 -9 -10 -5 -5 -8 -8 -9 -8 0 1 0 1 0 1 1 0 0 1 0 2
-1 1 -2 3 -2 4 0 1 -1 4 -2 6 -1 3 -3 6 -4 7 -2 1 -4 3 -5 4 -1 1 -3 2 -3 2z
M581 1733 c-9 0 -18 -1 -20 -1 -3 0 -6 -2 -9 -2 -2 -1 -6 -3 -7 -5 -2 -2 -3
-3 -4 -3 -1 0 -1 0 -1 -1 0 -1 -1 -2 -3 -4 -1 -2 -4 -6 -6 -10 -2 -4 -5 -8 -5
-9 -1 -1 -3 -5 -4 -9 -2 -4 -5 -12 -7 -18 -2 -6 -4 -11 -4 -12 -1 -1 -2 -5 -2
-8 -1 -4 -2 -11 -3 -16 -1 -5 -1 -16 -1 -23 0 -7 0 -14 0 -14 1 0 1 -4 1 -8 1
-4 2 -13 4 -19 2 -7 5 -15 6 -17 1 -3 2 -7 3 -9 1 -2 3 -4 3 -5 1 -1 2 -2 2
-2 0 -1 1 -2 2 -3 1 -2 4 -5 6 -7 2 -2 5 -5 6 -7 1 -1 3 -2 4 -2 0 0 2 -1 3
-1 1 -1 4 -2 5 -3 1 -1 4 -2 5 -2 2 0 4 0 5 -1 1 0 6 -2 12 -3 8 -2 12 -2 19
-1 5 0 12 1 17 2 4 0 9 2 11 2 2 1 4 2 5 3 1 0 3 1 4 1 2 1 4 2 5 3 1 1 2 2 2
2 1 0 3 1 4 3 2 2 4 5 6 7 1 3 4 6 5 7 2 2 6 8 9 14 4 6 8 14 9 17 2 4 3 7 2
8 0 1 1 3 2 4 1 1 3 4 3 7 1 3 2 9 2 13 0 4 0 17 0 29 -1 12 -1 23 -2 25 0 1
-1 9 -3 16 -2 7 -4 15 -4 17 -1 2 -2 5 -4 7 -1 2 -2 5 -2 6 -1 1 -2 4 -4 6 -1
1 -5 5 -8 9 -4 3 -7 6 -8 6 -1 0 -3 1 -6 2 -3 2 -8 4 -15 5 -6 0 -11 1 -12 1
-2 0 -5 1 -7 1 -4 1 -11 2 -21 2z m-2 -11 l16 0 0 -3 c0 -1 1 -3 1 -4 1 0 2
-1 3 -1 1 0 3 1 3 2 1 1 2 2 4 1 1 0 2 -1 2 -1 -1 -1 0 -2 2 -1 1 0 3 1 4 2 1
2 2 2 9 0 4 -1 9 -3 11 -5 2 -1 6 -5 9 -8 3 -3 6 -8 7 -10 1 -3 3 -5 4 -6 0
-1 1 -2 1 -3 0 -1 0 -2 1 -2 0 -1 1 -2 2 -4 0 -2 1 -6 2 -8 1 -3 2 -6 2 -7 0
-2 1 -7 2 -11 0 -5 1 -21 1 -34 1 -20 1 -25 -1 -27 0 -1 -1 -4 -1 -5 0 -1 -1
-3 -2 -4 0 -2 -1 -3 -1 -4 0 -1 -2 -4 -3 -8 -2 -3 -5 -8 -6 -12 -2 -3 -6 -8
-9 -12 -2 -4 -6 -8 -7 -11 -1 -2 -4 -5 -6 -6 -2 -2 -6 -4 -10 -6 -4 -1 -9 -3
-11 -4 -4 -1 -10 -1 -18 -1 -7 0 -14 0 -15 0 -2 1 -5 1 -7 2 -2 0 -6 1 -8 2
-2 1 -4 2 -5 2 0 0 -1 0 -1 1 0 0 -1 1 -3 2 -1 0 -3 1 -4 1 0 0 -2 1 -4 3 -1
1 -3 4 -5 6 -1 2 -3 4 -3 4 0 0 -1 1 -2 3 -1 1 -2 4 -3 6 -1 2 -4 8 -6 13 -2
5 -4 10 -5 11 0 0 -1 1 -1 2 0 1 -1 2 -2 3 -1 2 -1 2 0 2 2 0 2 1 2 2 -1 1 -2
9 -3 17 0 7 -1 14 -1 16 0 1 0 5 0 10 1 4 1 10 2 14 0 3 1 7 1 9 0 2 1 4 1 4
1 0 2 3 2 6 1 3 3 8 4 10 1 3 2 5 2 6 0 0 1 2 2 4 1 2 3 8 6 13 2 5 6 11 8 14
2 2 3 4 3 5 0 0 1 1 1 1 1 1 4 3 6 4 3 2 6 4 8 4 1 0 10 1 19 1z M573 1683
c-1 0 -4 0 -6 0 -2 0 -5 -1 -6 -1 0 -1 -1 -2 -1 -4 0 -2 1 -3 4 -5 2 -2 3 -4
3 -5 -1 0 -1 -2 0 -4 0 -2 1 -4 4 -5 1 -1 3 -3 3 -4 0 0 3 -4 6 -7 3 -4 7 -8
8 -9 1 -1 2 -3 3 -4 1 0 2 -3 4 -5 1 -3 3 -5 4 -6 0 -1 2 -3 3 -4 2 -2 3 -3 3
-4 0 0 -1 -2 -2 -5 -1 -3 -2 -8 -3 -11 -1 -4 -2 -8 -3 -10 l-2 -3 -10 1 c-5 0
-11 0 -12 0 -2 0 -4 -1 -6 -3 -2 -1 -4 -4 -5 -6 -1 -3 -1 -6 -1 -13 0 -6 0
-10 1 -11 0 0 1 -2 2 -3 0 -1 1 -3 1 -3 0 0 2 -2 3 -4 1 -2 4 -4 6 -6 3 -2 5
-3 10 -3 5 0 6 0 8 3 2 2 3 4 4 8 0 3 2 8 4 12 2 4 4 9 4 10 1 2 2 3 6 3 2 1
8 1 13 0 7 0 8 0 10 2 l3 2 -2 6 c-2 5 -3 6 -4 6 -2 0 -5 0 -7 -1 -3 -1 -6 -2
-7 -2 -1 0 -2 0 -2 1 -1 0 1 3 3 7 1 3 3 6 3 6 0 1 1 3 2 5 2 2 3 6 4 9 1 3 3
7 4 10 1 2 2 5 2 6 0 1 1 2 1 4 1 1 2 3 2 5 0 2 3 7 8 16 6 9 8 14 8 17 0 1
-1 4 -2 6 -1 3 -2 4 -3 3 -2 0 -4 -1 -5 -2 -1 -1 -3 -3 -4 -5 -1 -3 -4 -8 -7
-12 -3 -4 -6 -8 -6 -9 0 0 -1 -1 -1 -2 -1 0 -3 -4 -5 -7 -1 -4 -3 -8 -4 -8 -2
-1 -3 -1 -4 1 -1 1 -4 4 -5 7 -2 3 -7 11 -12 17 -5 6 -11 14 -14 17 -2 2 -5 5
-6 6z m7 -109 c2 0 4 0 6 0 1 -1 1 -1 1 -3 0 -1 -1 -4 -2 -7 -1 -3 -2 -7 -3
-8 -1 -2 -2 -3 -2 -3 0 0 -2 2 -3 5 -1 3 -2 7 -2 9 0 2 0 5 1 6 1 2 2 2 4 1z
M468 1585 c-1 0 -2 0 -3 -1 0 0 -1 -1 -1 -2 0 -1 -1 -2 -1 -3 -1 0 -2 -1 -2
-1 -1 0 -1 0 0 1 0 1 0 1 -2 0 -1 0 -4 -1 -6 -2 -1 -2 -8 -7 -14 -12 -6 -6
-12 -12 -15 -14 -2 -3 -5 -5 -6 -6 -1 -1 -3 -2 -4 -4 0 -2 -2 -4 -4 -6 -2 -2
-3 -4 -3 -4 0 -1 0 -2 -1 -2 -1 -1 -3 -4 -6 -8 -3 -4 -6 -7 -6 -8 -1 -1 -2 -2
-2 -3 0 0 -2 -3 -4 -6 -2 -2 -4 -5 -5 -6 0 -1 -1 -2 -1 -2 0 -1 -4 -5 -9 -11
-6 -6 -10 -11 -10 -11 0 -1 -2 -4 -4 -6 -2 -3 -5 -7 -8 -11 -2 -3 -4 -6 -4 -7
0 -1 -1 -1 -1 -1 -1 0 -2 -1 -3 -3 0 -2 0 -5 0 -7 0 -2 1 -3 2 -3 0 0 1 0 2 1
0 1 1 1 1 1 1 0 3 0 6 1 2 2 4 3 5 5 0 2 3 6 4 9 2 4 4 7 4 8 0 1 1 2 1 2 1 0
3 2 4 3 2 2 3 4 3 5 0 1 1 3 2 4 1 1 2 2 3 2 0 0 1 0 1 1 0 1 0 1 1 1 0 -1 2
1 4 3 2 2 3 5 3 6 0 2 1 3 2 4 1 0 2 2 2 3 1 2 2 3 2 2 1 0 2 1 3 3 0 2 1 4 2
4 1 0 3 0 3 2 1 1 2 3 2 4 0 2 0 3 1 3 1 0 1 -1 0 -1 0 -1 0 -1 1 -1 0 1 1 3
2 5 1 4 2 5 4 5 1 0 2 1 2 4 1 2 2 3 2 3 1 -1 3 1 5 4 2 2 7 7 10 10 4 4 9 8
12 11 3 2 6 5 8 6 1 1 6 5 10 8 6 4 9 7 9 8 1 2 1 4 0 6 -1 2 -3 4 -3 4z M110
1526 c-2 0 -3 -2 -4 -3 -1 -2 -2 -4 -2 -6 0 -2 -1 -5 -1 -7 -1 -3 -1 -11 -1
-20 -1 -9 -1 -17 -1 -19 -1 -2 -1 -4 -2 -4 0 -1 -2 -5 -2 -9 -1 -4 -2 -7 -2
-8 -1 0 -1 0 -1 0 0 0 -2 2 -3 4 -2 2 -5 5 -9 7 -4 2 -9 3 -12 3 -3 1 -6 1 -7
0 0 -1 -1 -1 -2 -1 -1 0 -3 -2 -5 -4 -2 -1 -5 -3 -5 -3 0 0 -2 -2 -4 -4 -2 -2
-5 -6 -6 -8 -1 -3 -2 -6 -2 -7 0 -1 -1 -5 -2 -7 -1 -3 -1 -6 -1 -9 1 -3 2 -6
3 -9 1 -2 2 -5 3 -6 2 -2 3 -4 4 -5 0 -1 1 -2 2 -3 0 0 2 -2 5 -4 4 -4 5 -4
10 -4 3 0 6 1 10 3 2 1 6 3 9 4 2 1 5 4 7 6 2 3 5 6 5 7 1 2 2 3 2 3 1 0 1 -1
1 -2 0 0 1 -3 3 -6 1 -3 4 -7 6 -9 1 -1 5 -4 7 -5 4 -1 6 -2 9 -2 2 1 4 1 5 2
1 0 2 1 4 2 1 1 2 3 2 4 0 0 -1 3 -3 4 -3 3 -4 4 -7 4 -1 0 -3 0 -3 -1 0 -1
-1 -1 -1 -1 -1 0 -3 1 -5 3 -1 1 -3 4 -4 5 0 1 -2 5 -3 7 -1 3 -2 6 -3 8 0 2
1 8 1 13 1 5 3 13 4 18 2 5 3 11 4 15 1 3 1 10 2 17 0 6 0 13 0 15 1 2 1 7 2
11 0 5 0 6 -2 8 -2 2 -4 3 -5 3z m-39 -75 c2 -1 6 -2 7 -3 2 -1 5 -2 6 -3 1
-1 2 -3 2 -4 0 -1 0 -2 -1 -3 -1 0 -1 -3 -2 -5 0 -4 0 -5 3 -6 3 -2 3 -2 1 -5
0 -1 -2 -4 -2 -5 -1 -1 -3 -3 -4 -4 -1 -1 -4 -4 -6 -5 -3 -2 -7 -4 -8 -5 -1 0
-3 -1 -5 -1 -2 0 -4 1 -7 5 -3 3 -5 6 -5 6 0 1 -1 3 -2 6 -1 2 -2 4 -2 5 1 1
1 2 2 3 0 0 1 2 2 4 0 2 0 3 0 4 0 0 0 1 0 3 0 1 1 4 2 5 1 1 2 2 3 2 1 -1 3
0 5 1 1 2 3 3 4 3 1 0 2 0 3 1 0 1 2 1 4 1z M554 1505 c-4 1 -8 1 -8 1 0 -1
-6 -1 -13 -1 -7 -1 -14 -2 -17 -3 -2 0 -5 -2 -6 -3 -1 -1 -3 -3 -4 -4 0 -2 -1
-3 0 -3 0 -1 -1 -1 -3 -2 -1 0 -4 -1 -6 -1 -3 -1 -6 -3 -10 -7 -3 -3 -6 -7 -7
-9 -1 -2 -3 -7 -5 -11 -2 -4 -5 -9 -5 -11 -1 -2 -3 -6 -4 -9 -1 -3 -3 -9 -5
-14 -2 -5 -4 -13 -5 -17 -1 -5 -3 -10 -4 -11 0 -2 -1 -4 -2 -6 0 -3 -1 -8 -3
-11 -1 -4 -2 -10 -3 -14 -1 -4 -2 -8 -2 -10 -1 -1 -2 -5 -2 -9 -1 -3 -1 -7 -2
-8 0 -2 0 -4 -1 -5 0 -1 -1 -4 -2 -8 0 -4 -1 -9 -2 -12 0 -3 -1 -12 -2 -21 -1
-9 -2 -20 -2 -25 -1 -5 -2 -15 -3 -22 0 -7 -1 -14 -1 -15 -1 -2 -2 -13 -4 -24
-1 -11 -3 -29 -3 -39 -1 -10 -1 -22 -2 -26 0 -5 0 -23 0 -41 -1 -18 0 -38 0
-43 1 -5 1 -11 1 -13 1 -3 2 -13 2 -22 1 -10 3 -21 4 -25 0 -4 1 -8 1 -9 1 -1
1 -6 2 -10 1 -5 2 -14 4 -20 1 -7 3 -16 4 -19 1 -4 2 -10 3 -13 1 -4 3 -8 4
-10 0 -1 1 -3 1 -3 0 -1 1 -3 2 -6 1 -2 4 -7 5 -11 2 -4 5 -9 7 -11 2 -3 3 -5
3 -6 0 0 3 -4 6 -7 3 -4 8 -9 11 -10 2 -2 5 -5 6 -6 1 -1 3 -2 4 -2 1 0 4 -2
8 -4 6 -4 7 -4 12 -4 4 0 8 0 9 0 1 1 3 1 4 1 1 1 3 1 6 1 2 1 5 1 6 1 2 1 4
1 5 1 1 1 5 2 9 3 4 1 9 2 11 3 2 1 7 5 10 7 3 3 6 7 7 9 0 1 3 7 5 14 3 6 6
14 8 19 2 5 3 10 3 11 0 2 1 3 1 3 1 0 1 1 2 3 0 2 1 7 3 11 1 4 2 8 2 8 -1 0
0 2 1 4 1 2 1 4 0 7 0 2 0 4 1 4 0 0 1 0 1 0 1 0 1 1 0 2 -1 1 -1 1 0 2 0 0 1
2 2 4 1 3 2 4 1 4 -1 0 -1 0 0 1 0 0 2 6 3 14 1 7 3 18 3 23 1 6 1 10 1 11 -1
0 0 1 0 2 1 1 2 3 2 4 1 2 2 8 2 14 1 6 2 13 2 16 1 3 2 13 2 22 1 9 2 21 3
28 1 6 1 11 2 13 0 1 0 5 1 10 0 5 2 14 2 21 1 8 2 22 2 34 0 11 0 29 1 39 0
9 1 20 0 23 0 2 0 18 0 33 -1 22 -1 30 -2 30 -1 1 -1 1 0 3 0 1 1 6 1 12 0 6
0 22 0 35 0 14 0 25 0 25 -1 0 -1 2 -1 3 1 2 0 8 -1 13 0 5 -1 12 -2 16 0 3
-2 10 -3 15 -1 4 -4 13 -6 19 -2 6 -6 13 -8 16 -2 4 -4 8 -6 10 -1 1 -6 7 -12
11 -5 5 -11 10 -13 11 -1 1 -5 3 -7 4 -3 0 -5 1 -6 1 -1 1 -5 1 -9 1z m-5 -12
c2 0 6 0 7 0 1 0 4 -1 7 -2 2 -2 4 -3 4 -3 0 0 1 -1 2 -1 1 -1 5 -3 8 -6 4 -2
9 -7 11 -9 3 -3 6 -6 6 -7 1 -1 3 -4 6 -8 2 -4 4 -8 4 -8 0 -1 1 -3 1 -4 1 -2
2 -5 3 -7 1 -3 2 -7 3 -9 1 -3 2 -9 2 -14 1 -5 1 -12 2 -14 1 -2 1 -14 2 -26
0 -13 0 -46 0 -74 1 -28 1 -52 1 -53 0 -1 0 -9 -1 -19 0 -10 0 -21 0 -25 -1
-5 -1 -11 -1 -13 0 -2 0 -9 0 -15 0 -6 0 -13 0 -16 -1 -4 -1 -9 -2 -13 0 -4
-1 -12 -2 -20 -1 -7 -2 -15 -2 -17 0 -3 0 -5 -1 -5 0 -1 -1 -3 -1 -6 0 -3 0
-12 -1 -20 0 -9 -1 -16 -1 -17 -1 -1 -1 -5 -1 -8 0 -3 0 -6 -1 -6 -1 -1 -1 -3
-1 -6 0 -3 -1 -9 -2 -14 -1 -5 -2 -12 -3 -15 0 -4 -1 -11 -2 -15 -1 -5 -2 -13
-3 -19 -1 -6 -2 -12 -3 -14 0 -3 -1 -8 -2 -11 -1 -4 -3 -12 -4 -17 -2 -5 -4
-10 -4 -11 -1 -2 -1 -4 -2 -5 -1 -2 -1 -3 -2 -3 0 1 0 3 0 5 0 3 -1 4 -3 4 -1
0 -2 -1 -3 -2 -1 -2 -3 -4 -5 -6 -1 -1 -4 -3 -6 -5 -3 -2 -5 -2 -12 -2 -5 0
-10 0 -14 1 -3 1 -6 3 -8 4 -2 1 -3 4 -4 7 -2 4 -2 5 1 18 1 7 3 14 4 16 1 1
3 3 4 4 1 2 3 3 5 5 1 1 3 2 5 3 3 0 4 0 5 -2 1 -1 1 -5 1 -10 0 -4 0 -9 0
-10 1 -1 2 -3 3 -3 2 0 4 -1 5 0 1 0 2 2 3 4 1 2 2 7 2 10 1 5 1 8 0 10 -1 1
-3 4 -5 6 -2 2 -5 4 -6 5 -2 1 -5 1 -7 1 -2 0 -6 -1 -9 -2 -2 -2 -6 -5 -9 -7
-3 -2 -4 -4 -6 -9 -1 -4 -2 -9 -3 -12 -1 -3 -2 -8 -3 -11 -1 -3 -1 -7 -2 -9 0
-3 1 -6 2 -11 2 -5 3 -8 7 -11 2 -2 5 -4 6 -4 1 0 4 -1 7 -2 4 -2 6 -2 16 -2
8 0 11 0 14 1 2 1 4 3 5 3 1 1 3 3 5 5 1 2 3 4 3 5 -1 0 0 1 1 1 1 1 1 0 0 -2
0 -1 -1 -4 -2 -6 -1 -3 -2 -5 -2 -6 0 -2 -3 -7 -5 -12 -2 -5 -5 -11 -7 -14 -2
-3 -5 -5 -9 -7 -2 -1 -8 -3 -12 -4 -3 -1 -8 -2 -10 -2 -3 -1 -7 -1 -10 -2 -3
0 -7 -1 -9 -1 -2 -1 -4 -1 -5 0 -1 1 -3 3 -6 4 -2 1 -5 3 -7 5 -2 1 -5 4 -8 7
-3 2 -7 6 -10 8 -2 2 -4 5 -4 6 0 1 0 2 -1 2 0 -1 -1 0 -2 2 -2 1 -4 6 -6 10
-2 3 -4 8 -5 10 0 1 -2 6 -4 11 -2 5 -4 10 -5 13 -1 2 -2 4 -2 5 0 0 -1 3 -2
7 0 4 -1 9 -2 13 -1 3 -1 8 -2 10 -1 2 -2 8 -3 15 0 6 -2 15 -3 20 -1 5 -2 13
-3 16 0 4 -1 12 -2 18 -1 7 -1 23 -2 54 0 37 0 48 1 64 1 10 2 21 2 24 0 3 0
8 0 10 0 3 0 6 1 6 1 1 1 4 1 6 0 3 0 10 1 18 1 7 3 15 4 18 0 2 1 11 2 19 1
7 1 16 1 19 1 3 2 14 3 24 1 10 3 22 3 26 1 3 2 9 3 12 0 2 1 7 2 11 1 3 1 6
2 8 0 1 2 6 3 12 1 5 3 12 5 15 1 4 2 9 3 12 0 3 2 7 3 10 1 2 2 6 3 8 1 2 2
6 3 9 1 4 4 11 7 16 2 6 5 10 5 10 0 -1 3 3 5 8 3 4 6 10 9 13 2 2 4 4 5 4 1
0 4 0 7 0 5 0 6 0 7 3 1 2 1 3 0 5 -2 3 -2 3 1 4 1 1 5 1 8 2 3 0 8 0 12 1 4
0 9 1 12 0z M557 1473 c-1 0 -2 -1 -3 -2 -3 -3 -3 -4 -3 -13 0 -5 -1 -14 -1
-21 -1 -6 -2 -11 -2 -12 0 0 -2 0 -5 0 -4 1 -7 1 -12 0 -3 -1 -9 -3 -11 -4 -3
-2 -6 -4 -7 -4 -1 -1 -3 -4 -5 -8 -1 -3 -4 -8 -5 -11 -1 -4 -2 -10 -3 -19 0
-9 0 -14 1 -17 1 -2 2 -6 4 -7 1 -2 4 -4 6 -5 3 -1 6 -2 8 -2 3 0 5 1 6 1 0 1
1 1 2 1 1 0 5 3 9 7 3 3 6 7 6 8 0 0 1 1 2 1 0 0 1 1 1 2 0 1 1 -1 2 -3 1 -2
3 -6 3 -7 1 -2 2 -2 5 -2 1 0 6 0 10 0 3 0 9 1 12 1 2 1 5 2 7 3 1 1 2 3 1 3
0 1 1 2 2 2 1 1 2 2 2 3 0 1 1 3 2 3 0 1 1 3 1 4 0 1 0 3 -1 4 0 1 -2 1 -3 1
-1 -1 -3 -3 -6 -5 -2 -2 -5 -4 -6 -5 -2 -1 -5 -2 -10 -3 -6 0 -7 0 -8 1 -1 1
-1 2 -1 3 0 1 0 2 1 2 1 -1 1 -1 1 0 0 0 -1 3 -2 5 -1 2 -2 5 -2 6 1 1 2 2 2
1 1 0 1 1 1 3 0 1 0 3 1 4 1 0 1 9 1 23 1 12 1 23 2 24 1 2 1 5 1 8 0 3 0 8 1
10 0 2 0 6 0 9 0 3 -1 4 -3 5 -2 1 -4 2 -4 2z m-19 -58 c1 -1 3 -1 5 -1 1 -1
2 -2 3 -3 1 -2 1 -4 0 -10 -1 -6 -2 -10 -4 -14 -2 -4 -5 -9 -7 -11 -1 -3 -3
-5 -3 -6 0 0 -1 -2 -3 -4 -2 -1 -5 -4 -7 -5 -2 -1 -4 -2 -5 -1 -2 0 -4 1 -5 2
-1 1 -1 2 0 2 0 0 1 0 1 1 0 1 0 1 -1 1 0 -1 -1 1 -2 3 0 3 0 9 0 13 1 4 2 10
2 12 1 2 2 6 3 8 1 2 3 4 4 5 1 0 4 2 6 3 3 2 6 3 7 3 1 0 2 0 3 1 0 0 2 1 3
1z M174 1471 c0 0 -1 -1 -3 -1 -1 0 -2 -2 -2 -4 -1 -1 -1 -5 -2 -8 0 -4 -1
-10 -3 -15 -1 -5 -3 -12 -5 -16 -1 -4 -3 -9 -4 -11 -1 -3 -2 -6 -3 -9 0 -2 -1
-5 -3 -7 -2 -2 -3 -5 -3 -6 0 -1 0 -3 1 -3 0 -1 1 -2 4 -2 2 0 5 1 7 3 3 2 4
4 6 12 2 5 3 10 4 13 l1 4 3 -2 c1 -1 3 -3 4 -4 1 0 3 -2 5 -3 2 0 4 -1 6 0
l3 0 0 -6 c0 -4 0 -9 0 -11 1 -4 1 -5 -4 -8 -3 -2 -5 -3 -6 -3 0 0 -1 -1 -2
-2 -1 -1 -2 -3 -2 -3 0 0 -4 -3 -7 -6 -4 -3 -9 -8 -12 -11 -3 -3 -6 -6 -7 -8
0 -1 -1 -5 -2 -8 0 -4 1 -9 2 -13 1 -4 2 -8 4 -10 1 -2 5 -6 9 -9 3 -4 8 -7
11 -7 3 -1 5 -2 6 -2 1 0 2 1 4 2 2 2 3 3 3 5 0 2 0 4 0 5 1 1 2 1 2 0 1 0 1
1 1 2 0 1 1 3 3 5 1 1 2 4 3 6 1 3 2 5 2 6 0 0 1 3 2 7 0 3 0 7 1 10 0 2 0 6
0 8 1 3 0 5 0 5 -1 1 -1 1 0 2 0 0 1 2 0 3 0 2 1 3 1 4 1 0 1 2 1 4 0 3 0 5 2
5 0 1 1 2 2 4 1 1 2 2 3 2 0 -1 4 0 7 2 3 1 5 3 5 4 0 1 1 2 2 2 0 1 2 1 3 1
1 0 4 2 6 3 1 2 4 4 5 4 2 0 4 2 5 3 1 2 1 2 -2 6 -1 2 -3 4 -4 4 -1 0 -3 -1
-5 -2 -2 -1 -7 -5 -11 -7 -3 -3 -9 -6 -13 -8 l-6 -3 1 9 c0 5 0 9 0 11 0 1 1
3 1 6 1 2 3 7 4 12 1 4 2 11 2 15 0 4 -1 6 -2 6 0 0 -1 1 -1 2 -1 1 -2 2 -3 3
-1 0 -3 0 -4 0 -1 -1 -2 -3 -3 -8 0 -3 -1 -8 -2 -10 0 -3 -2 -7 -2 -9 -1 -2
-4 -6 -5 -8 -2 -2 -4 -3 -5 -3 -1 0 -2 2 -3 3 -1 2 -2 6 -2 10 0 4 1 10 2 15
1 8 1 9 0 11 -1 1 -2 2 -2 3 0 1 -1 2 -2 3 -1 1 -2 1 -2 1z m15 -96 c1 -1 1
-4 0 -13 0 -6 -2 -15 -3 -19 -1 -5 -2 -10 -3 -11 -1 -1 -2 -3 -3 -4 0 -1 -1
-2 -1 -3 0 -1 -1 -3 -2 -4 -1 -1 -2 -2 -2 -2 -1 0 -4 3 -8 6 -4 4 -6 7 -7 9
-1 3 -1 6 0 10 1 4 2 8 3 9 1 1 3 2 4 2 1 0 1 1 1 2 -1 1 0 1 1 2 1 0 2 1 2 1
0 1 1 1 3 2 1 1 2 2 2 2 0 1 1 3 3 4 1 1 3 2 4 3 2 1 3 2 4 2 0 0 1 1 1 2 0 1
0 1 1 0z M399 1444 c-1 0 -2 -1 -2 -2 0 -2 1 -3 3 -3 1 0 2 0 2 1 0 0 0 2 -1
2 0 1 -1 2 -2 2z M1001 1407 c-3 1 -6 0 -7 -1 -1 0 -2 -1 -2 -2 0 0 -1 -1 -2
-2 -2 0 -3 -1 -3 -2 -1 0 -1 -8 0 -16 0 -8 0 -15 0 -16 0 -1 0 -5 0 -9 -1 -5
-1 -18 -2 -30 0 -12 0 -31 -1 -43 0 -13 0 -27 -1 -33 0 -7 -1 -19 -2 -28 0 -9
0 -22 -1 -29 0 -7 0 -19 -1 -27 -1 -8 -1 -18 -1 -23 0 -4 0 -8 0 -9 -1 0 -1
-17 -2 -37 0 -19 0 -36 0 -37 0 -1 0 -11 1 -22 0 -12 1 -26 1 -32 0 -6 0 -13
0 -16 -1 -4 -1 -11 1 -26 1 -11 2 -22 3 -23 0 -1 1 -3 2 -4 1 -1 3 -1 4 0 2 1
3 1 3 0 0 -1 1 -2 1 -3 1 0 3 0 6 0 3 0 7 1 10 1 3 1 6 3 7 3 1 2 1 2 3 0 3
-1 3 -1 7 0 2 1 4 2 5 2 0 -1 1 0 1 0 1 1 1 1 2 0 0 0 1 -1 2 -1 0 0 1 0 1 1
0 1 1 1 2 1 1 0 2 0 3 -1 0 -1 4 -1 10 0 9 2 9 2 11 0 l2 -2 1 2 c0 2 1 2 2 1
1 -1 3 -1 3 0 1 0 3 0 3 -1 1 -1 3 -1 5 -1 2 0 4 1 5 1 0 1 3 1 6 1 4 -1 6 -1
7 0 1 1 1 1 2 0 0 0 1 -1 2 -1 1 0 2 0 2 1 0 0 2 0 4 0 3 0 5 0 7 0 1 0 3 0 5
0 3 1 4 0 5 -1 1 0 3 -1 5 -1 2 0 4 1 4 1 1 1 1 1 2 0 1 -1 1 -1 2 0 2 1 2 1
5 0 2 -2 2 -2 3 -1 1 1 1 1 3 0 1 0 5 -1 8 -1 2 -1 17 -1 33 -1 22 0 28 0 30
1 1 1 2 1 3 0 1 0 4 -1 6 -1 3 0 5 0 5 1 1 0 4 0 8 0 5 0 7 0 7 1 0 1 1 1 2 0
1 -1 7 -1 14 -1 6 0 11 1 11 1 0 1 1 1 2 0 1 -1 4 -1 15 -1 8 1 18 1 22 1 4 1
8 0 10 0 1 -1 3 0 5 0 2 1 7 1 11 1 6 0 7 0 10 -3 1 -2 4 -3 5 -3 2 0 4 0 6 1
1 1 8 1 14 1 6 0 11 0 11 0 0 -1 3 -1 6 -1 4 0 13 0 22 0 8 -1 18 -1 22 -1 3
0 8 0 9 0 2 1 4 1 5 0 1 -1 4 -1 7 -1 2 0 5 -1 6 -1 0 -1 5 -1 11 -2 6 0 12 0
13 -1 1 0 9 -1 18 -2 9 -1 21 -3 27 -3 6 -1 13 -2 16 -3 2 0 6 -1 9 -1 3 -1 8
-1 11 -1 3 -1 6 -1 6 -2 1 0 2 -1 3 -1 2 0 4 0 6 0 3 0 4 -1 4 -2 0 -1 1 -1 2
0 1 0 2 0 4 1 1 0 4 -1 6 -2 3 -2 6 -3 6 -2 1 0 2 0 2 -1 1 0 4 -1 6 -1 3 0 6
0 7 1 1 1 3 3 4 6 0 2 2 9 3 15 1 6 1 18 2 26 0 8 0 20 1 27 1 8 1 13 0 14 -1
2 -1 6 -1 9 0 3 0 10 0 15 0 5 0 15 0 21 0 7 0 13 -1 13 0 0 -1 3 -1 7 0 3 0
9 -1 13 -1 4 -2 9 -3 10 -1 2 -1 3 1 8 0 2 1 7 1 10 0 2 -1 9 -3 16 -2 6 -4
14 -4 18 -1 4 -1 15 -1 27 1 11 0 21 0 24 -1 2 -1 9 -1 15 0 6 0 21 1 34 0 13
0 30 0 37 0 7 0 25 0 38 0 13 0 27 -1 31 0 6 0 7 -3 8 -2 1 -9 5 -15 8 -7 3
-13 6 -14 6 -1 0 -4 1 -6 2 -2 2 -7 4 -9 5 -3 1 -7 2 -10 3 -3 0 -6 1 -7 1 0
1 -3 1 -4 2 -2 0 -6 1 -9 1 -3 1 -9 2 -13 2 -5 0 -9 0 -10 1 -1 1 -5 1 -13 -1
-6 0 -13 -1 -17 -1 -5 0 -6 0 -8 -2 -1 -1 -5 -3 -7 -3 -2 -1 -7 -2 -9 -3 -3 0
-9 0 -13 0 -4 0 -9 1 -11 1 -3 1 -11 1 -19 1 -9 0 -23 0 -31 0 -9 0 -25 0 -35
0 -11 1 -28 1 -39 2 -11 0 -25 0 -31 0 -7 1 -16 1 -21 1 -5 1 -13 1 -18 2 -5
0 -9 0 -9 0 -1 1 -5 1 -8 1 -4 1 -9 1 -10 2 -1 0 -7 0 -11 1 -5 1 -14 2 -19 3
-5 0 -12 1 -16 1 -4 1 -9 1 -12 1 -4 1 -12 1 -18 2 -6 0 -14 0 -17 1 -3 0 -7
0 -8 0 -2 0 -5 0 -7 1 -3 0 -8 1 -12 1 -4 1 -11 2 -15 3 -4 0 -8 1 -9 1 -1 -1
-6 0 -12 1 -5 1 -12 2 -15 2 -3 1 -13 1 -22 2 -9 1 -19 1 -22 1z m30 -9 c3 0
7 -1 8 -1 2 -1 4 -2 4 -1 1 0 2 0 3 1 0 0 1 -1 2 -1 0 -1 1 -1 1 0 1 0 3 -1 4
-2 2 -1 3 -1 4 0 1 1 3 1 4 0 1 0 2 -1 3 -2 2 -1 2 -1 3 0 0 1 1 1 7 1 3 -1 7
-1 8 -2 1 -1 1 -1 2 0 1 1 2 1 4 0 1 -1 4 -2 5 -1 1 0 3 0 3 -1 1 -1 1 -1 2 0
0 0 1 1 2 1 0 0 3 -1 5 -2 2 -1 4 -2 5 -2 1 0 2 0 2 1 1 1 2 0 4 -1 2 -1 2 -1
3 0 0 0 1 1 2 1 1 0 2 0 2 -1 0 -1 2 -1 7 0 4 0 8 0 8 -1 1 0 3 -1 6 -1 2 -1
4 -1 4 0 1 1 3 1 6 1 2 0 5 -1 6 -1 0 -1 3 -2 5 -2 1 0 3 0 3 1 0 0 2 1 4 0 3
0 6 -1 8 -2 2 -1 3 -1 4 0 1 1 3 1 5 0 1 -1 5 -1 8 -1 4 -1 7 -1 7 -2 1 -1 2
-1 3 0 0 1 2 1 4 0 2 0 6 -1 8 -1 3 1 5 0 6 0 0 -1 1 -1 3 -1 2 0 3 0 3 -1 1
0 3 -1 5 0 3 0 6 0 7 -1 1 -1 2 -1 2 0 1 1 2 1 4 1 1 -1 4 -1 5 -2 2 -1 4 -1
5 0 1 1 3 1 4 1 1 -1 7 -1 13 -2 5 0 11 0 13 0 1 -1 6 -1 11 -2 8 0 9 0 10 1
0 1 0 1 1 0 1 -1 6 -2 27 -2 14 0 26 0 27 -1 1 0 3 0 5 0 3 0 4 0 4 1 0 1 1 0
4 -1 2 -1 4 -1 6 0 1 1 3 1 4 0 1 0 9 -1 18 0 9 0 17 0 17 -1 0 0 -2 -1 -4 -2
-2 -1 -4 -2 -5 -2 0 0 -1 -1 -1 -1 0 -1 1 -2 4 -2 2 0 6 0 9 1 3 0 8 1 11 1 2
1 6 1 7 2 1 0 8 0 18 -1 11 -1 16 -1 17 0 1 0 2 0 4 -1 1 -1 3 -1 6 0 2 1 4 2
4 2 0 1 0 3 0 4 0 1 -1 3 -2 4 -2 2 -2 2 3 2 3 -1 5 -1 6 -1 1 -1 1 -2 0 -2 0
-1 0 -1 1 0 1 1 3 2 3 2 1 0 2 0 3 0 1 0 2 1 2 2 0 2 1 2 4 2 3 0 6 0 8 -1 1
-1 5 -1 9 -2 4 0 10 0 14 -1 5 -1 9 -1 10 -2 2 0 3 -1 3 -1 0 0 2 -1 4 -2 3
-1 5 -2 5 -2 1 0 5 -1 9 -3 4 -2 9 -4 10 -4 1 -1 4 -3 7 -4 2 -1 4 -3 4 -3 0
0 1 -1 2 -1 1 -1 3 -2 3 -3 2 -2 2 -8 3 -28 0 -14 0 -35 0 -46 0 -11 0 -29 0
-39 -1 -12 -1 -23 0 -31 1 -8 1 -16 1 -18 0 -2 0 -13 0 -23 0 -13 0 -21 1 -24
1 -2 1 -6 2 -8 0 -2 1 -5 2 -7 0 -2 1 -7 2 -12 1 -5 1 -14 1 -20 0 -6 0 -14 1
-18 0 -4 1 -7 1 -7 -1 0 -2 1 -2 3 -1 1 -2 2 -2 2 0 -1 1 -3 2 -5 1 -2 2 -6 3
-9 0 -3 0 -10 1 -15 0 -6 0 -15 0 -21 0 -6 0 -17 0 -24 -1 -7 -2 -16 -2 -20
-1 -4 -1 -12 -2 -19 -1 -7 -1 -13 -2 -14 0 -1 0 -2 0 -2 -1 -1 -1 -3 -1 -5 -1
-3 -2 -5 -3 -6 -1 -1 -2 -2 -3 -2 0 1 -1 1 -1 0 -1 -1 -2 -1 -3 -1 -2 0 -3 0
-3 1 0 0 -5 0 -11 1 -5 0 -11 1 -13 1 -2 1 -8 2 -13 3 -5 0 -11 1 -12 2 -1 0
-5 0 -9 1 -4 0 -9 0 -11 0 -2 0 -6 1 -7 1 -1 1 -5 2 -8 2 -3 1 -8 1 -11 2 -3
0 -7 0 -9 0 -1 1 -3 1 -4 1 0 1 -3 1 -6 1 -3 -1 -8 0 -11 0 -4 1 -10 2 -14 2
-3 1 -18 1 -32 2 -18 0 -25 0 -26 1 -1 1 -1 1 -3 0 -1 -1 -3 -1 -4 -1 0 1 -5
1 -10 2 -5 1 -10 1 -11 1 -2 1 -5 1 -6 2 -2 0 -4 1 -6 2 -1 0 -4 0 -9 -1 -4 0
-16 -1 -26 -2 -10 -1 -32 -1 -49 -2 -18 0 -40 0 -51 0 -11 -1 -29 -1 -40 -1
-11 0 -30 0 -42 1 -13 1 -27 1 -33 1 -6 0 -17 0 -25 0 -9 0 -27 0 -40 -1 -15
0 -29 -1 -35 -2 -5 0 -10 -1 -10 -2 -1 0 -3 0 -5 -1 -3 0 -3 0 -3 5 -1 2 -2
11 -3 20 -1 9 -1 21 -1 30 0 7 0 21 -1 31 -1 9 -1 31 -1 50 0 18 0 34 0 37 1
2 1 9 1 17 0 7 1 18 1 24 1 7 1 22 2 34 0 12 1 27 1 34 0 7 0 13 0 13 1 0 1 2
1 4 0 3 0 12 1 22 1 10 1 21 1 26 0 4 0 19 0 33 1 14 1 29 2 33 1 5 1 14 1 21
l0 13 3 -1 c2 0 3 0 4 2 0 1 1 1 1 1 0 0 5 0 10 1 4 0 9 0 9 0 1 0 1 1 2 1 0
1 3 1 5 1z M1076 1367 c-1 0 -3 -2 -5 -4 -3 -3 -6 -5 -7 -6 -2 0 -3 -1 -3 -1
0 -1 -1 -2 -2 -4 -2 -1 -3 -3 -4 -3 0 -1 -6 -7 -14 -14 -7 -7 -14 -14 -15 -16
-1 -2 -2 -4 -2 -5 0 -1 0 -1 1 -1 1 0 2 1 4 3 1 2 3 3 4 3 0 0 2 1 3 3 1 1 5
5 9 9 4 3 8 6 8 7 0 0 0 1 1 1 1 0 3 2 6 5 3 3 6 5 7 5 0 0 2 1 3 3 1 1 3 2 4
2 0 0 1 0 1 1 0 1 1 1 2 1 1 0 3 1 4 3 1 2 2 4 2 4 0 1 -1 2 -3 2 -2 1 -4 2
-4 2z M1186 1360 c0 0 -1 0 -2 -1 -1 0 -2 -1 -3 -2 0 -1 -1 -2 -3 -2 -1 0 -4
-1 -5 -2 -1 0 -2 -2 -2 -2 0 -1 -1 -2 -2 -3 -1 -1 -4 -5 -6 -7 -2 -3 -7 -7 -9
-10 -3 -2 -9 -9 -13 -14 -5 -5 -12 -13 -15 -16 -4 -4 -7 -8 -7 -8 0 0 -1 -2
-3 -3 -1 -1 -6 -5 -10 -9 -3 -4 -9 -10 -11 -14 -3 -3 -7 -7 -9 -10 -3 -2 -6
-6 -8 -8 -2 -3 -7 -7 -10 -11 -3 -4 -6 -7 -6 -7 0 0 -1 -2 -3 -4 -1 -2 -5 -7
-7 -11 -2 -5 -4 -9 -4 -9 0 -1 2 1 5 4 2 2 4 5 4 5 0 1 3 3 6 7 3 3 7 7 8 9 1
2 6 7 10 11 5 5 8 9 9 10 0 0 6 7 14 15 7 7 14 15 17 17 2 3 5 6 7 7 1 1 4 4
5 5 1 2 11 13 22 24 12 11 21 21 22 21 1 1 2 2 2 2 0 1 1 2 3 4 2 1 4 1 4 1 1
0 3 1 4 2 1 3 1 3 -1 6 -1 2 -2 3 -3 3z M1288 1355 c-1 0 -1 -1 -1 -1 -1 -1
-2 -2 -3 -2 -2 0 -3 -1 -3 -2 0 -2 -2 -4 -3 -5 -2 -2 -4 -5 -6 -7 -1 -2 -3 -4
-3 -4 -1 0 -1 -1 -1 -2 -1 -1 -3 -4 -5 -6 -3 -3 -7 -8 -10 -12 -4 -3 -8 -8
-10 -11 -3 -2 -5 -4 -5 -5 -1 0 -7 -7 -15 -14 -7 -7 -21 -21 -32 -30 -10 -10
-19 -19 -20 -20 0 -1 -1 -2 -1 -2 0 -1 -1 -1 -1 -1 -1 0 -10 -8 -20 -18 -10
-10 -21 -21 -25 -25 -3 -4 -9 -11 -12 -14 -3 -4 -8 -10 -11 -13 -3 -4 -8 -10
-10 -13 -3 -4 -6 -8 -6 -10 -1 -2 -3 -4 -5 -5 -2 -1 -3 -2 -3 -2 0 -1 0 -1 1
-1 0 -1 2 0 3 2 2 1 4 2 4 2 1 0 1 1 1 2 0 0 1 1 1 1 1 0 3 1 4 3 2 1 6 7 11
12 4 4 8 9 9 10 1 1 4 4 6 8 3 3 11 12 17 19 7 6 15 14 17 16 2 3 7 8 12 12 5
4 10 9 11 10 1 1 13 12 25 24 12 12 26 25 31 30 5 5 11 11 14 13 2 3 7 8 11
12 3 3 9 10 12 14 4 3 7 7 7 7 0 1 3 5 8 9 4 5 8 9 8 11 1 1 1 3 1 4 0 2 -1 3
-2 3 0 1 -1 1 -1 1z m-1 -4 c1 0 1 0 1 0 0 -1 0 -1 -1 -1 -1 -1 -1 -1 -1 0 0
1 0 1 1 1z M1369 1312 c-1 0 -2 0 -3 0 -1 0 -2 -1 -2 -2 -1 -1 -2 -2 -4 -3 -2
0 -3 -1 -4 -2 -1 0 -2 -1 -2 -1 0 0 -2 -1 -4 -3 -1 -1 -5 -4 -7 -7 -3 -2 -5
-4 -6 -4 0 0 -3 -3 -6 -5 -3 -2 -9 -8 -14 -13 -4 -4 -9 -8 -9 -8 -1 0 -1 0 -1
-1 0 0 -1 -2 -3 -4 -1 -1 -3 -3 -4 -4 -1 0 -6 -4 -11 -9 -5 -5 -10 -10 -10
-10 -1 -1 -3 -3 -5 -5 -3 -2 -6 -5 -7 -6 -1 -1 -7 -6 -11 -9 -5 -4 -12 -10
-15 -13 -4 -3 -8 -6 -10 -8 -1 -2 -3 -3 -4 -3 0 0 -2 -1 -3 -3 -2 -1 -6 -5 -9
-7 -3 -3 -11 -10 -17 -15 -6 -6 -13 -12 -15 -15 -3 -3 -6 -7 -7 -8 -2 -2 -5
-6 -7 -9 -1 -3 -11 -14 -21 -24 -10 -10 -22 -23 -27 -28 -5 -5 -11 -12 -14
-14 -2 -3 -5 -6 -6 -8 -2 -1 -8 -7 -13 -13 -6 -5 -12 -11 -13 -13 -1 -1 -3 -4
-4 -6 -2 -1 -5 -6 -9 -10 -4 -4 -7 -7 -7 -8 0 0 -2 -3 -4 -5 -2 -2 -5 -6 -6
-8 0 -1 -1 -4 -1 -5 0 -2 1 -3 2 -4 1 -1 2 0 4 2 2 2 3 4 3 5 0 0 0 1 1 1 0 0
2 2 4 5 1 2 3 5 4 6 2 1 4 2 5 3 1 1 2 2 2 3 0 1 1 4 3 5 2 2 4 3 5 3 2 0 2 0
2 3 -1 2 0 3 4 7 2 3 4 6 4 6 0 1 1 1 1 1 1 0 2 1 4 3 1 1 5 5 7 8 3 2 6 6 8
7 1 1 5 6 8 9 4 4 8 8 9 10 2 1 6 5 9 8 3 3 6 7 8 9 1 1 4 3 5 4 1 1 2 2 3 2
0 0 1 1 1 2 1 1 7 7 13 14 7 7 17 16 21 21 5 4 9 8 10 8 0 0 3 1 5 3 2 2 4 4
4 5 0 0 1 1 2 1 0 0 1 0 1 1 0 0 -1 2 -3 3 -2 1 -3 3 -3 4 0 0 6 6 13 12 7 5
14 11 16 13 2 1 4 3 4 3 0 0 2 3 5 5 3 2 7 4 8 6 1 1 3 2 4 2 0 0 1 0 1 1 0 0
3 3 6 6 4 2 7 5 9 7 1 1 5 4 9 7 3 4 9 9 12 11 2 3 9 9 15 14 5 6 11 11 12 12
2 1 3 2 3 3 0 0 1 1 3 2 1 0 2 1 2 1 0 1 2 4 5 6 2 2 6 6 9 8 2 2 6 5 7 7 2 1
5 3 6 4 2 1 5 3 8 6 3 2 5 4 5 4 1 0 1 -1 1 -2 0 -1 1 -1 4 2 2 1 4 3 5 5 1 1
1 2 0 4 -1 0 -2 1 -3 2z M1494 1302 c-1 0 -4 -2 -7 -5 -2 -3 -7 -8 -10 -10 -2
-3 -7 -7 -9 -11 -2 -3 -6 -7 -8 -9 -2 -2 -3 -4 -3 -5 0 0 -1 -1 -1 -1 -1 0 -3
-2 -5 -4 -2 -3 -5 -6 -6 -8 -2 -1 -5 -5 -7 -7 -3 -3 -6 -7 -8 -9 -2 -2 -5 -6
-6 -8 -2 -1 -6 -6 -10 -10 -4 -4 -11 -12 -17 -18 -6 -6 -19 -19 -28 -29 -10
-10 -21 -21 -25 -25 -4 -5 -9 -11 -11 -13 -2 -2 -4 -5 -4 -5 0 0 -2 -3 -4 -5
-3 -3 -5 -7 -6 -8 -2 -1 -4 -4 -5 -5 -2 -2 -3 -3 -3 -4 0 0 -1 -2 -3 -4 -2 -2
-5 -6 -7 -9 -2 -3 -5 -7 -7 -9 -2 -2 -4 -5 -5 -6 -1 -1 -3 -5 -6 -8 -2 -3 -4
-6 -5 -6 -1 -1 -2 -3 -3 -5 -2 -1 -3 -3 -3 -3 0 -1 -4 -5 -10 -11 -5 -5 -12
-13 -15 -17 -4 -4 -8 -9 -9 -10 -2 -2 -3 -3 -3 -4 0 -1 0 -1 1 -1 0 0 2 1 3 2
2 1 7 6 13 11 5 5 10 9 11 10 0 1 2 3 5 6 2 2 8 8 12 13 5 5 11 13 15 18 4 5
7 9 7 9 0 0 4 5 9 12 4 6 11 13 14 17 2 3 7 9 10 13 3 3 6 7 7 8 0 1 5 6 11
12 5 5 20 20 33 34 13 13 27 28 32 34 6 5 10 10 10 11 0 1 1 2 2 2 1 1 4 4 7
7 3 4 8 9 11 12 3 4 8 9 10 12 3 3 5 6 5 6 0 1 1 1 1 1 1 0 3 2 5 5 2 3 5 6 6
6 2 1 3 2 2 2 0 1 1 2 2 3 0 1 2 2 3 2 1 0 3 1 4 3 2 2 5 5 7 7 3 2 4 4 5 7 0
2 0 5 -1 5 -1 1 -2 2 -3 2z M1358 1294 c-1 0 -2 0 -2 -1 -1 -1 0 -1 0 -1 1 0
2 0 3 1 0 1 -1 1 -1 1z M1529 1193 c-1 0 -3 -1 -4 -2 -1 -2 -2 -3 -3 -3 -1 0
-6 -5 -12 -11 -6 -6 -11 -12 -12 -13 -2 -1 -5 -6 -9 -10 -4 -4 -7 -8 -8 -9 -1
-1 -5 -6 -9 -11 -5 -5 -9 -10 -9 -11 -1 0 -4 -4 -7 -7 -4 -4 -9 -9 -11 -12 -2
-3 -6 -7 -9 -10 -2 -2 -5 -6 -7 -8 -2 -2 -5 -6 -7 -8 -3 -3 -5 -6 -5 -6 0 0
-1 -2 -3 -4 -2 -2 -5 -6 -8 -10 -3 -4 -8 -10 -10 -14 -2 -4 -5 -9 -7 -10 -1
-2 -3 -5 -4 -8 -2 -3 -2 -4 0 -4 1 0 2 1 2 2 1 1 4 4 6 7 3 3 6 7 8 9 1 3 4 7
7 10 3 3 6 7 7 9 1 2 3 4 5 6 1 1 4 5 8 9 3 3 8 9 12 13 3 4 7 8 8 9 1 2 4 5
6 6 1 2 5 7 9 11 3 3 8 9 11 12 2 3 7 8 10 10 2 3 7 9 11 13 4 4 7 8 7 9 1 1
3 3 6 6 2 3 8 8 12 12 3 4 7 7 8 6 1 0 2 0 3 1 1 0 3 2 4 4 l3 4 -4 1 c-2 1
-4 2 -5 2z M1526 1179 c-1 0 -1 0 -1 -1 -1 -1 -1 -1 0 -1 1 0 1 0 1 1 0 1 0 1
0 1z M1491 1141 c0 0 -1 0 -1 -1 -1 -1 -1 -1 0 -1 0 0 1 0 2 1 0 1 0 1 -1 1z
M1577 1076 c-1 0 -3 -1 -5 -3 -2 -1 -4 -3 -5 -4 -1 -2 -1 -2 -3 0 -1 1 -2 1
-3 0 -1 0 -1 -2 -1 -3 1 -2 1 -2 3 -1 2 1 2 1 2 0 0 -1 -1 -3 -2 -4 -1 -2 -5
-6 -8 -10 -4 -3 -15 -15 -25 -26 -11 -10 -21 -21 -22 -22 -2 -2 -3 -4 -3 -4 0
-1 1 -1 2 -1 2 0 4 1 5 2 1 1 3 4 6 6 2 1 6 5 9 7 3 3 7 6 9 8 1 2 3 3 4 3 0
0 1 1 1 1 0 1 2 3 4 4 2 2 5 5 7 7 1 2 4 4 5 6 2 1 6 5 9 8 2 3 5 5 6 5 1 0 2
1 2 2 0 1 2 3 4 5 3 2 5 4 5 5 1 1 0 2 0 1 -1 0 -1 1 -2 3 0 1 -1 3 -1 4 -1 0
-2 1 -3 1z M332 1378 c-1 1 -3 0 -4 -1 -2 -1 -2 -2 -1 -5 0 -2 1 -4 1 -5 1 0
3 -1 5 -2 2 0 4 -1 4 -1 0 -1 1 -1 3 0 2 0 3 0 3 -1 1 -1 2 -1 3 -1 1 0 2 0 2
-1 0 0 3 -1 6 -2 3 -1 8 -3 11 -5 2 -1 7 -4 10 -5 4 -2 8 -3 9 -4 1 0 4 -1 5
-2 2 -1 3 -2 4 -2 0 0 1 -1 2 -2 1 0 2 -1 3 -1 2 0 4 0 7 -1 2 -1 4 -3 4 -3 0
0 1 -1 3 -1 2 -1 4 -1 6 1 2 0 4 2 4 3 1 1 0 2 0 3 -1 1 -2 2 -2 3 0 0 -1 1
-2 2 -1 0 -2 0 -3 1 -1 0 -5 1 -9 2 -4 1 -10 3 -13 5 -2 2 -6 4 -9 4 -2 1 -8
4 -13 6 -5 3 -13 7 -17 9 -5 3 -10 4 -14 5 -4 0 -7 1 -8 1z M2238 1231 c-1 0
-1 0 -1 -1 -1 0 -2 -1 -2 0 -1 0 -2 0 -2 -1 -1 -1 0 -1 1 -2 2 -1 3 0 3 1 1 1
1 2 1 3z M29 1057 c-1 0 -1 0 -1 -1 0 -1 0 -1 1 0 1 0 1 0 1 1 0 0 0 0 -1 0z
M1644 940 c0 0 -1 0 -1 -1 -1 0 -2 0 -4 0 -2 0 -3 -1 -3 -2 0 -1 0 -2 1 -3 0
-2 1 -2 4 -1 2 1 4 2 5 3 1 1 1 1 0 2 -1 1 -2 2 -2 2z M2161 877 c-1 0 -2 0
-2 -1 0 -1 1 -1 2 -1 0 0 1 0 1 1 0 1 -1 1 -1 1z M763 573 c-1 0 -1 -2 -1 -4
-1 -2 -1 -4 0 -4 1 -1 1 0 1 3 0 3 0 5 0 5z M1784 558 c0 0 0 0 0 -1 0 -1 0
-1 1 -1 1 0 1 0 1 1 -1 1 -1 1 -2 1z M1499 496 c-7 1 -12 1 -12 0 0 0 -4 0 -8
0 -3 -1 -12 -1 -18 -1 -6 -1 -24 -1 -38 -2 -15 0 -28 0 -29 -1 -2 0 -12 0 -24
-1 -12 0 -23 0 -24 0 -1 -1 -6 -1 -9 -1 -4 -1 -9 -1 -10 -2 -1 0 -7 0 -12 0
-5 -1 -11 -1 -12 -1 -1 -1 -12 -1 -23 -2 -12 0 -24 -1 -26 -1 -3 -1 -10 -2
-14 -2 -5 -1 -11 -1 -13 -2 -2 0 -5 0 -7 -1 -3 0 -7 0 -11 -1 -3 0 -7 0 -7 -1
-1 0 -4 0 -7 -1 -4 0 -9 -1 -13 -1 -3 -1 -7 -1 -9 -2 -1 -1 -4 -1 -7 -1 -2 0
-6 0 -9 -1 -2 0 -7 -1 -11 -2 -4 0 -9 -1 -12 -1 -4 -1 -12 -1 -18 -1 -7 -1
-19 -1 -26 -1 -7 -1 -15 -1 -17 -1 -2 -1 -14 -1 -26 -2 -13 0 -25 0 -27 -1 -3
0 -12 0 -22 -1 -10 -1 -20 -2 -23 -3 -4 -1 -11 -3 -16 -4 -5 -2 -11 -3 -12 -4
-2 -1 -6 -1 -8 -1 -2 -1 -6 -1 -7 -2 -2 0 -6 -2 -8 -2 -3 -1 -7 -2 -9 -3 -2 0
-6 -1 -8 -3 -3 -1 -6 -2 -6 -2 -1 0 -9 -4 -18 -8 -9 -5 -18 -9 -19 -10 -2 -1
-5 -4 -8 -6 -3 -2 -7 -6 -8 -8 -1 -2 -3 -4 -4 -5 0 0 -2 -3 -4 -6 -2 -4 -3 -7
-3 -8 0 0 0 -1 -1 -1 0 0 -2 -3 -4 -6 -1 -3 -3 -8 -4 -11 0 -4 -2 -9 -2 -12
-1 -3 -1 -8 -1 -12 0 -4 1 -9 1 -13 1 -3 4 -10 6 -15 3 -5 6 -11 7 -12 1 -2 5
-6 8 -9 4 -3 7 -7 8 -7 1 -1 4 -3 6 -4 2 -1 4 -2 5 -2 1 -1 3 -1 4 -1 1 0 2 0
3 -1 0 0 2 -1 5 -2 2 -1 4 -1 5 -1 0 0 2 -1 3 -1 1 -1 3 -2 5 -2 1 0 2 0 3 -1
0 -1 1 -1 3 -1 2 1 4 0 5 -1 1 -1 2 -1 3 0 0 1 1 1 1 0 0 0 1 -1 3 -2 2 0 6
-1 10 -2 4 0 10 -1 14 -1 4 -1 11 -1 15 -2 4 -1 9 -1 12 -1 2 0 7 0 11 0 5 -1
9 -1 9 -2 1 0 2 0 2 1 1 1 1 1 2 0 1 0 3 -1 5 -1 1 0 3 0 4 1 0 1 1 1 2 0 1
-1 4 -2 7 -2 2 0 9 -1 15 -1 6 -1 14 -3 18 -3 6 -1 9 -1 10 0 1 1 1 1 2 0 0 0
5 -1 12 -1 6 0 12 -1 12 -1 0 -1 2 0 4 1 2 0 3 1 4 0 1 0 5 0 9 -1 5 0 15 0
22 0 8 -1 14 -1 15 -1 0 0 1 0 2 0 1 1 2 1 3 0 0 0 5 -1 10 -1 7 -1 11 -1 12
0 1 1 1 1 2 0 1 0 3 -1 6 -2 2 0 11 0 19 0 14 0 17 0 18 2 2 1 2 1 2 0 0 -2 2
-2 21 -1 11 0 25 0 32 1 6 0 13 0 17 0 3 1 9 2 14 2 5 1 10 1 12 1 1 1 7 1 12
2 4 1 13 2 18 3 4 0 12 2 16 3 4 0 10 1 12 2 2 0 9 0 14 1 5 0 13 1 18 1 5 1
11 1 15 2 3 0 10 0 16 1 5 0 13 1 18 2 4 0 12 1 18 2 6 1 13 1 16 2 3 0 7 0 9
1 1 0 5 0 9 1 3 1 8 2 11 3 3 0 5 1 6 1 1 -1 1 -1 1 0 0 0 3 2 8 3 4 1 12 3
19 4 6 1 18 5 28 7 10 2 21 4 25 5 3 1 11 2 16 3 6 0 13 2 15 3 3 2 7 3 10 3
2 1 6 2 9 3 3 1 7 3 9 4 1 0 6 2 9 4 4 2 8 3 8 3 1 0 2 0 3 1 0 0 2 1 4 2 2 1
6 3 8 5 3 2 6 3 6 3 1 0 4 2 7 4 4 3 7 5 8 5 0 1 4 3 8 6 4 3 10 8 12 10 2 3
5 6 7 9 1 2 4 6 6 10 2 4 4 10 5 14 2 6 2 11 2 19 0 9 0 12 -2 19 -2 4 -4 9
-5 12 -1 2 -3 5 -5 7 -1 1 -2 3 -2 4 0 0 -1 2 -3 4 -1 2 -4 4 -5 5 -2 1 -5 2
-7 1 -4 0 -4 0 -5 2 0 1 -1 2 -1 2 -1 0 -2 1 -2 2 -1 1 -3 3 -5 4 -3 1 -8 3
-13 4 -5 1 -13 2 -18 3 -5 1 -12 2 -15 3 -3 1 -7 2 -8 2 -2 1 -8 1 -13 1 -6 1
-12 1 -13 2 -2 0 -5 1 -8 2 -2 1 -6 1 -8 1 -2 -1 -9 0 -15 0 -6 1 -15 1 -18 1
-4 1 -12 1 -17 2 -6 0 -17 0 -24 1 -7 0 -19 0 -25 0z m-3 -8 c1 -1 9 -1 19 -1
10 -1 24 -2 33 -2 9 -1 20 -1 25 -2 5 -1 12 -1 15 -1 4 -1 9 -1 12 -1 4 -1 9
-2 12 -2 3 -1 8 -1 11 -1 3 -1 9 -1 13 -2 3 0 7 -1 8 -2 1 0 2 -1 2 -1 0 0 2
-1 5 -2 3 0 5 0 6 0 0 1 4 0 10 -1 4 0 11 -2 13 -2 3 -1 7 -1 9 -2 2 -1 6 -3
10 -5 3 -2 8 -6 11 -8 2 -2 5 -6 7 -9 2 -3 4 -9 5 -12 1 -3 3 -6 3 -6 1 0 1
-6 1 -12 0 -7 0 -12 -1 -13 0 -1 -1 -4 -2 -6 -1 -2 -2 -6 -3 -8 0 -1 -2 -3 -2
-4 -1 -1 -2 -2 -2 -3 0 0 -1 -2 -2 -4 -2 -1 -3 -3 -3 -3 0 0 -3 -3 -6 -7 -3
-3 -7 -6 -7 -6 -1 0 -4 -2 -6 -4 -3 -2 -6 -4 -6 -4 0 0 -2 -1 -4 -2 -1 -2 -7
-5 -13 -8 -6 -3 -13 -6 -16 -7 -3 -1 -5 -3 -6 -3 0 -1 -1 -1 -2 -1 0 0 -4 -1
-7 -3 -3 -1 -7 -3 -8 -4 -2 0 -4 -1 -6 -1 -2 0 -4 0 -5 -1 -1 0 -5 -2 -8 -3
-4 -1 -10 -3 -13 -3 -3 -1 -7 -1 -9 -1 -3 -1 -6 -1 -9 -1 -2 -1 -10 -2 -17 -4
-7 -2 -14 -4 -16 -4 -3 -1 -7 -1 -10 -2 -3 -1 -6 -2 -6 -2 -1 0 -3 -1 -5 -1
-3 -1 -5 -2 -6 -2 0 -1 -2 -1 -3 -1 -2 0 -5 0 -7 -1 -1 -1 -4 -1 -6 -1 -3 -1
-8 -2 -11 -3 -4 -1 -9 -2 -11 -3 -3 0 -7 0 -10 -1 -3 0 -7 0 -9 -1 -3 0 -7 -1
-9 -2 -3 0 -7 -1 -10 -1 -2 -1 -7 -1 -10 -1 -3 0 -6 0 -7 0 0 -1 -5 -1 -10 -2
-5 0 -16 -1 -23 -2 -7 -1 -16 -1 -19 -2 -4 0 -9 0 -11 -1 -3 0 -7 0 -10 0 -2
0 -6 -1 -9 -1 -3 -1 -9 -2 -12 -3 -4 -1 -10 -2 -12 -2 -2 -1 -11 -2 -20 -3 -9
0 -18 -1 -21 -2 -4 0 -8 0 -10 -1 -2 0 -5 0 -6 -1 -1 0 -10 0 -18 0 -9 -1 -16
-1 -17 -1 0 -1 -15 -1 -33 -1 -21 0 -33 0 -37 1 -4 1 -7 1 -10 0 -3 0 -6 -1
-6 0 -1 0 -3 0 -5 1 -3 0 -14 1 -26 1 -13 1 -27 1 -33 1 -6 0 -21 1 -33 2 -13
0 -27 2 -31 2 -4 1 -10 1 -12 2 -3 0 -9 0 -13 0 -4 1 -14 1 -23 2 -9 0 -18 1
-21 2 -3 1 -10 1 -14 1 -5 0 -11 0 -12 1 -1 0 -7 2 -12 3 -5 1 -11 2 -12 3 -1
0 -7 2 -13 4 -6 2 -11 4 -12 4 -2 1 -5 2 -7 4 -3 1 -7 4 -9 6 -2 2 -6 7 -9 12
-3 5 -6 9 -6 9 0 0 -1 2 -2 5 0 2 -1 4 -1 5 0 1 0 4 0 7 -1 3 0 8 0 11 1 3 1
7 1 8 1 1 1 4 2 6 1 2 2 5 2 5 0 1 1 4 3 7 1 3 3 7 4 8 1 1 3 4 4 7 1 2 3 4 3
4 1 0 1 1 1 1 0 1 1 2 2 4 2 2 3 3 3 4 0 1 1 1 3 1 1 1 2 2 3 4 1 2 2 3 3 3 1
0 6 2 10 5 5 2 9 4 10 5 1 0 3 1 4 2 1 0 8 3 14 5 6 2 13 4 15 5 2 1 5 1 6 1
0 1 1 1 2 1 0 1 1 1 2 1 1 0 5 1 7 1 3 1 8 2 12 3 3 1 10 2 15 4 5 2 11 3 13
4 3 1 10 1 17 2 6 0 16 1 21 1 4 1 19 1 32 2 13 0 25 0 27 0 2 1 10 1 18 1 7
1 17 1 21 1 3 1 10 1 15 2 5 0 12 1 16 1 3 1 11 2 17 3 5 1 14 2 19 3 5 0 12
2 14 2 2 1 9 1 15 2 5 0 18 1 28 3 9 1 19 2 21 3 1 0 12 0 25 1 12 0 26 0 32
1 5 1 12 1 16 2 3 1 11 1 19 2 7 0 17 0 24 1 6 0 19 0 30 1 11 0 26 1 34 1 7
-1 18 0 24 0 5 1 14 1 19 2 5 0 10 0 10 1 0 0 1 0 1 0z M1571 465 c-2 0 -5 -1
-7 -2 -2 -1 -5 -3 -6 -4 -1 -1 -3 -4 -5 -5 -1 -2 -3 -6 -4 -9 -1 -3 -3 -9 -5
-13 -2 -5 -3 -12 -4 -17 -1 -5 -1 -12 -2 -17 -1 -5 -1 -12 -1 -17 0 -7 0 -8
-3 -13 -2 -2 -8 -9 -13 -14 -5 -5 -10 -9 -10 -9 -1 0 -2 -1 -3 -2 -2 -2 -5 -5
-7 -8 -2 -2 -4 -5 -4 -7 0 -1 1 -2 1 -3 1 0 3 -1 5 -1 2 -1 4 -1 8 4 4 2 9 7
12 10 3 3 6 6 7 6 0 0 2 2 5 5 3 4 4 4 4 2 1 -1 1 -2 1 -3 -1 0 0 -3 1 -5 0
-3 3 -7 5 -9 2 -2 5 -4 7 -4 2 -1 5 -1 6 -1 2 0 5 2 9 6 3 3 7 7 8 9 1 1 5 5
7 9 3 3 5 7 4 7 0 1 1 2 1 4 1 1 2 3 2 4 0 1 1 2 2 3 1 0 4 1 6 2 2 0 6 2 10
2 4 1 9 2 13 3 4 0 10 1 14 2 4 0 8 1 10 2 2 1 5 2 8 3 5 0 6 0 6 3 1 2 1 4 2
6 0 2 0 4 -1 5 -1 1 -2 1 -5 1 -3 -1 -7 -2 -10 -3 -3 -2 -8 -3 -12 -4 -4 -1
-8 -2 -9 -2 -2 0 -6 -1 -11 -2 -4 -1 -12 -3 -18 -4 -6 0 -12 -1 -14 -1 -2 0
-4 0 -5 -1 -2 0 -2 -1 -2 -4 0 -2 1 -5 2 -7 1 -2 1 -4 0 -7 0 -1 -2 -5 -4 -7
-2 -2 -5 -6 -7 -8 -2 -3 -5 -5 -6 -6 -1 -1 -2 -1 -3 -1 0 0 -2 2 -3 4 -1 2 -2
5 -2 6 1 0 1 1 0 1 0 1 0 4 0 7 0 3 1 7 2 8 0 1 1 2 0 3 0 1 1 3 3 4 2 2 4 5
5 6 1 1 4 5 6 10 3 5 5 9 5 10 0 2 0 3 2 4 1 0 3 3 5 5 1 2 3 5 4 7 1 2 2 4 1
4 0 1 0 1 1 1 1 0 1 2 1 5 0 3 0 9 0 14 1 6 1 10 0 11 0 2 -1 4 -2 5 -1 2 -2
4 -6 5 -2 1 -6 2 -7 2z m1 -12 c1 0 1 -1 2 -2 0 -2 0 -8 0 -14 -1 -9 -2 -12
-4 -14 -1 -2 -2 -4 -2 -4 0 -1 -1 -3 -3 -5 -1 -3 -3 -5 -3 -5 0 0 -2 -3 -3 -5
-2 -2 -4 -6 -5 -8 -1 -2 -2 -4 -3 -4 0 -1 -1 1 -1 4 -1 3 -1 5 1 6 1 1 1 2 0
6 0 3 0 4 1 4 1 0 1 1 1 4 -1 1 0 3 0 3 0 0 1 1 2 2 0 1 0 3 0 4 0 1 1 3 2 4
2 2 3 4 2 4 0 0 1 4 3 8 2 4 5 9 6 10 2 1 4 2 4 2z M966 408 c-3 0 -6 -1 -9
-2 -2 0 -7 -3 -10 -5 -3 -2 -7 -6 -9 -9 -3 -3 -6 -7 -6 -9 -1 -1 -3 -6 -3 -10
-1 -4 -2 -10 -2 -13 1 -2 1 -6 1 -7 1 -2 2 -6 4 -8 1 -3 3 -7 5 -8 1 -1 5 -3
7 -4 3 -2 6 -2 10 -2 4 0 7 0 8 1 1 1 2 2 3 2 1 0 3 1 4 2 1 1 2 2 3 2 0 0 2
1 3 3 1 2 3 3 4 3 1 0 3 -2 6 -4 3 -3 6 -5 6 -5 1 0 3 -1 6 -2 2 -1 6 -2 8 -2
3 0 6 0 9 1 2 1 5 3 7 5 2 2 4 4 4 4 0 1 1 3 3 5 1 2 2 5 2 6 0 1 0 2 -1 2 -1
0 -1 1 -1 2 0 0 0 1 -1 1 0 0 -1 -1 -2 -1 -1 -1 -4 -4 -8 -7 -3 -3 -7 -5 -7
-5 -1 1 -3 0 -5 0 -4 -1 -4 0 -9 4 l-5 4 0 6 c1 4 1 9 2 13 0 5 1 6 3 7 1 1 2
2 2 4 0 2 -1 3 -1 4 -1 1 -2 3 -3 5 -2 2 -4 5 -5 7 -1 1 -4 4 -6 5 -2 2 -6 3
-8 4 -3 0 -7 1 -9 1z m1 -12 c4 0 6 -1 10 -3 4 -3 4 -3 3 -6 -1 -2 -2 -8 -2
-12 -1 -5 -1 -11 -2 -13 -1 -3 -3 -6 -6 -9 -2 -2 -6 -5 -8 -6 -2 -1 -6 -2 -9
-3 -4 0 -5 0 -8 3 -2 1 -3 3 -3 4 0 1 -1 3 -1 4 -1 2 -1 6 -1 10 -1 6 0 8 1 7
0 -1 1 -1 1 0 1 1 1 2 0 2 -1 1 0 3 1 6 1 2 3 4 4 5 1 0 2 1 2 2 1 2 3 4 5 5
2 1 4 3 5 3 0 0 1 0 2 0 0 1 3 1 6 1z M2007 369 c-2 0 -3 -1 -5 -3 -1 -1 -4
-4 -6 -7 -2 -2 -5 -6 -6 -8 -2 -2 -3 -4 -3 -4 0 0 -3 -3 -6 -8 -3 -4 -7 -9 -9
-11 -2 -2 -3 -5 -3 -6 0 0 0 -1 -1 -1 0 0 -2 -2 -3 -4 -1 -3 -3 -6 -5 -8 -1
-2 -5 -7 -8 -11 -3 -5 -7 -10 -8 -12 -2 -2 -4 -6 -6 -8 -1 -3 -3 -7 -4 -8 -2
-2 -3 -5 -3 -6 -1 -1 -1 -3 1 -5 1 -1 1 -3 1 -3 1 -1 2 -1 3 -1 2 0 5 1 6 2 3
2 3 3 3 7 -1 3 -1 4 1 4 1 1 2 3 3 5 0 3 1 5 2 5 2 1 3 2 4 3 0 1 1 2 1 4 0 1
1 2 1 3 1 1 2 2 3 4 0 1 2 2 3 2 1 1 2 2 2 3 0 0 0 1 1 1 1 0 1 1 1 2 0 2 1 4
3 5 1 1 3 4 4 6 1 2 3 3 3 3 1 0 3 2 5 5 1 2 3 5 4 6 0 1 1 3 3 4 1 1 3 3 4 5
1 2 4 5 5 6 2 2 3 3 3 4 0 0 2 2 3 3 2 2 5 5 7 7 2 3 3 6 4 8 0 2 0 3 -2 5 -1
1 -4 2 -6 2z M1727 322 c-1 0 -2 -1 -2 -2 -1 0 -1 -2 -1 -2 0 -1 2 -4 5 -7 3
-3 7 -6 12 -8 3 -2 7 -4 7 -4 0 0 3 -2 7 -4 4 -2 10 -5 13 -5 4 -1 8 -3 9 -4
1 0 3 -1 4 -1 1 0 2 0 2 -1 0 0 1 -1 2 -1 1 -1 4 -2 5 -2 1 -1 3 -2 4 -2 0 -1
6 -5 12 -8 6 -4 12 -8 14 -10 2 -1 5 -4 7 -6 2 -1 4 -3 5 -3 0 0 1 -1 3 -3 1
-1 4 -4 6 -5 2 -2 5 -4 6 -5 1 -1 4 -3 5 -4 1 -2 4 -3 5 -3 2 -1 3 0 5 2 2 2
3 4 3 6 0 2 -1 3 -2 4 -2 1 -5 3 -8 4 -2 2 -7 5 -11 8 -3 3 -7 6 -7 6 -1 0 -3
2 -5 4 -2 2 -5 4 -7 6 -2 1 -5 3 -7 4 -2 1 -3 3 -3 3 0 0 -1 1 -2 2 -1 0 -4 1
-6 3 -2 1 -8 4 -14 7 -6 3 -12 6 -14 7 -1 0 -5 2 -8 3 -3 0 -7 2 -9 3 -3 2 -7
4 -10 6 -4 2 -7 4 -7 4 0 1 -3 2 -5 3 -3 1 -6 2 -8 2 -1 -1 -2 0 -3 1 -1 1 -2
2 -2 2z M317 239 c-1 0 -2 0 -2 -1 -1 -1 -1 -1 0 -1 0 0 1 0 2 1 1 1 1 1 0 1z
M1899 191 c-2 0 -3 -1 -4 -1 -1 -1 -2 -3 -3 -5 0 -1 -1 -4 -1 -6 -1 -2 -3 -8
-5 -14 -1 -7 -4 -15 -6 -20 -2 -5 -4 -10 -4 -11 -1 -1 -2 -3 -2 -3 0 0 -1 1
-3 2 -2 1 -7 3 -11 3 -4 1 -9 2 -11 1 -1 0 -5 0 -8 0 -3 -1 -5 -2 -6 -2 0 -1
-1 -1 -1 -1 -1 0 -4 -1 -7 -3 -2 -2 -6 -5 -8 -6 -1 -1 -5 -6 -8 -11 -3 -4 -6
-10 -7 -12 -1 -3 -1 -8 -1 -14 l0 -10 5 -6 c3 -3 7 -7 9 -8 3 -1 6 -2 10 -2 5
0 7 0 13 4 5 3 7 5 7 6 -1 0 -1 1 0 1 0 0 4 3 8 8 5 4 9 7 9 7 1 0 2 1 2 3 1
2 2 2 2 1 1 -1 1 -5 2 -10 1 -5 2 -11 3 -14 0 -3 2 -7 3 -9 1 -1 3 -4 5 -5 4
-2 5 -2 14 -1 5 1 12 2 14 2 2 1 6 1 7 1 1 1 4 1 5 2 1 1 3 2 4 3 1 1 2 3 3 4
1 3 1 3 -1 6 -1 1 -3 2 -5 2 -1 0 -3 -1 -5 -1 -1 -1 -3 -2 -4 -2 -1 0 -2 0 -2
-1 0 0 -1 -1 -2 -1 -1 -1 -5 -2 -8 -2 -4 0 -8 -1 -9 -1 -2 -1 -3 0 -4 2 -1 1
-2 3 -2 4 0 1 0 2 -1 2 -1 0 -1 1 0 2 0 2 -1 5 -1 7 -1 2 -2 7 -2 10 0 6 0 6
2 7 2 0 4 1 4 2 0 1 0 3 -1 3 0 0 -1 4 -1 8 -1 5 0 8 1 11 1 2 1 5 2 6 0 1 0
3 1 3 1 1 1 3 1 5 0 2 0 4 1 4 0 0 1 2 2 4 0 2 1 4 1 5 1 0 1 2 1 3 1 1 1 3 1
4 1 1 1 4 2 8 1 3 2 7 3 10 1 2 2 5 2 7 1 2 0 4 -1 6 -1 2 -3 3 -4 3z m-51
-63 c1 -1 4 -1 8 -2 4 -1 8 -2 9 -3 3 -1 3 -2 3 -4 -1 -2 -2 -7 -4 -10 -2 -7
-4 -9 -14 -19 -6 -6 -13 -12 -14 -13 -2 -1 -4 -1 -4 -2 0 0 -2 0 -3 -1 -3 -1
-3 -1 -6 0 -1 1 -4 3 -6 4 -3 2 -4 4 -4 7 -1 1 -1 6 0 9 1 5 2 9 5 14 3 3 6 7
7 9 1 1 5 3 7 5 3 2 7 3 9 4 2 0 4 1 5 1 0 1 1 1 2 1z M1955 130 c-2 0 -3 0
-3 -1 -1 0 -1 -1 -1 -2 0 -1 1 -4 2 -7 1 -2 3 -7 5 -9 1 -3 3 -9 4 -14 1 -5 2
-9 2 -9 0 -1 -2 -3 -4 -6 -2 -2 -5 -6 -8 -9 -2 -3 -6 -9 -8 -13 -2 -4 -4 -8
-4 -9 -1 -1 -1 -3 0 -5 2 -1 3 -2 6 -2 4 0 4 0 4 2 0 2 1 5 3 8 1 3 4 7 5 9 1
2 3 5 6 8 3 4 4 4 5 3 1 -1 1 -3 1 -4 0 -2 1 -7 1 -11 1 -4 2 -10 3 -13 1 -4
2 -8 3 -11 2 -3 3 -4 6 -5 3 -1 4 -1 6 2 2 1 3 3 3 4 0 0 -1 2 -2 3 -1 1 -2 3
-3 5 0 1 -1 4 -2 6 0 2 -1 6 -1 9 0 4 -1 7 -1 8 -1 2 -1 4 -2 6 0 1 0 5 0 8
l-1 6 12 11 c7 7 12 13 12 13 0 1 -1 2 -1 3 -1 1 -2 2 -4 3 -1 0 -3 1 -4 1 -1
0 -4 -2 -7 -5 -3 -2 -7 -6 -9 -8 -2 -3 -4 -4 -4 -4 -1 0 -2 3 -3 6 -2 3 -3 6
-3 7 0 0 -1 1 -1 2 -1 1 -2 2 -2 3 0 1 -2 4 -5 6 -2 3 -5 5 -6 5z M1155 42 c0
0 -1 0 -1 -1 -1 -1 -1 -1 0 -2 0 -1 1 -1 2 -1 1 0 2 1 3 1 0 1 0 2 -1 2 -1 1
-2 1 -3 1z"/>
</g>
</svg>
